<svg id="Layer_1" data-name="Layer 1" xmlns="http://www.w3.org/2000/svg" viewBox="0 0 248.04 293.05"><defs><style>.cls-1{fill:#112b46;}.cls-1,.cls-2,.cls-3,.cls-4,.cls-5,.cls-7,.cls-8{fill-rule:evenodd;}.cls-2,.cls-22{fill:#ffc8af;}.cls-16,.cls-3{fill:#ec827d;}.cls-13,.cls-27,.cls-4{fill:#fff;}.cls-23,.cls-5{fill:#fbd15b;}.cls-6{fill:#83c9ff;}.cls-24,.cls-7{fill:#56548c;}.cls-8{fill:#f4ae92;}.cls-9{fill:#a3d8ef;}.cls-10{fill:#cee9f4;}.cls-11{fill:#6cc6e5;}.cls-12{fill:#bee1f4;}.cls-14{fill:#606bf1;}.cls-15{fill:#495dea;}.cls-17{fill:#d34c4c;}.cls-18{fill:#00c3b6;}.cls-19{fill:#eee;}.cls-20{fill:#ceccff;}.cls-21{fill:#eaeeef;}.cls-25{fill:#efbc3f;}.cls-26{fill:#ffdc85;}.cls-27{font-size:34.77px;font-family:SFProDisplay-Regular, SF Pro Display;}.cls-28{letter-spacing:-0.02em;}.cls-29{letter-spacing:-0.01em;}</style></defs><path class="cls-1" d="M178.54,197c-.24,3.33-.6,6.55-.6,6.55h-.71s0-4.88-.84-3.93C176.63,197,178.54,197,178.54,197Z"/><path class="cls-2" d="M168.41,202.75a1.69,1.69,0,0,1-1.19-1,29.23,29.23,0,0,0,2-2.5c1.55-2.14,4.17-7,4.29-9.29s-1.19-25.15-1.55-27.89-1.43-13.46-1.31-14.06,9.89,3.81,9.89,3.81c-.12.84-1.43,6.32-.95,9.9s1.43,5.83.95,11.67-3.33,15-2.26,19.43v.23C175.2,197,174.25,204.65,168.41,202.75Z"/><path class="cls-1" d="M167.22,201.79c.47.6.95,1,1.19,1,5.84,1.9,6.79-5.72,9.65-9.66.95,4.18.48,4.65-.24,5.25s-3.45,3.93-3.93,6.19-7.75,2-9.18,1.55C163.88,205.73,165.55,203.7,167.22,201.79Z"/><path class="cls-2" d="M188.55,171.65c.24,2.62,1.78,22.28,1.55,25.62-.12,2-1.08,5.12-1.67,7.74-.36,1.67-.6,3-.36,3.58.6,1.66.6,6.67,3.34,5.6s4.52-4.65,3.93-8.46.12-5.72,0-8,1.43-16.68,1.67-21.8-1.43-7.63-1.55-11a80.63,80.63,0,0,1,.95-10.48s-11.8-6.2-10.72,1.31C186.4,163,188.31,169,188.55,171.65Z"/><path class="cls-1" d="M187.59,208.71c.24,3.45,1.08,6.55,3.82,5.36s4.52-4.65,3.93-8.46c-1.43,4.29-7,4-6.91-.72C188.07,206.56,187.47,208,187.59,208.71Z"/><path class="cls-3" d="M169.72,123.62V155.2c0,7.75,2,34.2,2,34.2a10.77,10.77,0,0,0,7.87-.36c.6-6.79,2.62-18,2.86-23.83s-2.38-6.91-1.19-11.2,4.17-27.29,4.17-27.29Z"/><path class="cls-3" d="M182.47,128.63s2,25.62,2.86,28.84,1.55,15.72,2.14,20,.72,16.69.72,16.69c1.55,5,8,.83,8,.83,2.62-15.85.84-23.71.72-28.36s2.14-16.8,1.79-21.81-1-15.49,0-17.51,2.14-5.13,2.5-11c-7.51-2.86-19.43.36-19.43.36Z"/><path class="cls-4" d="M170.91,73c6.67-.36,18.11,7.63,23.24,14.06s1.9,13.58.24,20.5,1,24.42,1,26.09c-7.87,5.37-22.64,6-24.91-1.9-1-8.58,1-17.4,1.08-22.41C171.15,98.6,162,76.2,170.91,73Z"/><path class="cls-5" d="M176.75,74.53c-3.46,15.13-2.38,31.46-1.67,37.89s.95,27.77.95,27.77c-5.12-2.62-7.62-7.39-7.74-9.66s1.91-20.73,1.79-22.16-2.74-15.85-2.51-23.59,3.22-8.94,3.22-8.94l6.67-3Z"/><path class="cls-5" d="M186.4,76.08c-5.12,11.08-2.62,21.09-2.5,30.15s4.89,34.55,4.89,34.55c9.05-2.26,10.12-8.34,11.79-11.44,4.17-21.21-1.07-38.37-5-44.8C192.6,79.65,186.4,76.08,186.4,76.08Z"/><path class="cls-6" d="M150.06,110.4a5.08,5.08,0,0,0,4.53,0c1.31-.72,1.31-1.91,0-2.63a5.08,5.08,0,0,0-4.53,0A1.42,1.42,0,0,0,150.06,110.4Z"/><path class="cls-5" d="M192.12,84.78c-6.19,3.09-6.79,21.45-11.56,26.09-2.74,2.62-13.58.48-17.28.6-1.43,3.22.48,7.15.48,7.15,20.62.95,23.12,1.67,28.36-8.34C196.29,102.41,200.46,82.75,192.12,84.78Z"/><path class="cls-5" d="M170.67,75.84c-4,2.14-5.84,18.83-10.72,23-2.74,2.38-3.93,4.53-9.42,7.27-1.43,3,2.51,4.88,2.51,4.88,11-4.17,13.46-7.74,17.16-13.34C174.84,90.85,179,73.93,170.67,75.84Z"/><path class="cls-2" d="M152.8,110.4a15,15,0,0,1-2.15,2.62c-1,1.07-2.5,3-3,2.5s.48-2.26.48-2.26a26.09,26.09,0,0,0-3.34,3.57c-.47,1-.23-1.67.48-2.86-1.79,2.74-2.26,3.34-2.38,2.62s1.31-4.41,1.19-4c-2.15,3.1-2.86,3.58-2.62,2.15s2.26-3.94,3.45-4.65c-3.57,2.38-3.81,2.14-3,1.07a16.38,16.38,0,0,1,8.7-4.29C153.51,109.56,152.8,110.4,152.8,110.4Z"/><path class="cls-2" d="M150.41,116.23c1.2-1.78,2.86-3.93,5-4.52a7.83,7.83,0,0,1,4.65.35c1.19.36,2.86.6,4.05,1.08A10.55,10.55,0,0,1,165,117a1.74,1.74,0,0,1-.83.12,36.19,36.19,0,0,1-3.81.59,12.38,12.38,0,0,1-3,0c.35.12.71.24.71.6a.8.8,0,0,1-.48.6c-1.78.47-3.45-1.79-4.64-2.86C153.16,116.23,148.87,118.62,150.41,116.23Z"/><path class="cls-7" d="M169.84,57.49c-.12.24-.24.36-.24.59-.36,1-.12,2.15-.36,3.22-.36,1.67-1.55,3-2.14,4.53-2,5.84,3.81,9.17,8.82,8.7a4.49,4.49,0,0,0,2.5-.84c2.5-1.9-.36-4.88-1.43-6.55a10.1,10.1,0,0,1-2-4.29c-.12-1.43.72-2.62.36-4.17A3,3,0,0,0,169.84,57.49Z"/><path class="cls-2" d="M184.85,69.4s-1.67,5.72,2.15,8.23c.12,1.43-3.82,7.38-7.87,6.31-2.38-.59-3.57-3.93-3.57-3.93A62,62,0,0,1,177,73.57Z"/><path class="cls-2" d="M171.39,57.73a17.3,17.3,0,0,0-.6,6.43c.36,2.86.6,8.46,3.1,10.25s6.08-.24,8.46-2.27a14.24,14.24,0,0,0,4.89-10.24c0-4.53-1.67-10-8.23-9.77S171.39,57.73,171.39,57.73Z"/><path class="cls-7" d="M175.92,54.87c-1.67,2-.84,4.64,1.19,6.07,1.43,1.08,2.74,1.67,3.69,3.34a10.46,10.46,0,0,1,1.43,4.89c.12,1.43.12,2.86.12,4.29,0,.71.12,1.54.83,1.78a5.19,5.19,0,0,0,3.22-.83,11.49,11.49,0,0,0,3.1-2.74,12,12,0,0,0,3-7.39c.24-5-2.74-8.34-6.32-11.2S179,51.29,175.92,54.87Z"/><path class="cls-7" d="M173.77,52.36h0c1.31-.83,6.44-2.5,6.55.12s-3.81,5.25-5.83,6.44a18,18,0,0,0-2.63,1.55c-1.07.83-1.19,2.38-2.14,3.09-1.43-1.43-1.07-4.76-.48-6.43C169.84,55,171.86,53.67,173.77,52.36Z"/><path class="cls-8" d="M176.63,75.12c2.62-.23,5.6-2.86,5.6-2.86s-.59,3.1-6,4.29Z"/><polygon class="cls-9" points="208.09 121.95 208.09 138.76 177.58 156.51 177.58 139.71 208.09 121.95"/><polygon class="cls-10" points="70.69 139.71 70.69 156.51 39.95 138.76 40.07 121.95 70.69 139.71"/><path class="cls-11" d="M150.06,163.07V146.26c0-2.38,1.55-4.76,4.64-6.55,6.32-3.69,16.45-3.69,22.76,0v16.8c-6.31-3.69-16.56-3.69-22.76,0C151.61,158.3,150.06,160.68,150.06,163.07Z"/><path class="cls-9" d="M98.34,146.38v16.81c0-2.39-1.55-4.77-4.77-6.68-6.31-3.69-16.56-3.69-22.76,0v-16.8c6.32-3.69,16.45-3.69,22.76,0C96.67,141.5,98.34,144,98.34,146.38Z"/><polygon class="cls-10" points="124.32 170.69 124.32 187.49 93.57 169.74 93.57 152.94 124.32 170.69"/><polygon class="cls-9" points="154.82 152.94 154.82 169.74 124.32 187.49 124.32 170.69 154.82 152.94"/><path class="cls-12" d="M208.09,122l-30.51,17.76c-6.31-3.69-16.56-3.69-22.76,0s-6.19,9.53.12,13.23l-30.5,17.75L93.69,152.94c6.32-3.7,6.2-9.54-.12-13.23S77,136,70.81,139.71L40.07,122l83.77-48.73Z"/><polygon class="cls-13" points="147.67 106.94 150.89 110.63 152.56 107.89 147.67 106.94"/><polygon class="cls-14" points="147.67 106.94 148.51 108.01 148.99 107.18 147.67 106.94"/><path class="cls-14" d="M152.56,107.89a.72.72,0,0,0-.83.12,2.29,2.29,0,0,0-1.08,1.91.83.83,0,0,0,.36.71l23.71,13.83a.87.87,0,0,1-.35-.72,2.23,2.23,0,0,1,1.07-1.9,1,1,0,0,1,.83-.12Z"/><path class="cls-15" d="M175.44,121.84c.59-.36,1.19-.12,1.19.59a2.13,2.13,0,0,1-1.19,1.91c-.6.36-1.19.12-1.19-.6A2.34,2.34,0,0,1,175.44,121.84Z"/><polygon class="cls-13" points="158.99 108.85 162.21 112.66 163.76 109.8 158.99 108.85"/><polygon class="cls-16" points="158.99 108.85 159.83 109.92 160.31 109.2 158.99 108.85"/><path class="cls-16" d="M163.76,109.8a.72.72,0,0,0-.83.12,2.29,2.29,0,0,0-1.08,1.91.85.85,0,0,0,.36.71l15.37,8.94a.87.87,0,0,1-.35-.72,2.23,2.23,0,0,1,1.07-1.9,1,1,0,0,1,.83-.12Z"/><path class="cls-17" d="M178.3,118.86c.59-.36,1.19-.12,1.19.59a2.13,2.13,0,0,1-1.19,1.91c-.6.36-1.19.12-1.19-.6A3.24,3.24,0,0,1,178.3,118.86Z"/><path class="cls-15" d="M143.74,114.09c-.12-.12-.24-.24-.24-.36v3c0,.12.12.24.24.36l3.34,1.91v-3Z"/><polygon class="cls-18" points="151.61 113.49 151.61 116.47 147.08 118.98 147.08 116 151.61 113.49"/><path class="cls-14" d="M151.61,113.49l-4.41,2.63-3.34-1.91q-.54-.36,0-.72l3.34-1.9a1.07,1.07,0,0,1,1.19,0Z"/><polygon class="cls-19" points="153.87 114.81 153.87 117.78 149.46 120.41 149.46 117.43 153.87 114.81"/><polygon class="cls-20" points="149.46 117.43 149.46 120.41 147.08 118.98 147.08 116 149.46 117.43"/><polygon class="cls-13" points="153.87 114.81 149.46 117.43 147.08 116 151.61 113.49 153.87 114.81"/><path class="cls-17" d="M157.33,117.43l-3.34,1.9a1.07,1.07,0,0,1-1.19,0l-3.34-1.9v3l3.34,1.9a1.07,1.07,0,0,0,1.19,0l3.34-1.9c.12-.12.23-.24.23-.36v-3C157.45,117.19,157.45,117.31,157.33,117.43Z"/><path class="cls-16" d="M157.33,116.71q.53.36,0,.72l-3.34,1.9a1.07,1.07,0,0,1-1.19,0l-3.34-1.9,4.41-2.63Z"/><path class="cls-13" d="M112.4,88.83,64.86,116.35c-1.08.6-1,1.79.35,2.51l27.53,16a4.53,4.53,0,0,0,4.29.12l47.55-27.52c1.07-.6.95-1.79-.36-2.51L116.69,89A5.33,5.33,0,0,0,112.4,88.83Z"/><polygon class="cls-21" points="116.57 97.77 119.67 95.98 137.9 106.46 134.8 108.25 116.57 97.77"/><polygon class="cls-21" points="109.9 101.7 113 99.79 131.23 110.4 128.13 112.18 109.9 101.7"/><polygon class="cls-21" points="103.23 105.51 106.32 103.72 124.56 114.21 121.46 116 103.23 105.51"/><polygon class="cls-21" points="96.55 109.32 99.65 107.54 117.88 118.14 114.67 119.93 96.55 109.32"/><polygon class="cls-21" points="89.76 113.26 92.98 111.47 111.21 121.95 107.99 123.74 89.76 113.26"/><polygon class="cls-22" points="116.57 97.77 119.67 95.98 124.32 98.6 121.1 100.39 116.57 97.77"/><polygon class="cls-23" points="109.9 101.7 113 99.79 123.6 105.99 120.5 107.77 109.9 101.7"/><polygon class="cls-14" points="103.23 105.51 106.32 103.72 114.07 108.13 110.97 109.92 103.23 105.51"/><polygon class="cls-24" points="96.55 109.32 99.65 107.54 112.76 115.16 109.66 116.95 96.55 109.32"/><polygon class="cls-16" points="89.76 113.26 92.98 111.47 108.47 120.41 105.25 122.19 89.76 113.26"/><polygon class="cls-21" points="103.7 124.69 93.57 130.53 94.89 131.37 105.01 125.53 103.7 124.69"/><polygon class="cls-21" points="100.6 123.03 90.48 128.87 91.79 129.58 101.92 123.74 100.6 123.03"/><polygon class="cls-21" points="97.63 121.24 87.5 127.08 88.81 127.79 98.94 121.95 97.63 121.24"/><polygon class="cls-21" points="94.53 119.45 84.4 125.29 85.71 126.13 95.84 120.29 94.53 119.45"/><polygon class="cls-21" points="91.55 117.78 81.42 123.62 82.73 124.34 92.86 118.5 91.55 117.78"/><polygon class="cls-21" points="88.45 116 78.32 121.84 79.75 122.55 89.76 116.71 88.45 116"/><polygon class="cls-21" points="82.37 112.42 75.34 116.59 76.65 117.31 83.8 113.26 82.37 112.42"/><polygon class="cls-21" points="85.47 114.21 75.34 120.05 76.65 120.88 86.78 115.04 85.47 114.21"/><polygon class="cls-21" points="116.57 94.07 86.66 111.35 87.97 112.18 117.88 94.91 116.57 94.07"/><polygon class="cls-23" points="115.02 131.49 136.35 119.09 148.39 126.13 127.18 138.4 115.02 131.49"/><polygon class="cls-25" points="127.18 138.4 129.56 127.56 148.39 126.13 127.18 138.4"/><polygon class="cls-26" points="136.35 119.09 133.97 130.06 115.02 131.49 136.35 119.09"/><text class="cls-27" transform="translate(55.61 276.21)">C<tspan class="cls-28" x="23.85" y="0">r</tspan><tspan x="33.72" y="0">eati</tspan><tspan class="cls-29" x="86.55" y="0">v</tspan><tspan x="102.83" y="0">es</tspan></text></svg>