<svg xmlns="http://www.w3.org/2000/svg" viewBox="0 0 1132.91 473.08"><defs><style>.cls-1{fill:#e6e6e6;}.cls-2{fill:#ccc;}.cls-3{fill:#b3b3b3;}.cls-37,.cls-4{fill:#112b46;}.cls-10,.cls-11,.cls-12,.cls-13,.cls-14,.cls-16,.cls-32,.cls-4,.cls-5,.cls-54,.cls-55,.cls-6,.cls-7,.cls-8,.cls-9{fill-rule:evenodd;}.cls-5{fill:#21496d;}.cls-28,.cls-6{fill:#495dea;}.cls-41,.cls-46,.cls-50,.cls-56,.cls-58,.cls-62,.cls-65,.cls-67,.cls-7{fill:#fff;}.cls-29,.cls-8{fill:#606bf1;}.cls-9{fill:#20318d;}.cls-10,.cls-45{fill:#ffc8af;}.cls-11,.cls-27{fill:#7181f4;}.cls-12{fill:#f4ae92;}.cls-13,.cls-26{fill:#ec827d;}.cls-14,.cls-33{fill:#fbd15b;}.cls-15{fill:#83c9ff;}.cls-16,.cls-17{fill:#56548c;}.cls-18,.cls-46,.cls-50{isolation:isolate;}.cls-19{fill:#a3d8ef;}.cls-20{fill:#cee9f4;}.cls-21{fill:#6cc6e5;}.cls-22{fill:#bee1f4;}.cls-23{fill:#d86868;}.cls-24{fill:#d34c4c;}.cls-25{fill:#f49898;}.cls-30{fill:#efbc3f;}.cls-31{fill:#ffdc85;}.cls-32{fill:#f2ad91;}.cls-34{fill:#a5b7c6;}.cls-35{fill:#b6c7d3;}.cls-36{fill:#878cf0;}.cls-38{fill:#ccd9e2;}.cls-39{fill:#eee;}.cls-40{fill:#879faf;}.cls-42{fill:#00c3b6;}.cls-43{fill:#ceccff;}.cls-44{fill:#eaeeef;}.cls-46{font-size:9.7px;}.cls-46,.cls-50{font-family:OpenSans;}.cls-47{letter-spacing:-0.01em;}.cls-48{letter-spacing:-0.08em;}.cls-49{letter-spacing:-0.08em;}.cls-50{font-size:11.53px;}.cls-51{letter-spacing:-0.01em;}.cls-52{letter-spacing:-0.08em;}.cls-53{letter-spacing:-0.08em;}.cls-54{fill:#303072;}.cls-55{fill:#46467f;}.cls-56,.cls-58,.cls-62,.cls-65{font-size:47.43px;font-family:SFProDisplay-Light, SF Pro Display;font-weight:300;}.cls-56{letter-spacing:-0.07em;}.cls-57{letter-spacing:0.06em;}.cls-58,.cls-63{letter-spacing:0.06em;}.cls-59{letter-spacing:0.03em;}.cls-60{letter-spacing:0.06em;}.cls-61{letter-spacing:0.05em;}.cls-62{letter-spacing:0.06em;}.cls-64{letter-spacing:0.05em;}.cls-65{letter-spacing:0.06em;}.cls-66{letter-spacing:0.06em;}.cls-67{font-size:22.99px;font-family:SFProDisplay-Thin, SF Pro Display;font-weight:200;letter-spacing:0.05em;}.cls-68{letter-spacing:0.06em;}.cls-69{letter-spacing:0.02em;}.cls-70{letter-spacing:0.01em;}</style></defs><g id="Layer_2" data-name="Layer 2"><g id="Layer_1-2" data-name="Layer 1"><path class="cls-1" d="M636.15,202.2a17.55,17.55,0,0,0,12.68,4.72,24,24,0,0,0,14.65-6c.12-.1.24-.2.36-.32-1-.05-2-.12-3-.2-4.52-.37-9.31-.9-13.24-3a43.67,43.67,0,0,0,20.91-1.77,37.5,37.5,0,0,0,5.73-10.33,22.45,22.45,0,0,1-2.61,1.39c-6,2.76-12.81,2.82-19.39,1.81A87.53,87.53,0,0,0,676,178.82a36.68,36.68,0,0,0,.46-9.3,24.25,24.25,0,0,0-2.29,2.67c-1.33,1.84-2.36,4-4.14,5.39-2.41,1.92-5.71,2.19-8.79,2.27-1.57,0-3.15.06-4.73,0,1.86-.67,3.71-1.37,5.54-2.13a33.71,33.71,0,0,0,4.77-2.29c3.79-2.28,6.64-5.74,9.21-9.39a35.67,35.67,0,0,0-1.55-5.68,45.31,45.31,0,0,1-13.92,9,71,71,0,0,0,12.65-12,31.26,31.26,0,0,0-2.67-4.63,33.87,33.87,0,0,1-12.95,9.7,44.37,44.37,0,0,0,10.5-12.83,36.36,36.36,0,0,0-2.81-3,20.64,20.64,0,0,1-2.76,2.77,22.4,22.4,0,0,1-2.78,1.9,32.55,32.55,0,0,0,3.69-6.39,45.35,45.35,0,0,0-4.1-3.22Z"/><path class="cls-1" d="M636.15,202.2c-2.38.66-6.71.05-9-1a19.79,19.79,0,0,1-6.7-4.84c-3.61-4-5.12-9.58-5.57-15a27.73,27.73,0,0,0,6.43,4.52,55.41,55.41,0,0,0,7.58,3c-2.56-2.57-4.9-5.44-7.75-7.7-1-.8-2.07-1.52-3-2.36a16,16,0,0,1-3.3-4,35.54,35.54,0,0,1,3-12.4,41.1,41.1,0,0,0,2.42,5.64,21.21,21.21,0,0,0,3.76,5.7,15.05,15.05,0,0,0,4.3,2.87,22.42,22.42,0,0,1-2.45-3.05c-3.21-4.82-4.13-10.76-4.88-16.52a30.94,30.94,0,0,1,4.36-4.72,30.66,30.66,0,0,0,9.22,19c-.47-.89-.89-1.82-1.3-2.75a58.44,58.44,0,0,1-3.45-9,47.94,47.94,0,0,1-1.08-5.79,19,19,0,0,1-.24-2.9c0-.37,0-.74.06-1.11a41.08,41.08,0,0,1,5.55-3.28,21.15,21.15,0,0,0,0,7.61,23.49,23.49,0,0,0,1.5,4.47,36.89,36.89,0,0,0,4.82,8.35,30.78,30.78,0,0,1-1.91-22.34,31,31,0,0,1,4.38-1.24,23.66,23.66,0,0,0,.08,9.07,23.51,23.51,0,0,1,2.73-9.56c1.68-.24,3.37-.39,5.08-.51a19.8,19.8,0,0,0-.17,5.75,19.29,19.29,0,0,1,2.17-5.88c2.11-.12,4.28-.26,6.54-.51Z"/><path class="cls-1" d="M643.57,192.84c1.2.08,2.4.21,3.61.24,2.4.14,4.82.16,7.22.12s4.81-.19,7.2-.44a53.11,53.11,0,0,0,7.12-1.17,52,52,0,0,1-7.13,1c-2.39.19-4.79.26-7.19.26s-4.79-.12-7.18-.32c-1.19-.07-2.38-.22-3.58-.34l-2.69-.34,2.58-7.09a41.94,41.94,0,0,0,4.75.14,51.71,51.71,0,0,0,5.28-.43,64.35,64.35,0,0,0,10.31-2.21,64.12,64.12,0,0,1-10.35,1.83c-1.75.17-3.5.23-5.24.23a41.6,41.6,0,0,1-4.48-.27l2.46-6.76a32.9,32.9,0,0,0,6.34-.69,38.6,38.6,0,0,0,6.5-2,50.48,50.48,0,0,0,6.12-2.92,48,48,0,0,0,5.65-3.73,44.67,44.67,0,0,1-5.72,3.6,47.84,47.84,0,0,1-6.15,2.78,38.42,38.42,0,0,1-6.48,1.79,32.24,32.24,0,0,1-6,.55l2.6-7.12a31.65,31.65,0,0,0,5.26-1.51,36,36,0,0,0,5.18-2.43,45.71,45.71,0,0,0,4.79-3.12,40.48,40.48,0,0,0,4.32-3.72,39.93,39.93,0,0,1-4.4,3.6,44.68,44.68,0,0,1-4.84,3,36.93,36.93,0,0,1-5.2,2.28,29.48,29.48,0,0,1-4.88,1.29l2.7-7.42a38.94,38.94,0,0,0,6.17-4.07,38,38,0,0,0,5.39-5.22,38.36,38.36,0,0,1-5.51,5.07A39.25,39.25,0,0,1,652.2,161l4.74-13-6.87,17.07a25.12,25.12,0,0,1-1.7-3.86c-.28-.74-.46-1.53-.69-2.29s-.36-1.56-.46-2.35a29.43,29.43,0,0,1-.4-4.77,27.3,27.3,0,0,1,.4-4.78,26.45,26.45,0,0,0-.49,4.78,28.52,28.52,0,0,0,.29,4.8c.09.8.28,1.59.43,2.38s.37,1.56.65,2.32a25.7,25.7,0,0,0,1.79,4.22l-2.72,6.77a34.57,34.57,0,0,1-5.75-11.41,33.5,33.5,0,0,1-1.23-6.67,30.85,30.85,0,0,1,.14-6.79,30.41,30.41,0,0,0-.28,6.81,34.11,34.11,0,0,0,1.09,6.73,33.37,33.37,0,0,0,2.38,6.41,34.67,34.67,0,0,0,3.4,5.55l-2.48,6.17-.8-.81-.67-.67-.63-.73-1.24-1.45L640,173.93a44.83,44.83,0,0,1-3.93-6.56,56,56,0,0,1-2.89-7.09,49.42,49.42,0,0,1-1.84-7.45,49.85,49.85,0,0,0,1.65,7.51,55.79,55.79,0,0,0,2.73,7.2,44.94,44.94,0,0,0,3.8,6.72l1.11,1.59,1.22,1.5.61.75.67.71,1,1.08-1.51,3.74a39.21,39.21,0,0,1-5-3.67,45.62,45.62,0,0,1-4.9-4.93,55.81,55.81,0,0,1-4.21-5.55,51.86,51.86,0,0,1-3.47-6.06,51.38,51.38,0,0,0,3.31,6.16,54.67,54.67,0,0,0,4.08,5.7,44.77,44.77,0,0,0,4.82,5.11,36.94,36.94,0,0,0,5.12,4l-1.72,4.29c-.81-.36-1.62-.71-2.42-1.09-1-.5-2-1-3-1.51-2-1-3.9-2.23-5.79-3.45a66,66,0,0,1-5.42-4,44,44,0,0,1-4.9-4.65,44.12,44.12,0,0,0,4.78,4.79,65.58,65.58,0,0,0,5.33,4.2c1.86,1.28,3.76,2.53,5.73,3.63,1,.59,2,1.08,3,1.62.79.41,1.61.78,2.42,1.17l-3.52,8.77a20.49,20.49,0,0,1-5-1.18,30.72,30.72,0,0,1-5.3-2.77,40.09,40.09,0,0,1-4.71-3.72,41.65,41.65,0,0,1-4.13-4.38,40.9,40.9,0,0,0,4,4.52,42.08,42.08,0,0,0,4.63,3.9,30.19,30.19,0,0,0,5.29,3,21.23,21.23,0,0,0,4.92,1.36l-6.18,15.35,2.15.83,5.72-15.66a29.46,29.46,0,0,0,3.71,1.57,33.17,33.17,0,0,0,4.79,1.28,33.72,33.72,0,0,0,4.91.57,28.89,28.89,0,0,0,4.92-.17,29.81,29.81,0,0,1-4.91,0,32.93,32.93,0,0,1-4.84-.76,31.39,31.39,0,0,1-8.33-3.17l2.21-6.05Z"/><path class="cls-1" d="M367.21,289.42a17.6,17.6,0,0,0,4.52-12.76,24.12,24.12,0,0,0-6.28-14.55l-.33-.35c0,1-.1,2-.15,3-.29,4.52-.74,9.31-2.77,13.28a43.73,43.73,0,0,0-2.12-20.88,37.5,37.5,0,0,0-10.42-5.56,24.06,24.06,0,0,1,1.43,2.59c2.85,6,3,12.75,2.13,19.36a87.65,87.65,0,0,0-10-23.59,36.81,36.81,0,0,0-9.32-.3,25.37,25.37,0,0,0,2.72,2.25c1.86,1.3,4,2.29,5.46,4.05,2,2.37,2.28,5.67,2.42,8.74.07,1.57.11,3.15.12,4.73-.7-1.85-1.43-3.69-2.22-5.5a32.65,32.65,0,0,0-2.37-4.73c-2.35-3.74-5.85-6.54-9.54-9a33.41,33.41,0,0,0-5.65,1.64,45.14,45.14,0,0,1,9.27,13.77,71.05,71.05,0,0,0-12.24-12.45,32.12,32.12,0,0,0-4.58,2.75,33.89,33.89,0,0,1,9.92,12.79,44.48,44.48,0,0,0-13-10.29,40,40,0,0,0-3,2.87,19.25,19.25,0,0,1,4.75,5.46,32.8,32.8,0,0,0-6.45-3.59,47.3,47.3,0,0,0-3.15,4.16Z"/><path class="cls-1" d="M367.21,289.42c.7,2.37.17,6.71-.82,9a20,20,0,0,1-4.73,6.78c-4,3.68-9.5,5.28-14.91,5.82a27.6,27.6,0,0,0,4.41-6.5,53.84,53.84,0,0,0,2.84-7.64c-2.52,2.6-5.36,5-7.57,7.88-.78,1-1.48,2.1-2.3,3.07a16,16,0,0,1-3.95,3.37,35.51,35.51,0,0,1-12.46-2.76,39,39,0,0,0,5.6-2.52A21.49,21.49,0,0,0,339,302a15.38,15.38,0,0,0,2.8-4.34,24.05,24.05,0,0,1-3,2.5c-4.77,3.29-10.69,4.31-16.44,5.15a31,31,0,0,1-4.8-4.28,30.8,30.8,0,0,0,18.84-9.54c-.89.49-1.81.92-2.73,1.34a59.21,59.21,0,0,1-8.92,3.6,47.36,47.36,0,0,1-5.78,1.18,18.73,18.73,0,0,1-2.89.28,8.25,8.25,0,0,1-1.11-.05,39.39,39.39,0,0,1-3.37-5.49,20.93,20.93,0,0,0,7.61-.15,23.82,23.82,0,0,0,4.45-1.58,36.57,36.57,0,0,0,8.26-5A30.85,30.85,0,0,1,309.57,288a34.35,34.35,0,0,1-1.31-4.37,23.66,23.66,0,0,0,9.07-.23,23.67,23.67,0,0,1-9.61-2.57c-.26-1.68-.43-3.36-.58-5.07a19.45,19.45,0,0,0,5.75.07,18.76,18.76,0,0,1-5.91-2.08c-.17-2.1-.33-4.27-.62-6.52Z"/><path class="cls-1" d="M357.73,282.15c.06-1.2.16-2.4.18-3.6.09-2.41.08-4.82,0-7.23s-.27-4.8-.56-7.19a54.58,54.58,0,0,0-1.29-7.09,55.28,55.28,0,0,1,1.1,7.11c.23,2.39.34,4.79.37,7.19s0,4.79-.2,7.18c-.05,1.2-.18,2.39-.27,3.59l-.31,2.71-7.12-2.47a41.85,41.85,0,0,0,.05-4.75,51.37,51.37,0,0,0-.52-5.27,64,64,0,0,0-2.38-10.27,62.51,62.51,0,0,1,2,10.32c.2,1.74.29,3.49.32,5.23a41.62,41.62,0,0,1-.2,4.48l-6.8-2.35a32,32,0,0,0-.79-6.32,38.64,38.64,0,0,0-2.06-6.47,48.19,48.19,0,0,0-3-6.06,45.46,45.46,0,0,0-3.82-5.58,45.74,45.74,0,0,1,3.7,5.65,49.32,49.32,0,0,1,2.88,6.11,38.48,38.48,0,0,1,1.91,6.45,31.34,31.34,0,0,1,.64,6l-7.17-2.48a31,31,0,0,0-1.59-5.24,36.51,36.51,0,0,0-2.52-5.14,43.25,43.25,0,0,0-3.2-4.74,39.33,39.33,0,0,0-3.8-4.26,39.18,39.18,0,0,1,3.68,4.35,43.74,43.74,0,0,1,3.07,4.79,36.72,36.72,0,0,1,2.37,5.14,30.61,30.61,0,0,1,1.36,4.87l-7.46-2.59a39.75,39.75,0,0,0-4.17-6.09,37,37,0,0,0-5.31-5.3,37.28,37.28,0,0,1,5.16,5.42,38.73,38.73,0,0,1,3.78,5.8l-13.05-4.52,17.18,6.58a23.56,23.56,0,0,1-3.82,1.76c-.74.3-1.52.49-2.28.73s-1.55.39-2.34.51a30.47,30.47,0,0,1-4.77.47,25.61,25.61,0,0,1-4.79-.33,25.69,25.69,0,0,0,4.79.42,29.9,29.9,0,0,0,4.81-.38c.79-.11,1.58-.3,2.36-.47s1.57-.4,2.32-.69a26.14,26.14,0,0,0,4.2-1.85l6.81,2.6a33.53,33.53,0,0,1-5.08,3.35,32.59,32.59,0,0,1-6.25,2.6,33.27,33.27,0,0,1-6.64,1.34,30.83,30.83,0,0,1-6.79,0,30.33,30.33,0,0,0,6.8.16,34.07,34.07,0,0,0,6.72-1.2,33.05,33.05,0,0,0,6.36-2.49,34.29,34.29,0,0,0,5.5-3.49l6.21,2.38-.8.82-.66.68-.71.63-1.43,1.27-1.52,1.15a44.2,44.2,0,0,1-6.49,4,54,54,0,0,1-7,3,50,50,0,0,1-7.42,2,49.6,49.6,0,0,0,7.48-1.78,55.88,55.88,0,0,0,7.16-2.85,45,45,0,0,0,6.66-3.91l1.56-1.14,1.49-1.24.74-.63.69-.67,1.07-1,3.77,1.44a37.65,37.65,0,0,1-3.59,5.09,44.82,44.82,0,0,1-4.85,5,57,57,0,0,1-5.48,4.3,52.69,52.69,0,0,1-6,3.57,51.39,51.39,0,0,0,6.1-3.42,57.26,57.26,0,0,0,5.63-4.17,45.64,45.64,0,0,0,5-4.9,37.76,37.76,0,0,0,3.86-5.19l4.32,1.66c-.34.81-.68,1.62-1.05,2.42-.48,1-.93,2.05-1.46,3-1,2-2.16,3.95-3.35,5.86a63.81,63.81,0,0,1-3.93,5.49,44.81,44.81,0,0,1-4.57,5,44.12,44.12,0,0,0,4.71-4.86q2.19-2.59,4.11-5.39c1.25-1.89,2.47-3.8,3.54-5.8.56-1,1.05-2,1.56-3,.4-.81.77-1.63,1.14-2.45l8.82,3.38a20.13,20.13,0,0,1-1.09,5,30,30,0,0,1-2.69,5.34,41.42,41.42,0,0,1-7.95,9,39.93,39.93,0,0,0,4.45-4.08,42.11,42.11,0,0,0,3.83-4.69,31,31,0,0,0,2.9-5.35,21.4,21.4,0,0,0,1.27-4.93l15.45,5.91.79-2.16-15.75-5.45a28.12,28.12,0,0,0,1.51-3.74A30.72,30.72,0,0,0,367,278.9a31.31,31.31,0,0,0,.49-4.92,27.94,27.94,0,0,0-.25-4.92,27.77,27.77,0,0,1,.06,4.91,33.08,33.08,0,0,1-.67,4.85,30.06,30.06,0,0,1-1.37,4.69,27.23,27.23,0,0,1-1.67,3.69l-6.09-2.11Z"/><ellipse class="cls-2" cx="476.36" cy="324.09" rx="72.76" ry="126.02" transform="translate(149.7 798.69) rotate(-89.69)"/><ellipse class="cls-3" cx="604.17" cy="273.54" rx="72.76" ry="126.02" transform="translate(327.36 876.22) rotate(-89.69)"/><path class="cls-3" d="M486.88,96.65h0a28.08,28.08,0,0,0-4.41-1.74l-.24-.07L481,94.51l-.42-.1-1.09-.22L479,94.1,478,93.94l-.52-.07-1.11-.09-.48,0c-.53,0-1.06,0-1.59,0h0a28.48,28.48,0,0,0-16,4.87,29.17,29.17,0,0,0-3.23,2.55,28.38,28.38,0,0,0-2.83,3c-.3.35-.57.71-.85,1.07-.55.73-1.06,1.49-1.54,2.28-.24.39-.47.79-.69,1.19s-.55,1.08-.8,1.63-.53,1.18-.76,1.79a29.27,29.27,0,0,0-1,3,28.9,28.9,0,0,0-.9,7.13c0,.45,0,.89,0,1.34,0,.14,0,.29,0,.42,0,.31,0,.61.07.91s0,.32.05.48.07.58.11.87.05.31.07.46c.05.35.12.69.19,1,0,.11,0,.23.07.34.07.37.16.74.25,1.11.05.17.09.34.14.52s.13.47.21.7l.18.58.21.63c.07.19.13.4.21.58s.16.4.23.6q.23.56.48,1.11l.21.49.33.66c.08.14.15.29.23.44l.36.66.23.4c.13.22.26.45.4.67l.18.28c.35.54.71,1.07,1.09,1.59h0a28.52,28.52,0,1,0,35.61-42.46Z"/><path class="cls-3" d="M402.54,87.38h0a38.39,38.39,0,0,0-6-2.37l-.33-.1c-.55-.16-1.11-.31-1.67-.44l-.57-.13L392.49,84l-.68-.12q-.71-.12-1.44-.21c-.24,0-.47-.07-.71-.09-.5,0-1-.1-1.5-.13l-.66-.06c-.72,0-1.44-.06-2.16-.06a38.87,38.87,0,0,0-38.87,38.87c0,.62,0,1.23,0,1.83,0,.19,0,.38,0,.58,0,.41.06.82.1,1.24,0,.21.05.43.07.66,0,.4.1.79.15,1.18l.09.62c.07.48.16,1,.25,1.43,0,.16.07.31.1.47.1.5.22,1,.34,1.5.06.24.13.47.19.71s.17.64.27,1,.16.53.25.78.19.57.28.85.19.54.29.8.21.54.31.81c.22.52.43,1,.66,1.54.1.21.19.42.28.63s.31.61.46.91.19.39.3.59.32.61.49.91.21.35.3.52.36.62.55.93l.24.37a38.86,38.86,0,1,0,50-55.67Z"/><path class="cls-3" d="M449.25,21.93c-.13-.05-.28-.08-.42-.12-.71-.2-1.41-.4-2.13-.57l-.72-.17q-.94-.21-1.89-.39l-.86-.15q-.92-.15-1.83-.27l-.91-.11c-.64-.07-1.28-.12-1.93-.17l-.82-.06c-.92-.05-1.85-.08-2.77-.08h0A49.28,49.28,0,0,0,409.24,27c-.69.41-1.36.84-2,1.29a50.34,50.34,0,0,0-10.55,9.58,49.43,49.43,0,0,0-11.33,31.57c0,.78,0,1.56.06,2.34l.05.74c0,.54.08,1.06.12,1.59,0,.28.05.56.08.84.06.51.12,1,.19,1.51,0,.26.08.53.11.79.1.61.21,1.22.33,1.82q0,.3.12.6c.13.65.28,1.29.44,1.92l.24.9c.11.42.23.82.35,1.23s.2.67.31,1,.24.73.37,1.09.24.69.37,1,.26.68.41,1c.27.67.54,1.33.84,2l.36.81c.19.39.38.77.58,1.16l.38.74c.2.39.42.77.63,1.16l.39.67c.23.4.46.79.7,1.18.1.16.21.31.3.46a49.62,49.62,0,1,0,56.18-74.12Z"/><polygon class="cls-2" points="474.26 124.96 437.1 145.05 434.96 83.75 432.4 157.2 387.34 122.21 432.18 163.62 430.3 217.7 439.63 217.7 437.3 150.84 474.26 124.96"/><ellipse class="cls-1" cx="584.77" cy="357.52" rx="72.76" ry="126.02" transform="translate(224.08 940.34) rotate(-89.69)"/><ellipse class="cls-3" cx="673.88" cy="375.09" rx="41.53" ry="71.94" transform="translate(295.14 1046.93) rotate(-89.69)"/><path class="cls-1" d="M733.53,329.42c-1.25,2-2.51,4.08-3.85,6.05-.36.53-.93,1-.89,1.52.05.73,1.2,1.77,1.65,2.35.57.75,1.58,2.5,2.41,3-1.05-.57-3.24-2.1-4.71-2.06a24.05,24.05,0,0,0,1.05,2.94,6.42,6.42,0,0,0-2.75-1.34c.18.94-.37,2.14-.57,3.06-1,4.63-1.64,10.19.45,14.61,2.25,4.79,8.64,4.05,12.95,3a18.59,18.59,0,0,0,6.19-2.7c.66-.46,2.87-2.82,3.84-2.1a21,21,0,0,1-.75-2.76c.62.44,1.53.3,2,.87,1-.77,1.66-2.05,2.85-2.64-.94-1-1.21-2.7-2.07-3.79a13,13,0,0,1,3.59.94,9.93,9.93,0,0,1,1.36-2.1,60.8,60.8,0,0,0,5.4-9.09,57.74,57.74,0,0,1,3.24-5.49,29,29,0,0,1-2.54-2.94c-1.09-1.16-2.23-2.3-3.3-3.45a5.19,5.19,0,0,1,1.78.48c2,.57,4.09,1.09,6.09,1.51.09-.78,3.88-7.94,3.5-8.16a27.9,27.9,0,0,1-3.8-2.41,18.34,18.34,0,0,0,4,0c-.64-1.41-3.41-2.74-4.5-3.89,1-.29,2.09.21,3.09.29.71.06,1.45-.14,2,.25a51,51,0,0,0,.39-6.42c.05-1.39.54-3.78,0-5.05-.38-.88-1.86-1.39-2.22-2.2a3.43,3.43,0,0,1,1.82-.14c0-.51-.39-7.55-.84-7.49-4.3.61-8.32,1.35-12.14,3.5-.71.41-1.57.67-1.77,1.38-.42,1.44.68,3.51.8,4.92-1.21-1.33-3-2.27-4.44-3.43a23.89,23.89,0,0,0-4.21,4.42c-1.06,1.52-2.33,3-3.24,4.58a10.69,10.69,0,0,0-1.3,2.2c-.33,1.62,2.95,5.09,4.06,6.34-1.74-.14-3.45-1.78-5.32-2s-2,1.81-3.16,2.51c.76.09,1.68,1.4,2.12,2-.87-.06-1.76-.66-2.59-.36a20.51,20.51,0,0,0,2.73,4.62c-1.09,0-2.13-.82-3.22-1.06-.53-.12-1.09-.11-1.58-.26a42.25,42.25,0,0,1-3.4,5.72C733.66,329.21,733.59,329.31,733.53,329.42Z"/><path class="cls-1" d="M767.29,299.22c-2.42,2.26-3.72,6.4-5.08,9.35-1.47,3.22-2.87,6.47-4.35,9.69a115.78,115.78,0,0,1-9.47,17.27c-7.62,11.06-14.61,23-23.9,32.78-.64.67-1.86-.31-1.27-1.05,8.66-10.77,17.06-21.61,24.92-33,4-5.82,7.06-12.2,10-18.59,2.67-5.7,5.16-11.74,8.51-17.06.31-.5,1.09.13.6.6Z"/><path class="cls-3" d="M534.44,448.84c-28,16.17-73.56,16.08-101.73-.18s-28.32-42.57-.32-58.74,73.55-16.09,101.73.18S562.44,432.67,534.44,448.84Z"/><path class="cls-1" d="M681,439.31c-6.19,3.57-16.25,3.56-22.47,0s-6.25-9.39-.07-13,16.25-3.56,22.47,0S687.2,435.74,681,439.31Z"/><path class="cls-1" d="M342.7,338.15c-4.35,2.51-11.43,2.5-15.81,0s-4.41-6.62-.06-9.14,11.44-2.5,15.82,0S347.06,335.63,342.7,338.15Z"/><path class="cls-1" d="M742.1,307.43a10.94,10.94,0,0,1-9.86,0c-2.73-1.58-2.74-4.12,0-5.69a10.94,10.94,0,0,1,9.86,0C744.8,303.32,744.81,305.86,742.1,307.43Z"/><path class="cls-4" d="M384.38,302.61s10,11.7,12.69,12.49.27,3.54-1.79,3.75-8.57-.07-10.47-1.94-7.27-3.87-7.27-3.87a30.26,30.26,0,0,1,1.45-9.87Z"/><path class="cls-4" d="M387.89,219.94s1.3,25.9.83,34.39S386.18,305,386.18,305a18.29,18.29,0,0,1-9,0c-1.8-32.33-1.75-41.63-2.27-46.45s-1.16-18.76-1.16-18.76c-3.86-8,.18-18.41,2.08-20.91S387.89,219.94,387.89,219.94Z"/><path class="cls-4" d="M368,313.72c.34,4.74,2,10.31,2.48,13.15a6.73,6.73,0,0,1-1.24,5.36c-.65.91-8.66-1.74-9.75-4.82s1.15-5.78,1.32-11.57C363.4,311.22,368,313.72,368,313.72Z"/><path class="cls-5" d="M379.57,222s-1.37,23.58-3.55,31.43-4.12,30.87-5,34.89-2.05,28.83-2.05,28.83a17.81,17.81,0,0,1-8.89,0c.1-23.24-.46-42.12,0-48.49s-.19-25.26-.19-25.26c-2.06-8.79-2.18-9.92,0-15.75S371.41,217.13,379.57,222Z"/><path class="cls-6" d="M384.11,166c8.14,2.29,12.5,22.73,14.79,27.32s21.27,5.74,21.27,5.74c1.15,4-2.09,8.16-2.09,8.16-18.29-.76-24.74-2.28-28.13-9.49S374.64,168.46,384.11,166Z"/><path class="cls-7" d="M384.11,166c-7.22-.33-24,3.43-29.49,10.47s2.49,19.47,4.41,27-.88,26.3-.88,28.1c8.57,5.68,29.19,6.4,31.5-2.07,1-9.22-1.16-20.15-1.27-25.55C388.65,192.36,393.67,169.43,384.11,166Z"/><path class="cls-8" d="M377.9,167.55c4.66,16.33,5.75,34.66,5.29,41.59s-.63,29.35-.63,29.35c5.41-2.85,7.78-8.07,7.78-10.45s-2-22.66-2-24.29,2.73-20.25,2-28.61-6.24-9.31-6.24-9.31h-7Z"/><path class="cls-9" d="M382.38,148c3.18,1,0,8.24,0,8.24Z"/><path class="cls-10" d="M382.56,149a22.24,22.24,0,0,1,.75,7.52c-.45,3.29-.75,9.85-3.67,12s-7.1-.34-9.87-2.69A16.51,16.51,0,0,1,364,153.8c-.06-5.25,2-11.68,9.55-11.35S382.56,149,382.56,149Z"/><path class="cls-10" d="M367.87,161.09s.59,6.75-1.18,9.25c-.13,1.66,4.63,8.7,9.37,7.47,2.76-.72,2.43-3.93,2.43-3.93a77.25,77.25,0,0,1,0-8.4Z"/><path class="cls-4" d="M384.41,143.3c1.08,3.89-.15,5.29-3.43,6.41s-12-1.42-12-1.42c.58,4.17-.73,6.33-.73,6.33-1.44-4.09-2.75-2-2.88,1.26s1.7,3.2,1.7,3.2c-.12,2.75-1,3.69-1,3.69-3.51-2.43-8.29-18.63-2-19C364.2,138.1,382.1,135,384.41,143.3Z"/><path class="cls-8" d="M366.39,169.26C372,181.12,375,192,374.77,201.73S372.56,240,372.56,240c-9.76-2.37-16.41-5.12-18.31-8.45,4.18-11,5.7-18.42,4.84-21.56s-8.22-27-4.39-34.12C358.34,171.91,366.39,169.26,366.39,169.26Z"/><path class="cls-11" d="M357.88,175.67c6.72,3.34,12.06,21.89,17.19,26.86,2.91,2.82,17.26,6.49,21.25,6.6,1.54,3.52-1.23,7.43-1.23,7.43-24.5-2.3-25.59-3.64-33.13-13.26C352.61,191.36,348.88,173.37,357.88,175.67Z"/><path class="cls-12" d="M378.62,169.05c-2,.78-5-.44-8.91-3.56,0,0,1.15,4.55,8.91,6.21Z"/><path class="cls-7" d="M367.65,167.67a13.61,13.61,0,0,1-1.26,1.58s2.44,5.33,3.32,7.69a12.46,12.46,0,0,0,3.19,4.31l3.17-3.45C371.71,175.51,367.65,167.67,367.65,167.67Z"/><path class="cls-7" d="M378.1,169.38c-.29-.36-1,6.65-2,8.44a13,13,0,0,0,3.23,2.42S380.5,172.38,378.1,169.38Z"/><path class="cls-4" d="M593.16,242.27c-.24,3.5-.57,7-.57,7h-.78s0-5.3-.83-4.18C591.1,242.21,593.16,242.27,593.16,242.27Z"/><path class="cls-10" d="M582.34,248.15c-.38,0-.88-.4-1.33-1,.79-.95,1.58-1.88,2.11-2.61,1.68-2.34,4.41-7.53,4.54-9.87s-1.3-26.73-1.68-29.72-1.51-14.27-1.41-14.92,10.49,4,10.49,4c-.13.92-1.54,6.76-1,10.52s1.48,6.25,1,12.41-3.51,16-2.47,20.68c0,.09,0,.16,0,.24C589.59,242.06,588.52,250.2,582.34,248.15Z"/><path class="cls-4" d="M581,247.13c.45.62,1,1,1.33,1,6.18,2.06,7.25-6.08,10.3-10.27,1,4.45.54,5-.27,5.6s-3.67,4.15-4.19,6.62-8.31,2.2-9.74,1.68C577.47,251.42,579.25,249.23,581,247.13Z"/><path class="cls-10" d="M603.8,215.05c.3,2.73,1.9,23.76,1.64,27.26a69.13,69.13,0,0,1-1.8,8.2,9.07,9.07,0,0,0-.41,3.87c.62,1.79.65,7.14,3.55,5.94s4.82-4.94,4.23-9.06.11-6.1,0-8.56,1.48-17.79,1.74-23.22-1.55-8.06-1.69-11.69a90.6,90.6,0,0,1,1-11.21s-12.51-6.56-11.48,1.35S603.5,212.33,603.8,215.05Z"/><path class="cls-4" d="M602.71,254.57c.2,3.66,1.17,6.95,4.07,5.75s4.82-4.94,4.23-9.06c-1.56,4.55-7.5,4.36-7.38-.74A25.93,25.93,0,0,0,602.71,254.57Z"/><path class="cls-13" d="M583.72,163.94s0,25.35,0,33.66S585.88,234,585.88,234a11.54,11.54,0,0,0,8.36-.39c.61-7.24,2.73-19.16,3.1-25.42s-2.49-7.31-1.3-11.89,4.39-29.06,4.39-29.06Z"/><path class="cls-13" d="M597.34,169.28s2.16,27.21,3.09,30.67,1.6,16.75,2.28,21.33.75,17.76.75,17.76c1.65,5.39,8.48.83,8.48.83,2.84-16.86.87-25.25.78-30.19s2.33-17.87,1.85-23.25-1.07-16.55,0-18.62,2.22-5.52,2.61-11.73c-8-3.06-20.69.38-20.69.38Z"/><path class="cls-7" d="M584.94,110c7.13-.35,19.24,8.08,24.72,15s2.09,14.41.24,21.81,1,26,1,27.74c-8.42,5.64-24.15,6.36-26.48-2-1-9.09,1-18.56,1.12-23.88C585.22,137.28,575.52,113.46,584.94,110Z"/><path class="cls-14" d="M591.16,111.69c-3.7,16.13-2.54,33.54-1.72,40.37s1,29.57,1,29.57c-5.5-2.78-8.13-7.92-8.25-10.26s2-22.05,1.84-23.65-2.94-16.84-2.65-25.08,3.4-9.49,3.4-9.49l7.06-3.16Z"/><path class="cls-14" d="M601.49,113.38c-5.48,11.74-2.84,22.49-2.6,32.15s5.25,36.76,5.25,36.76c9.61-2.4,10.76-8.84,12.62-12.13,4.44-22.57-1.16-40.92-5.34-47.69C608.15,117.16,601.49,113.38,601.49,113.38Z"/><path class="cls-15" d="M562.81,149.89a5.41,5.41,0,0,0,4.85,0c1.33-.77,1.34-2,0-2.8a5.39,5.39,0,0,0-4.84,0C561.48,147.87,561.48,149.12,562.81,149.89Z"/><path class="cls-14" d="M607.56,122.64c-6.65,3.27-7.28,22.83-12.37,27.72-2.88,2.77-14.42.56-18.36.64-1.54,3.47.55,7.66.55,7.66,22,1.08,24.63,1.75,30.22-8.93C612,141.38,616.46,120.41,607.56,122.64Z"/><path class="cls-14" d="M584.76,113.15c-4.26,2.22-6.28,20-11.37,24.51-2.88,2.52-4.16,4.84-10,7.76-1.54,3.17,2.65,5.15,2.65,5.15,11.72-4.43,14.4-8.25,18.31-14.17C589.17,129.07,593.66,111.12,584.76,113.15Z"/><path class="cls-10" d="M565.77,149.93a22.44,22.44,0,0,1-2.3,2.78c-1,1.16-2.63,3.15-3.14,2.65s.47-2.46.47-2.46a34.08,34.08,0,0,0-3.55,3.81c-.54,1-.23-1.81.54-3.08-1.92,2.93-2.38,3.59-2.54,2.85s1.45-4.7,1.22-4.31c-2.23,3.35-3.08,3.81-2.84,2.27s2.39-4.17,3.7-4.9c-3.86,2.51-4.12,2.23-3.16,1.12a16.64,16.64,0,0,1,9.3-4.51C566.5,149,565.77,149.93,565.77,149.93Z"/><path class="cls-10" d="M563.21,156.07c1.24-1.93,3-4.14,5.36-4.78a8.68,8.68,0,0,1,4.9.42,38.36,38.36,0,0,1,4.33,1.15,10.79,10.79,0,0,1,.88,4.1,3.82,3.82,0,0,1-.85.19,29.14,29.14,0,0,1-4,.59,16.61,16.61,0,0,1-3.15,0c.34.1.73.26.78.61a.63.63,0,0,1-.49.63c-2,.51-3.7-1.88-4.91-3C566.14,156.11,561.59,158.59,563.21,156.07Z"/><path class="cls-16" d="M583.86,93.6a5.68,5.68,0,0,0-.26.6c-.36,1.06-.11,2.33-.37,3.42-.4,1.76-1.65,3.14-2.24,4.85-2.16,6.23,4,9.72,9.41,9.27a5.3,5.3,0,0,0,2.73-.88c2.6-2-.34-5.18-1.58-7-.85-1.29-2.06-3-2.15-4.62s.7-2.79.4-4.39A3.21,3.21,0,0,0,583.86,93.6Z"/><path class="cls-10" d="M599.88,106.2s-1.76,6.13,2.28,8.7c.12,1.49-4.11,7.83-8.37,6.75-2.48-.63-3.75-4.17-3.75-4.17a68.36,68.36,0,0,1,1.51-6.87Z"/><path class="cls-10" d="M585.54,93.75a20.3,20.3,0,0,0-.68,6.9c.41,3,.68,9,3.36,10.95s6.5-.31,9-2.47a15,15,0,0,0,5.29-10.93c.06-4.81-1.82-10.7-8.76-10.4S585.54,93.75,585.54,93.75Z"/><path class="cls-16" d="M590.39,90.82c-1.8,2.2-.95,4.89,1.27,6.5,1.53,1.12,2.88,1.83,3.89,3.55a11.78,11.78,0,0,1,1.57,5.29c.07,1.53.09,3,.16,4.57,0,.7.08,1.67.84,1.87a6.33,6.33,0,0,0,3.45-.88,12.62,12.62,0,0,0,3.32-2.86A13.2,13.2,0,0,0,608,101c.19-5.37-2.87-8.84-6.76-12S593.58,86.92,590.39,90.82Z"/><path class="cls-16" d="M588,88.13l0,0c1.36-.91,6.85-2.62,6.88.19s-4.09,5.61-6.27,6.85a24.81,24.81,0,0,0-2.82,1.66c-1.13.88-1.22,2.56-2.22,3.32-1.53-1.47-1.14-5.07-.53-6.88C583.92,90.86,586,89.5,588,88.13Z"/><path class="cls-12" d="M591.12,112.3c2.83-.24,5.93-3,5.93-3s-.65,3.31-6.29,4.49Z"/><path class="cls-17" d="M671.75,277.76c-2.74,4.27-2.1,7.29-1.33,7.63,16.24,7.23,26.34,5,28.82,4.19-2.69-3.74-5.23-7.35-8.26-11.44C683,279.6,671.75,277.76,671.75,277.76Z"/><g class="cls-18"><polygon class="cls-19" points="624.45 162.34 624.41 180.12 592.12 198.88 592.18 181.1 624.45 162.34"/><polygon class="cls-20" points="478.61 181.11 478.55 199.18 445.53 180.11 445.57 162.04 478.61 181.11"/><path class="cls-21" d="M562.81,206l.05-17.93c0-2.52,1.67-5,5-7,6.67-3.88,17.55-3.88,24.27,0l0,17.93c-6.72-3.88-17.6-3.88-24.28,0C564.48,200.94,562.81,203.47,562.81,206Z"/><path class="cls-19" d="M507.93,188.18l-.06,17.87c0-2.56-1.68-5.11-5.05-7.06-6.71-3.88-17.55-3.88-24.21,0l.05-17.87c6.67-3.87,17.5-3.88,24.21,0C506.25,183.07,507.93,185.63,507.93,188.18Z"/><polygon class="cls-20" points="535.74 214.05 535.69 232.12 502.66 213.06 502.72 194.99 535.74 214.05"/><polygon class="cls-19" points="568.07 195.28 568.01 213.06 535.74 231.82 535.79 214.04 568.07 195.28"/><path class="cls-22" d="M624.62,162.21l-32.5,18.89c-6.71-3.88-17.59-3.88-24.25,0s-6.65,10.18.06,14.05L535.43,214l-32.72-18.88c6.68-3.88,6.65-10.18-.08-14.06s-17.59-3.88-24.26,0l-32.73-18.89,89.21-51.85Z"/></g><g class="cls-18"><path class="cls-23" d="M480.86,203.35l-.05,18.7c0,2.64-1.75,5.28-5.21,7.3l.06-18.71C479.12,208.62,480.85,206,480.86,203.35Z"/><polygon class="cls-23" points="507.93 229.9 507.88 247.68 475.6 266.44 475.65 248.65 507.93 229.9"/><path class="cls-24" d="M446.28,273.56l.05-17.92c0-2.53,1.67-5,5-7,6.68-3.88,17.56-3.88,24.28,0l-.05,17.92c-6.72-3.88-17.6-3.88-24.28,0C448,268.5,446.29,271,446.28,273.56Z"/><polygon class="cls-23" points="451.54 262.85 451.49 280.62 419.22 299.38 419.27 281.6 451.54 262.85"/><polygon class="cls-25" points="419.22 281.54 419.17 299.37 329.76 247.75 329.8 229.91 419.22 281.54"/><path class="cls-26" d="M475.57,196.82c6.72,3.88,6.76,10.18.08,14.06l32.72,18.88-32.5,18.9c-6.72-3.88-17.59-3.88-24.26,0s-6.64,10.17.08,14l-32.51,18.9-89.77-51.84,89.19-51.83,32.73,18.89C458,193,468.85,192.94,475.57,196.82Z"/></g><g class="cls-18"><path class="cls-27" d="M589.87,221.87l0-18.43c0,2.63,1.74,5.27,5.21,7.28l0,18.43C591.59,227.14,589.86,224.5,589.87,221.87Z"/><polygon class="cls-27" points="595.88 248.67 595.83 266.74 562.8 247.67 562.85 229.6 595.88 248.67"/><path class="cls-28" d="M624.45,255.74l-.05,17.87c0-2.55-1.68-5.11-5-7.06-6.71-3.87-17.55-3.87-24.22,0l0-17.86c6.67-3.87,17.51-3.87,24.22,0C622.77,250.63,624.46,253.19,624.45,255.74Z"/><polygon class="cls-27" points="652.27 281.61 652.21 299.68 619.19 280.62 619.24 262.54 652.27 281.61"/><polygon class="cls-28" points="741.73 229.69 741.67 247.64 652.27 299.59 652.32 281.64 741.73 229.69"/><path class="cls-29" d="M741.65,229.77l-89.2,51.84-32.73-18.89c6.68-3.88,6.65-10.18-.06-14.05s-17.6-3.88-24.28,0l-32.72-18.89,32.5-18.89c-6.72-3.88-6.75-10.18-.06-14s17.53-3.88,24.25,0l32.5-18.9Z"/></g><g class="cls-18"><path class="cls-30" d="M598.14,270.9l-.06,18.71c0,2.64-1.74,5.28-5.2,7.29l0-18.7C596.39,276.18,598.13,273.55,598.14,270.9Z"/><path class="cls-31" d="M474.1,289.42l0-18.41c0,2.63,1.73,5.26,5.21,7.27l-.06,18.41C475.83,294.69,474.09,292.05,474.1,289.42Z"/><path class="cls-32" d="M504.18,355.44s.88.3,2.94,1.16,6.51,1.16,9.28.72,6.59-1.06,5.86-2.08S507.55,350.73,507,351,504.18,355.44,504.18,355.44Z"/><polygon class="cls-31" points="536.49 349.24 536.44 367.22 446.28 315.16 446.33 297.19 536.49 349.24"/><polygon class="cls-30" points="625.2 297.25 625.15 315.2 535.74 367.16 535.79 349.21 625.2 297.25"/><path class="cls-33" d="M592.59,264.39c6.72,3.88,6.75,10.17.07,14.05l32.72,18.89-89.19,51.84-89.78-51.85,32.51-18.89c-6.72-3.88-6.76-10.16-.09-14.05s17.54-3.88,24.26,0l32.5-18.88,32.73,18.89C575,260.5,585.87,260.5,592.59,264.39Z"/></g><g class="cls-18"><path class="cls-34" d="M536.49,293.46v1.89c0,1.5-1,3-3,4.12a15.78,15.78,0,0,1-14.35,0c-2-1.16-3-2.68-3-4.19v-1.89c0,1.51,1,3,3,4.18a15.82,15.82,0,0,0,14.35,0C535.51,296.44,536.49,295,536.49,293.46Z"/><path class="cls-35" d="M533.44,289.39c3.91,2.27,3.93,5.93,0,8.19a15.54,15.54,0,0,1-14.13,0c-3.91-2.25-3.93-5.92,0-8.18A15.61,15.61,0,0,1,533.44,289.39Z"/></g><path class="cls-35" d="M550,233a2.26,2.26,0,0,0-2.3.23l-49.82,28.76a8,8,0,0,0-3.44,5.61v37.24a3.23,3.23,0,0,0,1.23,2.07l3.22,1.88a4.69,4.69,0,0,1-1.44-2.08V269.42a9,9,0,0,1,3.65-5.61l49.82-28.76a2.28,2.28,0,0,1,2.3-.23Z"/><path class="cls-34" d="M551.28,235c1.79-1,3.25-.21,3.26,1.86l.07,37.34a7.15,7.15,0,0,1-3.23,5.61l-50,28.85c-1.8,1-3.26.2-3.27-1.86l-.07-37.35a7.17,7.17,0,0,1,3.24-5.62Z"/><polygon class="cls-36" points="552.28 244.29 552.27 237.09 550.88 237.89 547.86 239.63 507.66 262.85 500.41 267.04 500.41 269.4 500.41 269.4 500.41 287.09 500.44 301.88 532.25 283.51 537.2 280.65 552.28 271.95 552.28 244.29"/><polygon class="cls-29" points="507.61 262.86 500.41 267.01 500.42 269.28 552.28 239.34 552.27 237.07 507.61 262.86"/><path class="cls-29" d="M506.19,272.07a3.62,3.62,0,0,1-1.63,2.83c-.9.52-1.63.1-1.63-.94a3.62,3.62,0,0,1,1.63-2.83C505.46,270.61,506.19,271,506.19,272.07Z"/><path class="cls-26" d="M506.19,277.82a3.61,3.61,0,0,1-1.63,2.82c-.9.52-1.63.1-1.63-.94a3.61,3.61,0,0,1,1.63-2.82C505.46,276.36,506.19,276.78,506.19,277.82Z"/><path class="cls-33" d="M506.19,283.5a3.62,3.62,0,0,1-1.63,2.83c-.9.52-1.63.09-1.63-.94a3.62,3.62,0,0,1,1.63-2.83C505.46,282,506.19,282.45,506.19,283.5Z"/><path class="cls-26" d="M506,302.43a2.6,2.6,0,0,1-1.17,2c-.65.37-1.17.07-1.17-.68a2.6,2.6,0,0,1,1.17-2C505.45,301.38,506,301.68,506,302.43Z"/><polygon class="cls-17" points="572.2 303.87 556.25 294.66 577.48 282.4 593.43 291.61 572.2 303.87"/><polygon class="cls-37" points="572.58 304.51 572.58 303.82 593.63 291.67 593.63 292.36 572.58 304.51"/><polygon class="cls-37" points="571.83 303.83 571.83 304.52 556.04 295.41 556.04 294.71 571.83 303.83"/><polygon class="cls-38" points="515.44 314.97 515.44 316.36 531.23 325.53 531.22 324.15 515.44 314.97"/><polygon class="cls-34" points="530.48 324.12 530.49 325.49 565.06 305.54 565.05 304.16 530.48 324.12"/><polygon class="cls-35" points="515.3 315.04 530.87 324.1 565.35 304.19 549.77 295.14 515.3 315.04"/><g class="cls-18"><polygon class="cls-38" points="547.77 297.37 547.78 298.09 550.02 299.4 550.02 298.68 547.77 297.37"/><polygon class="cls-34" points="550.02 298.69 550.02 299.41 552.28 298.11 552.28 297.38 550.02 298.69"/><polygon class="cls-35" points="547.67 297.42 549.82 298.67 551.95 297.44 549.79 296.19 547.67 297.42"/></g><g class="cls-18"><polygon class="cls-38" points="544.76 298.95 544.76 299.66 547.02 300.97 547.02 300.25 544.76 298.95"/><polygon class="cls-34" points="547.02 300.26 547.02 300.98 549.27 299.68 549.27 298.96 547.02 300.26"/><polygon class="cls-35" points="544.95 298.99 547.1 300.24 549.22 299.02 547.07 297.76 544.95 298.99"/></g><g class="cls-18"><polygon class="cls-38" points="542.51 300.52 542.51 301.24 544.76 302.54 544.76 301.82 542.51 300.52"/><polygon class="cls-34" points="544.01 301.83 544.01 302.55 546.27 301.25 546.27 300.53 544.01 301.83"/><polygon class="cls-35" points="542.22 300.56 544.37 301.81 546.5 300.59 544.34 299.33 542.22 300.56"/></g><g class="cls-18"><polygon class="cls-38" points="539.5 302.09 539.51 302.81 541.76 304.12 541.76 303.4 539.5 302.09"/><polygon class="cls-34" points="541.76 303.4 541.76 304.13 544.01 302.83 544.01 302.1 541.76 303.4"/><polygon class="cls-35" points="539.5 302.14 541.65 303.38 543.78 302.16 541.62 300.9 539.5 302.14"/></g><g class="cls-18"><polygon class="cls-38" points="536.49 303.66 536.49 304.38 538.75 305.69 538.75 304.98 536.49 303.66"/><polygon class="cls-34" points="538.75 304.98 538.75 305.7 541 304.4 541 303.68 538.75 304.98"/><polygon class="cls-35" points="536.77 303.71 538.92 304.96 541.05 303.74 538.89 302.48 536.77 303.71"/></g><g class="cls-18"><polygon class="cls-38" points="534.24 305.23 534.25 305.95 536.49 307.26 536.49 306.55 534.24 305.23"/><polygon class="cls-34" points="536.49 306.55 536.49 307.27 538.75 305.98 538.75 305.25 536.49 306.55"/><polygon class="cls-35" points="534.04 305.28 536.2 306.53 538.33 305.31 536.17 304.05 534.04 305.28"/></g><g class="cls-18"><polygon class="cls-38" points="531.23 306.81 531.24 307.53 533.49 308.83 533.49 308.12 531.23 306.81"/><polygon class="cls-34" points="533.49 308.12 533.49 308.85 535.74 307.55 535.74 306.82 533.49 308.12"/><polygon class="cls-35" points="531.32 306.85 533.48 308.11 535.61 306.88 533.45 305.62 531.32 306.85"/></g><g class="cls-18"><polygon class="cls-38" points="528.22 308.38 528.22 309.1 530.48 310.42 530.48 309.69 528.22 308.38"/><polygon class="cls-34" points="530.48 309.69 530.48 310.42 532.74 309.12 532.74 308.4 530.48 309.69"/><polygon class="cls-35" points="528.6 308.43 530.75 309.68 532.89 308.45 530.73 307.19 528.6 308.43"/></g><g class="cls-18"><polygon class="cls-38" points="525.97 309.96 525.98 310.67 528.22 311.98 528.22 311.26 525.97 309.96"/><polygon class="cls-34" points="528.22 311.26 528.22 312 530.48 310.69 530.48 309.96 528.22 311.26"/><polygon class="cls-35" points="525.87 310 528.03 311.25 530.16 310.02 528 308.77 525.87 310"/></g><g class="cls-18"><polygon class="cls-38" points="522.96 311.53 522.97 312.24 525.22 313.55 525.22 312.84 522.96 311.53"/><polygon class="cls-34" points="525.22 312.84 525.22 313.57 527.47 312.26 527.47 311.54 525.22 312.84"/><polygon class="cls-35" points="523.15 311.57 525.31 312.83 527.44 311.59 525.28 310.35 523.15 311.57"/></g><g class="cls-18"><polygon class="cls-38" points="517.7 314.67 517.71 315.39 519.96 316.7 519.96 315.98 517.7 314.67"/><polygon class="cls-34" points="519.96 315.89 519.96 316.53 524.47 313.92 524.47 313.29 519.96 315.89"/><polygon class="cls-35" points="517.7 314.71 519.86 315.97 524.72 313.16 522.56 311.92 517.7 314.71"/></g><g class="cls-18"><polygon class="cls-38" points="547.77 300.54 547.77 301.26 550.02 302.57 550.02 301.86 547.77 300.54"/><polygon class="cls-34" points="550.02 301.77 550.02 302.4 554.54 299.8 554.53 299.16 550.02 301.77"/><polygon class="cls-35" points="547.69 300.59 549.85 301.84 554.7 299.04 552.54 297.78 547.69 300.59"/></g><g class="cls-18"><polygon class="cls-38" points="544.76 302.12 544.76 302.83 547.02 304.14 547.02 303.43 544.76 302.12"/><polygon class="cls-34" points="547.02 303.43 547.02 304.16 549.27 302.86 549.27 302.12 547.02 303.43"/><polygon class="cls-35" points="544.97 302.16 547.13 303.41 549.25 302.18 547.1 300.93 544.97 302.16"/></g><g class="cls-18"><polygon class="cls-38" points="542.51 303.69 542.51 304.4 544.76 305.71 544.75 305 542.51 303.69"/><polygon class="cls-34" points="544.01 305 544.02 305.72 546.27 304.43 546.26 303.7 544.01 305"/><polygon class="cls-35" points="542.25 303.73 544.4 304.99 546.52 303.75 544.37 302.5 542.25 303.73"/></g><g class="cls-18"><polygon class="cls-38" points="539.5 305.26 539.5 305.98 541.76 307.28 541.76 306.57 539.5 305.26"/><polygon class="cls-34" points="541.76 306.57 541.76 307.3 544.01 306 544 305.27 541.76 306.57"/><polygon class="cls-35" points="539.52 305.31 541.67 306.56 543.79 305.33 541.64 304.08 539.52 305.31"/></g><g class="cls-18"><polygon class="cls-38" points="536.49 306.84 536.49 307.55 538.75 308.86 538.75 308.14 536.49 306.84"/><polygon class="cls-34" points="538.75 308.14 538.75 308.87 541 307.57 541 306.85 538.75 308.14"/><polygon class="cls-35" points="536.8 306.88 538.95 308.13 541.07 306.9 538.92 305.65 536.8 306.88"/></g><g class="cls-18"><polygon class="cls-38" points="534.24 308.41 534.24 309.12 536.49 310.43 536.49 309.71 534.24 308.41"/><polygon class="cls-34" points="536.49 309.71 536.5 310.44 538.75 309.14 538.74 308.42 536.49 309.71"/><polygon class="cls-35" points="534.07 308.45 536.23 309.7 538.35 308.47 536.2 307.22 534.07 308.45"/></g><g class="cls-18"><polygon class="cls-38" points="531.23 309.98 531.23 310.69 533.49 312.01 533.49 311.29 531.23 309.98"/><polygon class="cls-34" points="533.49 311.29 533.49 312.02 535.74 310.71 535.74 309.99 533.49 311.29"/><polygon class="cls-35" points="531.35 310.02 533.5 311.28 535.63 310.05 533.48 308.79 531.35 310.02"/></g><g class="cls-18"><polygon class="cls-38" points="528.22 311.55 528.22 312.26 530.48 313.58 530.48 312.86 528.22 311.55"/><polygon class="cls-34" points="530.48 312.87 530.48 313.59 532.74 312.29 532.73 311.57 530.48 312.87"/><polygon class="cls-35" points="528.62 311.59 530.78 312.85 532.9 311.62 530.75 310.37 528.62 311.59"/></g><g class="cls-18"><polygon class="cls-38" points="525.97 313.12 525.97 313.84 528.22 315.15 528.22 314.43 525.97 313.12"/><polygon class="cls-34" points="528.22 314.44 528.23 315.16 530.48 313.86 530.47 313.14 528.22 314.44"/><polygon class="cls-35" points="525.9 313.16 528.05 314.42 530.18 313.19 528.03 311.94 525.9 313.16"/></g><g class="cls-18"><polygon class="cls-38" points="522.96 314.7 522.96 315.41 525.22 316.73 525.22 316 522.96 314.7"/><polygon class="cls-34" points="525.22 316.01 525.22 316.74 527.47 315.43 527.47 314.71 525.22 316.01"/><polygon class="cls-35" points="523.17 314.74 525.33 315.99 527.46 314.77 525.3 313.51 523.17 314.74"/></g><g class="cls-18"><polygon class="cls-38" points="520.71 316.27 520.71 316.99 522.96 318.3 522.96 317.57 520.71 316.27"/><polygon class="cls-34" points="522.21 317.58 522.21 318.31 524.47 317 524.46 316.28 522.21 317.58"/><polygon class="cls-35" points="520.45 316.31 522.61 317.56 524.73 316.34 522.58 315.09 520.45 316.31"/></g><g class="cls-18"><polygon class="cls-38" points="550.02 302.14 550.03 302.86 552.28 304.17 552.28 303.45 550.02 302.14"/><polygon class="cls-34" points="553.03 303.36 553.03 304 557.54 301.39 557.54 300.76 553.03 303.36"/><polygon class="cls-35" points="550.43 302.18 552.59 303.44 557.45 300.63 555.29 299.38 550.43 302.18"/></g><g class="cls-18"><polygon class="cls-38" points="547.77 303.71 547.78 304.43 550.02 305.74 550.02 305.02 547.77 303.71"/><polygon class="cls-34" points="550.02 305.02 550.02 305.75 552.28 304.45 552.28 303.73 550.02 305.02"/><polygon class="cls-35" points="547.71 303.75 549.87 305.01 552 303.78 549.84 302.53 547.71 303.75"/></g><g class="cls-18"><polygon class="cls-38" points="544.76 305.28 544.76 306 547.02 307.31 547.02 306.59 544.76 305.28"/><polygon class="cls-34" points="547.02 306.6 547.02 307.32 549.27 306.02 549.27 305.3 547.02 306.6"/><polygon class="cls-35" points="544.99 305.32 547.15 306.58 549.27 305.35 547.12 304.1 544.99 305.32"/></g><g class="cls-18"><polygon class="cls-38" points="542.51 306.86 542.51 307.57 544.76 308.89 544.76 308.17 542.51 306.86"/><polygon class="cls-34" points="544.01 308.17 544.01 308.9 546.27 307.59 546.27 306.87 544.01 308.17"/><polygon class="cls-35" points="542.26 306.9 544.42 308.16 546.55 306.93 544.39 305.68 542.26 306.9"/></g><g class="cls-18"><polygon class="cls-38" points="539.5 308.43 539.51 309.14 541.76 310.46 541.76 309.74 539.5 308.43"/><polygon class="cls-34" points="541.76 309.75 541.76 310.47 544.01 309.16 544.01 308.44 541.76 309.75"/><polygon class="cls-35" points="539.54 308.47 541.7 309.73 543.83 308.5 541.67 307.25 539.54 308.47"/></g><g class="cls-18"><polygon class="cls-38" points="536.49 310 536.49 310.72 538.75 312.03 538.75 311.31 536.49 310"/><polygon class="cls-34" points="538.75 311.32 538.75 312.04 541 310.74 541 310.01 538.75 311.32"/><polygon class="cls-35" points="536.82 310.05 538.98 311.3 541.1 310.07 538.95 308.82 536.82 310.05"/></g><g class="cls-18"><polygon class="cls-38" points="534.24 311.58 534.25 312.3 536.49 313.6 536.49 312.88 534.24 311.58"/><polygon class="cls-34" points="536.49 312.89 536.49 313.61 538.75 312.31 538.75 311.58 536.49 312.89"/><polygon class="cls-35" points="534.09 311.62 536.25 312.87 538.38 311.64 536.23 310.39 534.09 311.62"/></g><g class="cls-18"><polygon class="cls-38" points="531.23 313.15 531.24 313.87 533.49 315.17 533.49 314.45 531.23 313.15"/><polygon class="cls-34" points="533.49 314.46 533.49 315.18 535.74 313.88 535.74 313.16 533.49 314.46"/><polygon class="cls-35" points="531.37 313.19 533.53 314.44 535.65 313.22 533.5 311.96 531.37 313.19"/></g><g class="cls-18"><polygon class="cls-38" points="528.22 314.72 528.22 315.44 530.48 316.74 530.48 316.03 528.22 314.72"/><polygon class="cls-34" points="530.48 316.03 530.48 316.75 532.74 315.46 532.74 314.73 530.48 316.03"/><polygon class="cls-35" points="528.65 314.77 530.8 316.01 532.93 314.79 530.77 313.53 528.65 314.77"/></g><g class="cls-18"><polygon class="cls-38" points="522.96 317.86 522.97 318.58 525.22 319.89 525.22 319.18 522.96 317.86"/><polygon class="cls-34" points="525.22 319.09 525.22 319.72 529.73 317.12 529.73 316.48 525.22 319.09"/><polygon class="cls-35" points="523.2 317.91 525.35 319.16 530.21 316.36 528.05 315.1 523.2 317.91"/></g><g class="cls-18"><polygon class="cls-38" points="550.78 305.31 550.78 306.02 553.03 307.34 553.03 306.62 550.78 305.31"/><polygon class="cls-34" points="552.28 306.59 552.28 307.27 559.8 302.93 559.8 302.25 552.28 306.59"/><polygon class="cls-35" points="550.46 305.35 552.62 306.61 560.2 302.23 558.04 300.98 550.46 305.35"/></g><g class="cls-18"><polygon class="cls-38" points="547.77 306.88 547.78 307.6 550.02 308.91 550.02 308.19 547.77 306.88"/><polygon class="cls-34" points="550.02 308.2 550.02 308.92 552.28 307.62 552.28 306.9 550.02 308.2"/><polygon class="cls-35" points="547.74 306.93 549.9 308.18 552.03 306.95 549.87 305.7 547.74 306.93"/></g><g class="cls-18"><polygon class="cls-38" points="544.76 308.46 544.76 309.17 547.02 310.48 547.02 309.76 544.76 308.46"/><polygon class="cls-34" points="547.02 309.77 547.02 310.49 549.27 309.19 549.27 308.47 547.02 309.77"/><polygon class="cls-35" points="545.02 308.5 547.17 309.75 549.3 308.53 547.14 307.27 545.02 308.5"/></g><g class="cls-18"><polygon class="cls-38" points="542.51 310.03 542.51 310.75 544.76 312.06 544.76 311.33 542.51 310.03"/><polygon class="cls-34" points="544.01 311.34 544.01 312.07 546.27 310.76 546.27 310.04 544.01 311.34"/><polygon class="cls-35" points="542.29 310.07 544.45 311.32 546.58 310.1 544.42 308.84 542.29 310.07"/></g><g class="cls-18"><polygon class="cls-38" points="539.5 311.6 539.51 312.32 541.76 313.63 541.76 312.91 539.5 311.6"/><polygon class="cls-34" points="541.76 312.91 541.76 313.64 544.01 312.34 544.01 311.61 541.76 312.91"/><polygon class="cls-35" points="539.57 311.65 541.73 312.89 543.86 311.67 541.7 310.42 539.57 311.65"/></g><g class="cls-18"><polygon class="cls-38" points="536.49 313.17 536.49 313.89 538.75 315.2 538.75 314.49 536.49 313.17"/><polygon class="cls-34" points="538.75 314.49 538.75 315.21 541 313.91 541 313.19 538.75 314.49"/><polygon class="cls-35" points="536.85 313.22 539 314.47 541.13 313.24 538.98 311.99 536.85 313.22"/></g><g class="cls-18"><polygon class="cls-38" points="534.24 314.74 534.25 315.47 536.49 316.77 536.49 316.06 534.24 314.74"/><polygon class="cls-34" points="536.49 316.06 536.49 316.79 538.75 315.49 538.75 314.76 536.49 316.06"/><polygon class="cls-35" points="534.12 314.79 536.28 316.04 538.4 314.82 536.25 313.56 534.12 314.79"/></g><g class="cls-18"><polygon class="cls-38" points="531.23 316.31 531.24 317.04 533.49 318.34 533.49 317.63 531.23 316.31"/><polygon class="cls-34" points="533.49 317.63 533.49 318.36 535.74 317.06 535.74 316.33 533.49 317.63"/><polygon class="cls-35" points="531.4 316.36 533.56 317.62 535.68 316.39 533.53 315.13 531.4 316.36"/></g><g class="cls-18"><polygon class="cls-38" points="525.97 319.46 525.98 320.18 528.22 321.49 528.22 320.78 525.97 319.46"/><polygon class="cls-34" points="528.22 320.69 528.22 321.32 532.74 318.72 532.74 318.08 528.22 320.69"/><polygon class="cls-35" points="525.95 319.51 528.11 320.76 532.96 317.96 530.8 316.7 525.95 319.51"/></g><g class="cls-18"><polygon class="cls-38" points="558.29 303.76 558.29 304.48 560.55 305.79 560.54 305.07 558.29 303.76"/><polygon class="cls-34" points="560.55 305.08 560.56 305.8 562.8 304.5 562.8 303.77 560.55 305.08"/><polygon class="cls-35" points="558.66 303.81 560.82 305.06 562.94 303.83 560.79 302.58 558.66 303.81"/></g><g class="cls-18"><polygon class="cls-38" points="556.04 305.33 556.04 306.06 558.29 307.36 558.29 306.64 556.04 305.33"/><polygon class="cls-34" points="558.29 306.65 558.29 307.37 560.55 306.07 560.54 305.35 558.29 306.65"/><polygon class="cls-35" points="555.94 305.38 558.09 306.63 560.21 305.41 558.06 304.15 555.94 305.38"/></g><g class="cls-18"><polygon class="cls-38" points="553.03 306.91 553.03 307.63 555.29 308.93 555.29 308.22 553.03 306.91"/><polygon class="cls-34" points="555.29 308.22 555.29 308.94 557.54 307.64 557.53 306.92 555.29 308.22"/><polygon class="cls-35" points="553.22 306.95 555.37 308.2 557.49 306.98 555.34 305.72 553.22 306.95"/></g><g class="cls-18"><polygon class="cls-38" points="539.5 314.77 539.5 315.49 541.76 316.79 541.76 316.08 539.5 314.77"/><polygon class="cls-34" points="541.76 316 541.76 316.67 554.54 309.3 554.53 308.63 541.76 316"/><polygon class="cls-35" points="539.59 314.82 541.75 316.07 554.77 308.55 552.62 307.29 539.59 314.82"/></g><g class="cls-18"><polygon class="cls-38" points="536.49 316.35 536.49 317.06 538.75 318.37 538.74 317.65 536.49 316.35"/><polygon class="cls-34" points="538.75 317.65 538.76 318.38 541 317.08 541 316.36 538.75 317.65"/><polygon class="cls-35" points="536.87 316.39 539.02 317.64 541.15 316.41 539 315.16 536.87 316.39"/></g><g class="cls-18"><polygon class="cls-38" points="534.24 317.92 534.24 318.63 536.49 319.94 536.49 319.22 534.24 317.92"/><polygon class="cls-34" points="536.49 319.22 536.5 319.95 538.75 318.65 538.74 317.93 536.49 319.22"/><polygon class="cls-35" points="534.15 317.96 536.3 319.21 538.43 317.98 536.28 316.73 534.15 317.96"/></g><g class="cls-18"><polygon class="cls-38" points="528.98 321.06 528.98 321.77 531.23 323.09 531.22 322.37 528.98 321.06"/><polygon class="cls-34" points="531.23 322.28 531.24 322.92 535.74 320.31 535.74 319.68 531.23 322.28"/><polygon class="cls-35" points="528.7 321.1 530.85 322.36 535.71 319.55 533.55 318.31 528.7 321.1"/></g><polygon class="cls-29" points="536.49 259.53 536.52 270.73 546.27 265.1 546.24 253.9 536.49 259.53"/><g class="cls-18"><polygon class="cls-35" points="528.22 268.87 528.22 269.29 534.99 265.38 534.99 264.96 528.22 268.87"/><polygon class="cls-35" points="528.22 267.53 528.22 267.96 535.06 264.01 535.05 263.58 528.22 267.53"/><polygon class="cls-35" points="528.22 266.16 528.22 266.59 534.99 262.68 534.99 262.25 528.22 266.16"/><polygon class="cls-35" points="528.22 264.8 528.22 265.23 534.99 261.32 534.99 260.9 528.22 264.8"/></g><polygon class="cls-35" points="528.22 271.58 528.22 272 534.99 268.1 534.99 267.67 528.22 271.58"/><polygon class="cls-35" points="528.22 270.22 528.22 270.64 534.99 266.75 534.98 266.31 528.22 270.22"/><polygon class="cls-35" points="529.73 271.94 529.73 272.37 534.83 269.43 534.83 269.01 529.73 271.94"/><g class="cls-18"><path class="cls-33" d="M545.1,250.56a.73.73,0,0,0-.32.57.2.2,0,0,0,.32.19.74.74,0,0,0,.33-.57C545.43,250.54,545.29,250.46,545.1,250.56Z"/><path class="cls-35" d="M547.9,248.35c.35-.2.62,0,.62.36v2.91c0-.36-.25-.51-.57-.33l-21.43,12.38a1.22,1.22,0,0,0-.56,1v-2.91a1.37,1.37,0,0,1,.62-1.07Zm-1.47,2.21a.7.7,0,0,0,.32-.57c0-.21-.15-.29-.33-.18a.7.7,0,0,0-.32.56c0,.2.15.28.33.19m-1.32.76a.7.7,0,0,0,.32-.57c0-.21-.15-.28-.33-.19a.73.73,0,0,0-.32.57c0,.2.15.28.33.19m2.63-1.52a.73.73,0,0,0,.32-.57c0-.21-.14-.29-.32-.18a.7.7,0,0,0-.32.56c0,.2.14.29.32.19"/><path class="cls-22" d="M548,251.37c.31-.18.56,0,.56.33l0,14a1.23,1.23,0,0,1-.57,1l-21.46,12.39c-.31.18-.56,0-.56-.33l0-14a1.23,1.23,0,0,1,.57-1Zm-11.44,19.36,9.75-5.63,0-11.2-9.75,5.63,0,11.54m-8.3-.42,6.77-3.91v-.42l-6.77,3.9v.1m0-3.73,6.77-3.91v-.42l-6.77,3.9v.4m0,1.38L535,264v-.43l-6.77,3.91v.55m0-2.84,6.77-3.91v-.42l-6.77,3.9v.26m0,6.94,6.77-3.9v-.43l-6.77,3.91v.25m0-2.54,6.77-3.9V265l-6.77,3.9v.7m1.51,2.86,5.26-3v-.45L529.73,272v.59"/></g><path class="cls-26" d="M547.73,249.05a.7.7,0,0,0-.32.56c0,.2.15.29.32.19a.74.74,0,0,0,.33-.57C548.06,249,547.91,248.94,547.73,249.05Z"/><path class="cls-29" d="M546.42,249.81a.7.7,0,0,0-.32.56c0,.2.15.29.32.19a.7.7,0,0,0,.32-.57C546.75,249.78,546.6,249.7,546.42,249.81Z"/><path class="cls-34" d="M582.81,294.56c0,.1-.06.17-.11.22l-4.41,2.51-.73-.48,5.2-2.88A4.46,4.46,0,0,1,582.81,294.56Z"/><path class="cls-39" d="M582.75,293.93l-5.2,2.89-9-5.74,2.34-1.3c1.48-.82,3.07-1.9,4.76-2.11a7.06,7.06,0,0,1,7.1,6.26Z"/><path class="cls-38" d="M578,297.29a.32.32,0,0,0,.46-.28,6.26,6.26,0,0,0-3.63-5.64c-1-.59-4.2-1.86-6.49-.14a.29.29,0,0,0,0,.5C571.84,293.78,576.53,296.45,578,297.29Z"/><path class="cls-34" d="M452.72,230l-1.53.89a1.06,1.06,0,0,0,.45-1l1.53-.89A1.07,1.07,0,0,1,452.72,230Z"/><path class="cls-34" d="M407.72,168.58l1.53-.88a1.09,1.09,0,0,1,1.1.1l-1.53.89A1.1,1.1,0,0,0,407.72,168.58Z"/><polygon class="cls-34" points="451.63 195.23 453.05 194.34 452.97 228.99 451.54 229.88 451.63 195.23"/><polygon class="cls-34" points="408.82 168.69 410.35 167.8 451.72 191.69 450.19 192.57 408.82 168.69"/><path class="cls-34" d="M450.19,192.57l1.53-.88a3.38,3.38,0,0,1,1.53,2.65l-1.52.89A3.42,3.42,0,0,0,450.19,192.57Z"/><path class="cls-37" d="M450,192.6a3.41,3.41,0,0,1,1.52,2.64l-.08,34.52c0,1-.7,1.36-1.53.88l-41.21-23.8a3.35,3.35,0,0,1-1.53-2.64l.08-34.51c0-1,.69-1.37,1.54-.88Z"/><polygon class="cls-36" points="408.69 172.14 408.62 203.39 450.04 227.3 450.12 196.06 408.69 172.14"/><path class="cls-40" d="M450.79,231.65v1.77a1.25,1.25,0,0,1-.75.88v-1.77A1.25,1.25,0,0,0,450.79,231.65Z"/><path class="cls-40" d="M420.72,249.75v1.73a3.37,3.37,0,0,1-3,0v-1.73A3.3,3.3,0,0,0,420.72,249.75Z"/><path class="cls-40" d="M375.62,226.71v-1.77c-.24.33,0,.65.75.9v1.77C375.58,227.36,375.37,227,375.62,226.71Z"/><polygon class="cls-40" points="450.04 232.64 450.03 234.39 420.72 251.38 420.73 249.63 450.04 232.64"/><polygon class="cls-40" points="417.71 249.72 417.71 251.48 376.37 227.61 376.37 225.84 417.71 249.72"/><path class="cls-34" d="M450.09,230.76a.93.93,0,0,1,0,1.77l-29.66,17.19a3.35,3.35,0,0,1-3.05,0L376,225.84a.94.94,0,0,1,0-1.78l29.65-17.19a3.37,3.37,0,0,1,3.06,0Z"/><g class="cls-18"><path class="cls-35" d="M416.54,235.24l-15.25-8.81a1.68,1.68,0,0,0-1.53,0L391.88,231a.46.46,0,0,0,0,.88l15.24,8.81a1.72,1.72,0,0,0,1.53,0l7.88-4.54a.46.46,0,0,0,0-.88"/></g><g class="cls-18"><polygon class="cls-37" points="409.44 209.49 409.44 209.96 406.44 211.71 406.44 211.24 409.44 209.49"/><polygon class="cls-37" points="406.44 211.24 406.44 211.73 403.43 209.99 403.43 209.5 406.44 211.24"/><polygon class="cls-17" points="409.18 209.57 406.39 211.19 403.65 209.6 406.44 207.98 409.18 209.57"/></g><g class="cls-18"><polygon class="cls-37" points="412.45 211.52 412.45 211.99 409.44 213.74 409.45 213.26 412.45 211.52"/><polygon class="cls-37" points="410.2 213.27 410.19 213.75 407.19 212.02 407.19 211.54 410.2 213.27"/><polygon class="cls-17" points="412.69 211.6 409.91 213.22 407.16 211.63 409.95 210.01 412.69 211.6"/></g><g class="cls-18"><polygon class="cls-37" points="416.21 213.54 416.21 214.02 413.2 215.76 413.2 215.29 416.21 213.54"/><polygon class="cls-37" points="413.2 215.3 413.2 215.78 410.2 214.05 410.2 213.56 413.2 215.3"/><polygon class="cls-17" points="416.2 213.62 413.42 215.25 410.68 213.66 413.46 212.04 416.2 213.62"/></g><g class="cls-18"><polygon class="cls-37" points="419.97 215.57 419.97 216.05 416.96 217.79 416.96 217.31 419.97 215.57"/><polygon class="cls-37" points="416.96 217.32 416.96 217.81 413.95 216.07 413.96 215.59 416.96 217.32"/><polygon class="cls-17" points="419.71 215.65 416.93 217.27 414.19 215.69 416.97 214.07 419.71 215.65"/></g><g class="cls-18"><polygon class="cls-37" points="422.98 217.59 422.97 218.07 419.97 219.81 419.97 219.34 422.98 217.59"/><polygon class="cls-37" points="420.72 219.35 420.72 219.83 417.71 218.1 417.71 217.62 420.72 219.35"/><polygon class="cls-17" points="423.23 217.68 420.44 219.3 417.69 217.71 420.48 216.1 423.23 217.68"/></g><g class="cls-18"><polygon class="cls-37" points="426.74 219.62 426.74 220.1 423.73 221.85 423.73 221.38 426.74 219.62"/><polygon class="cls-37" points="423.73 221.38 423.73 221.86 420.72 220.13 420.72 219.65 423.73 221.38"/><polygon class="cls-17" points="426.74 219.71 423.95 221.33 421.21 219.74 424 218.13 426.74 219.71"/></g><g class="cls-18"><polygon class="cls-37" points="430.49 221.65 430.49 222.13 427.49 223.88 427.5 223.4 430.49 221.65"/><polygon class="cls-37" points="427.49 223.41 427.48 223.89 424.48 222.15 424.48 221.68 427.49 223.41"/><polygon class="cls-17" points="430.25 221.73 427.47 223.35 424.72 221.77 427.51 220.15 430.25 221.73"/></g><g class="cls-18"><polygon class="cls-37" points="433.5 223.68 433.5 224.15 430.49 225.9 430.49 225.43 433.5 223.68"/><polygon class="cls-37" points="431.25 225.44 431.25 225.92 428.24 224.18 428.24 223.69 431.25 225.44"/><polygon class="cls-17" points="433.76 223.76 430.97 225.38 428.23 223.79 431.01 222.18 433.76 223.76"/></g><g class="cls-18"><polygon class="cls-37" points="437.26 225.71 437.26 226.18 434.25 227.93 434.25 227.46 437.26 225.71"/><polygon class="cls-37" points="434.25 227.47 434.25 227.94 431.25 226.21 431.25 225.73 434.25 227.47"/><polygon class="cls-17" points="437.28 225.79 434.49 227.41 431.74 225.82 434.52 224.2 437.28 225.79"/></g><g class="cls-18"><polygon class="cls-37" points="441.02 227.74 441.01 228.21 438.01 229.96 438.01 229.48 441.02 227.74"/><polygon class="cls-37" points="438.01 229.49 438.01 229.97 435 228.24 435 227.76 438.01 229.49"/><polygon class="cls-17" points="440.79 227.82 438 229.43 435.25 227.85 438.04 226.23 440.79 227.82"/></g><g class="cls-18"><polygon class="cls-37" points="447.79 231.79 447.79 232.26 444.78 234.02 444.79 233.54 447.79 231.79"/><polygon class="cls-37" points="444.78 233.43 444.77 233.85 438.76 230.38 438.76 229.96 444.78 233.43"/><polygon class="cls-17" points="447.81 231.88 445.03 233.49 438.76 229.88 441.55 228.26 447.81 231.88"/></g><g class="cls-18"><polygon class="cls-37" points="409.44 213.58 409.44 214.06 406.44 215.8 406.45 215.32 409.44 213.58"/><polygon class="cls-37" points="406.44 215.21 406.43 215.64 400.42 212.17 400.42 211.74 406.44 215.21"/><polygon class="cls-17" points="409.15 213.66 406.37 215.28 400.11 211.66 402.89 210.04 409.15 213.66"/></g><g class="cls-18"><polygon class="cls-37" points="412.45 215.61 412.45 216.08 409.44 217.83 409.44 217.35 412.45 215.61"/><polygon class="cls-37" points="410.2 217.35 410.2 217.84 407.19 216.11 407.19 215.62 410.2 217.35"/><polygon class="cls-17" points="412.66 215.69 409.88 217.3 407.14 215.72 409.91 214.1 412.66 215.69"/></g><g class="cls-18"><polygon class="cls-37" points="416.21 217.63 416.21 218.11 413.2 219.86 413.2 219.38 416.21 217.63"/><polygon class="cls-37" points="413.2 219.38 413.2 219.87 410.2 218.13 410.2 217.65 413.2 219.38"/><polygon class="cls-17" points="416.17 217.71 413.39 219.33 410.65 217.74 413.42 216.13 416.17 217.71"/></g><g class="cls-18"><polygon class="cls-37" points="419.97 219.66 419.96 220.13 416.96 221.88 416.96 221.4 419.97 219.66"/><polygon class="cls-37" points="416.96 221.41 416.96 221.89 413.95 220.16 413.95 219.68 416.96 221.41"/><polygon class="cls-17" points="419.68 219.74 416.9 221.35 414.15 219.77 416.93 218.16 419.68 219.74"/></g><g class="cls-18"><polygon class="cls-37" points="422.98 221.69 422.98 222.16 419.97 223.91 419.97 223.43 422.98 221.69"/><polygon class="cls-37" points="420.72 223.44 420.72 223.92 417.71 222.19 417.71 221.71 420.72 223.44"/><polygon class="cls-17" points="423.19 221.77 420.42 223.38 417.67 221.8 420.45 220.19 423.19 221.77"/></g><g class="cls-18"><polygon class="cls-37" points="426.74 223.71 426.74 224.19 423.73 225.94 423.74 225.46 426.74 223.71"/><polygon class="cls-37" points="423.73 225.47 423.72 225.95 420.72 224.21 420.72 223.73 423.73 225.47"/><polygon class="cls-17" points="426.7 223.79 423.93 225.41 421.18 223.82 423.96 222.22 426.7 223.79"/></g><g class="cls-18"><polygon class="cls-37" points="430.49 225.74 430.49 226.21 427.49 227.96 427.49 227.48 430.49 225.74"/><polygon class="cls-37" points="427.49 227.49 427.49 227.98 424.48 226.24 424.48 225.75 427.49 227.49"/><polygon class="cls-17" points="430.21 225.82 427.43 227.43 424.69 225.85 427.47 224.24 430.21 225.82"/></g><g class="cls-18"><polygon class="cls-37" points="433.5 227.77 433.5 228.25 430.49 229.99 430.49 229.51 433.5 227.77"/><polygon class="cls-37" points="431.25 229.52 431.25 230 428.24 228.27 428.25 227.78 431.25 229.52"/><polygon class="cls-17" points="433.73 227.85 430.95 229.46 428.2 227.88 430.98 226.27 433.73 227.85"/></g><g class="cls-18"><polygon class="cls-37" points="437.26 229.79 437.25 230.27 434.25 232.02 434.25 231.54 437.26 229.79"/><polygon class="cls-37" points="434.25 231.55 434.25 232.03 431.25 230.29 431.25 229.81 434.25 231.55"/><polygon class="cls-17" points="437.24 229.88 434.46 231.49 431.71 229.91 434.5 228.3 437.24 229.88"/></g><g class="cls-18"><polygon class="cls-37" points="441.02 231.82 441.02 232.3 438.01 234.04 438.01 233.57 441.02 231.82"/><polygon class="cls-37" points="438.01 233.58 438.01 234.06 435 232.32 435 231.84 438.01 233.58"/><polygon class="cls-17" points="440.74 231.91 437.97 233.52 435.22 231.94 438.01 230.32 440.74 231.91"/></g><g class="cls-18"><polygon class="cls-37" points="444.03 233.85 444.03 234.33 441.02 236.07 441.03 235.6 444.03 233.85"/><polygon class="cls-37" points="441.77 235.6 441.76 236.08 438.76 234.35 438.76 233.87 441.77 235.6"/><polygon class="cls-17" points="444.26 233.94 441.49 235.55 438.74 233.97 441.52 232.35 444.26 233.94"/></g><g class="cls-18"><polygon class="cls-37" points="405.69 215.64 405.69 216.12 402.68 217.86 402.68 217.38 405.69 215.64"/><polygon class="cls-37" points="402.68 217.28 402.68 217.69 396.67 214.22 396.67 213.8 402.68 217.28"/><polygon class="cls-17" points="405.61 215.72 402.82 217.34 396.57 213.72 399.35 212.1 405.61 215.72"/></g><g class="cls-18"><polygon class="cls-37" points="409.44 217.66 409.44 218.14 406.44 219.89 406.44 219.41 409.44 217.66"/><polygon class="cls-37" points="406.44 219.41 406.44 219.9 403.43 218.16 403.44 217.68 406.44 219.41"/><polygon class="cls-17" points="409.12 217.74 406.33 219.36 403.6 217.78 406.37 216.16 409.12 217.74"/></g><g class="cls-18"><polygon class="cls-37" points="412.45 219.69 412.44 220.17 409.44 221.91 409.44 221.44 412.45 219.69"/><polygon class="cls-37" points="410.2 221.44 410.2 221.92 407.19 220.19 407.19 219.71 410.2 221.44"/><polygon class="cls-17" points="412.63 219.77 409.85 221.39 407.1 219.8 409.88 218.19 412.63 219.77"/></g><g class="cls-18"><polygon class="cls-37" points="416.21 221.71 416.21 222.19 413.2 223.94 413.2 223.46 416.21 221.71"/><polygon class="cls-37" points="413.2 223.47 413.2 223.95 410.2 222.21 410.2 221.74 413.2 223.47"/><polygon class="cls-17" points="416.13 221.79 413.36 223.41 410.61 221.83 413.39 220.22 416.13 221.79"/></g><g class="cls-18"><polygon class="cls-37" points="419.97 223.74 419.97 224.22 416.96 225.97 416.97 225.49 419.97 223.74"/><polygon class="cls-37" points="416.96 225.5 416.95 225.98 413.95 224.24 413.95 223.76 416.96 225.5"/><polygon class="cls-17" points="419.65 223.82 416.87 225.44 414.13 223.86 416.91 222.25 419.65 223.82"/></g><g class="cls-18"><polygon class="cls-37" points="422.98 225.77 422.98 226.25 419.97 227.99 419.97 227.52 422.98 225.77"/><polygon class="cls-37" points="420.72 227.53 420.72 228.01 417.71 226.27 417.71 225.78 420.72 227.53"/><polygon class="cls-17" points="423.16 225.85 420.38 227.47 417.64 225.88 420.42 224.27 423.16 225.85"/></g><g class="cls-18"><polygon class="cls-37" points="426.74 227.79 426.74 228.27 423.73 230.02 423.73 229.54 426.74 227.79"/><polygon class="cls-37" points="423.73 229.55 423.73 230.03 420.72 228.29 420.73 227.82 423.73 229.55"/><polygon class="cls-17" points="426.67 227.88 423.89 229.49 421.15 227.91 423.93 226.3 426.67 227.88"/></g><g class="cls-18"><polygon class="cls-37" points="430.49 229.82 430.49 230.3 427.49 232.05 427.49 231.57 430.49 229.82"/><polygon class="cls-37" points="427.49 231.57 427.49 232.06 424.48 230.33 424.48 229.84 427.49 231.57"/><polygon class="cls-17" points="430.19 229.91 427.41 231.52 424.65 229.94 427.44 228.32 430.19 229.91"/></g><g class="cls-18"><polygon class="cls-37" points="433.5 231.85 433.5 232.33 430.49 234.08 430.49 233.6 433.5 231.85"/><polygon class="cls-37" points="431.25 233.61 431.25 234.09 428.24 232.35 428.24 231.87 431.25 233.61"/><polygon class="cls-17" points="433.69 231.94 430.92 233.55 428.17 231.97 430.95 230.35 433.69 231.94"/></g><g class="cls-18"><polygon class="cls-37" points="441.02 235.91 441.02 236.38 438.01 238.13 438.01 237.65 441.02 235.91"/><polygon class="cls-37" points="438.01 237.54 438.01 237.97 432 234.5 432 234.07 438.01 237.54"/><polygon class="cls-17" points="440.72 236 437.94 237.6 431.68 234 434.46 232.38 440.72 236"/></g><g class="cls-18"><polygon class="cls-37" points="405.69 219.72 405.69 220.2 402.68 221.95 402.68 221.47 405.69 219.72"/><polygon class="cls-37" points="402.68 221.42 402.68 221.86 392.91 216.22 392.91 215.78 402.68 221.42"/><polygon class="cls-17" points="405.57 219.8 402.79 221.42 393.03 215.78 395.8 214.16 405.57 219.8"/></g><g class="cls-18"><polygon class="cls-37" points="409.44 221.75 409.44 222.22 406.44 223.97 406.44 223.49 409.44 221.75"/><polygon class="cls-37" points="406.44 223.5 406.44 223.98 403.43 222.25 403.43 221.76 406.44 223.5"/><polygon class="cls-17" points="409.08 221.83 406.3 223.44 403.56 221.86 406.34 220.25 409.08 221.83"/></g><g class="cls-18"><polygon class="cls-37" points="412.45 223.77 412.45 224.25 409.44 226 409.44 225.52 412.45 223.77"/><polygon class="cls-37" points="410.2 225.53 410.2 226.01 407.19 224.27 407.19 223.79 410.2 225.53"/><polygon class="cls-17" points="412.59 223.85 409.81 225.47 407.07 223.88 409.85 222.28 412.59 223.85"/></g><g class="cls-18"><polygon class="cls-37" points="416.21 225.8 416.21 226.28 413.2 228.03 413.2 227.55 416.21 225.8"/><polygon class="cls-37" points="413.2 227.56 413.2 228.04 410.2 226.3 410.2 225.81 413.2 227.56"/><polygon class="cls-17" points="416.11 225.88 413.32 227.5 410.59 225.91 413.36 224.31 416.11 225.88"/></g><g class="cls-18"><polygon class="cls-37" points="419.97 227.83 419.97 228.3 416.96 230.05 416.96 229.57 419.97 227.83"/><polygon class="cls-37" points="416.96 229.58 416.96 230.07 413.95 228.33 413.95 227.84 416.96 229.58"/><polygon class="cls-17" points="419.62 227.91 416.84 229.52 414.1 227.94 416.87 226.33 419.62 227.91"/></g><g class="cls-18"><polygon class="cls-37" points="422.98 229.85 422.98 230.33 419.97 232.08 419.97 231.6 422.98 229.85"/><polygon class="cls-37" points="420.72 231.61 420.72 232.09 417.71 230.35 417.72 229.87 420.72 231.61"/><polygon class="cls-17" points="423.13 229.94 420.35 231.55 417.61 229.97 420.38 228.36 423.13 229.94"/></g><g class="cls-18"><polygon class="cls-37" points="426.74 231.88 426.74 232.36 423.73 234.11 423.73 233.63 426.74 231.88"/><polygon class="cls-37" points="423.73 233.63 423.73 234.12 420.72 232.39 420.72 231.9 423.73 233.63"/><polygon class="cls-17" points="426.64 231.97 423.87 233.58 421.11 232 423.89 230.38 426.64 231.97"/></g><g class="cls-18"><polygon class="cls-37" points="430.49 233.91 430.49 234.39 427.49 236.13 427.49 235.66 430.49 233.91"/><polygon class="cls-37" points="427.49 235.67 427.49 236.15 424.48 234.41 424.48 233.93 427.49 235.67"/><polygon class="cls-17" points="430.15 234 427.38 235.61 424.63 234.03 427.41 232.41 430.15 234"/></g><g class="cls-18"><polygon class="cls-37" points="437.26 237.96 437.26 238.44 434.25 240.19 434.25 239.71 437.26 237.96"/><polygon class="cls-37" points="434.25 239.6 434.25 240.03 428.24 236.55 428.24 236.13 434.25 239.6"/><polygon class="cls-17" points="437.18 238.05 434.4 239.66 428.14 236.06 430.92 234.44 437.18 238.05"/></g><g class="cls-18"><polygon class="cls-37" points="395.16 217.72 395.16 218.2 392.15 219.94 392.16 219.47 395.16 217.72"/><polygon class="cls-37" points="392.15 219.48 392.15 219.96 389.15 218.23 389.15 217.74 392.15 219.48"/><polygon class="cls-17" points="395 217.8 392.22 219.43 389.48 217.84 392.26 216.22 395 217.8"/></g><g class="cls-18"><polygon class="cls-37" points="398.92 219.75 398.92 220.23 395.91 221.97 395.91 221.5 398.92 219.75"/><polygon class="cls-37" points="395.91 221.51 395.91 221.99 392.91 220.25 392.91 219.77 395.91 221.51"/><polygon class="cls-17" points="398.52 219.83 395.73 221.46 392.99 219.87 395.77 218.25 398.52 219.83"/></g><g class="cls-18"><polygon class="cls-37" points="401.93 221.78 401.92 222.26 398.92 224 398.92 223.52 401.93 221.78"/><polygon class="cls-37" points="399.67 223.53 399.67 224.02 396.67 222.28 396.67 221.8 399.67 223.53"/><polygon class="cls-17" points="402.03 221.86 399.25 223.48 396.5 221.9 399.29 220.28 402.03 221.86"/></g><g class="cls-18"><polygon class="cls-37" points="419.97 231.91 419.96 232.39 416.96 234.14 416.96 233.66 419.97 231.91"/><polygon class="cls-37" points="416.96 233.54 416.96 233.98 400.42 224.43 400.42 224 416.96 233.54"/><polygon class="cls-17" points="419.59 232 416.8 233.61 400.01 223.92 402.8 222.31 419.59 232"/></g><g class="cls-18"><polygon class="cls-37" points="422.98 233.94 422.98 234.42 419.97 236.17 419.97 235.69 422.98 233.94"/><polygon class="cls-37" points="420.72 235.69 420.72 236.18 417.71 234.45 417.71 233.96 420.72 235.69"/><polygon class="cls-17" points="423.1 234.03 420.32 235.64 417.56 234.06 420.36 232.44 423.1 234.03"/></g><g class="cls-18"><polygon class="cls-37" points="426.74 235.97 426.74 236.44 423.73 238.2 423.73 237.72 426.74 235.97"/><polygon class="cls-37" points="423.73 237.73 423.73 238.21 420.72 236.47 420.72 235.99 423.73 237.73"/><polygon class="cls-17" points="426.61 236.06 423.83 237.67 421.08 236.09 423.87 234.47 426.61 236.06"/></g><g class="cls-18"><polygon class="cls-37" points="433.5 240.03 433.5 240.5 430.49 242.25 430.49 241.77 433.5 240.03"/><polygon class="cls-37" points="430.49 241.66 430.49 242.09 424.48 238.62 424.48 238.19 430.49 241.66"/><polygon class="cls-17" points="433.64 240.11 430.85 241.72 424.59 238.12 427.38 236.5 433.64 240.11"/></g><polygon class="cls-22" points="413.2 202.03 445.53 220.69 445.53 197.42 445.53 197.42 413.2 178.76 413.2 202.03"/><polygon class="cls-36" points="443.27 199.7 432 193.19 432 209.02 443.27 215.53 443.27 199.7"/><polygon class="cls-17" points="416.96 185.18 429.74 192.56 429.74 191.62 416.96 184.24 416.96 185.18"/><polygon class="cls-17" points="416.96 187.36 429.74 194.74 429.74 193.79 416.96 186.42 416.96 187.36"/><polygon class="cls-17" points="416.96 189.53 429.74 196.91 429.74 195.97 416.96 188.6 416.96 189.53"/><polygon class="cls-17" points="416.96 191.71 429.74 199.09 429.74 198.15 416.96 190.77 416.96 191.71"/><polygon class="cls-17" points="416.96 193.88 429.74 201.26 429.74 200.33 416.96 192.95 416.96 193.88"/><polygon class="cls-17" points="416.96 196.06 429.74 203.44 429.74 202.5 416.96 195.12 416.96 196.06"/><polygon class="cls-17" points="416.96 200.38 425.98 205.59 425.98 204.64 416.96 199.43 416.96 200.38"/><polygon class="cls-17" points="416.96 198.24 429.74 205.62 429.74 204.68 416.96 197.3 416.96 198.24"/><polygon class="cls-33" points="436.77 197.21 433.39 202.02 440.16 205.93 436.77 197.21"/><polygon class="cls-29" points="439.48 200.19 436.1 205 442.86 208.91 439.48 200.19"/><path class="cls-26" d="M442.12,210.06c0,1.68-1.18,2.36-2.64,1.53a5.85,5.85,0,0,1-2.64-4.58c0-1.68,1.18-2.36,2.64-1.51A5.79,5.79,0,0,1,442.12,210.06Z"/><polygon class="cls-41" points="560.24 146.22 563.7 150.18 565.4 147.23 560.24 146.22"/><polygon class="cls-29" points="560.24 146.22 561.19 147.31 561.66 146.5 560.24 146.22"/><path class="cls-29" d="M565.4,147.23a.86.86,0,0,0-.86.09,2.64,2.64,0,0,0-1.21,2.09.84.84,0,0,0,.36.77L589,164.86a.84.84,0,0,1-.35-.77,2.64,2.64,0,0,1,1.2-2.09.85.85,0,0,1,.87-.08Z"/><path class="cls-28" d="M589.81,162c.67-.38,1.21-.08,1.22.69a2.67,2.67,0,0,1-1.21,2.09c-.67.38-1.21.08-1.21-.69A2.6,2.6,0,0,1,589.81,162Z"/><polygon class="cls-41" points="572.28 148.29 575.74 152.26 577.44 149.3 572.28 148.29"/><polygon class="cls-26" points="572.28 148.29 573.23 149.38 573.7 148.57 572.28 148.29"/><path class="cls-26" d="M577.44,149.3a.86.86,0,0,0-.86.08,2.66,2.66,0,0,0-1.2,2.09.84.84,0,0,0,.35.78L592,161.74a.86.86,0,0,1-.36-.78,2.65,2.65,0,0,1,1.21-2.09.85.85,0,0,1,.86-.08Z"/><path class="cls-24" d="M592.89,158.88c.66-.38,1.21-.08,1.21.69a2.67,2.67,0,0,1-1.21,2.09c-.67.38-1.21.08-1.21-.69A2.64,2.64,0,0,1,592.89,158.88Z"/><path class="cls-28" d="M556.29,153.88a.41.41,0,0,1-.25-.35v3.13a.42.42,0,0,0,.25.35l3.52,2v-3.13Z"/><polygon class="cls-42" points="564.31 153.3 564.3 156.3 559.8 158.91 559.81 155.91 564.31 153.3"/><path class="cls-29" d="M564.43,153.14l-4.74,2.76-3.57-2.05c-.33-.2-.34-.51,0-.71l3.52-2a1.4,1.4,0,0,1,1.23,0Z"/><polygon class="cls-39" points="566.56 154.73 566.56 157.73 562.05 160.35 562.06 157.35 566.56 154.73"/><polygon class="cls-43" points="562.05 157.42 562.05 160.28 559.8 158.98 559.81 156.12 562.05 157.42"/><polygon class="cls-41" points="566.91 154.58 562.17 157.34 559.69 155.9 564.43 153.14 566.91 154.58"/><path class="cls-24" d="M570.09,157.42l-3.39,2a1.35,1.35,0,0,1-1.22,0l-3.43-2v3.07l3.42,2a1.34,1.34,0,0,0,1.23,0l3.38-2a.43.43,0,0,0,.24-.34v-3.07A.36.36,0,0,1,570.09,157.42Z"/><path class="cls-26" d="M570.48,156.63c.33.2.34.51,0,.71l-3.52,2a1.34,1.34,0,0,1-1.23,0l-3.56-2,4.74-2.76Z"/><path class="cls-41" d="M522.72,127l-50.67,29.26c-1.18.67-1,1.85.33,2.63l29.35,16.95a5.1,5.1,0,0,0,4.57.19L557,146.74c1.18-.68,1-1.86-.33-2.64l-29.35-16.95A5.1,5.1,0,0,0,522.72,127Z"/><polygon class="cls-44" points="527.17 136.44 530.5 134.52 549.9 145.72 546.57 147.64 527.17 136.44"/><polygon class="cls-44" points="520.05 140.56 523.37 138.63 542.77 149.84 539.44 151.75 520.05 140.56"/><polygon class="cls-44" points="512.91 144.67 516.24 142.75 535.64 153.95 532.32 155.87 512.91 144.67"/><polygon class="cls-44" points="505.79 148.79 509.12 146.87 528.51 158.07 525.18 159.98 505.79 148.79"/><polygon class="cls-44" points="498.66 152.9 501.99 150.98 521.38 162.18 518.05 164.1 498.66 152.9"/><polygon class="cls-45" points="527.17 136.44 530.5 134.52 535.35 137.32 532.01 139.24 527.17 136.44"/><polygon class="cls-33" points="520.05 140.56 523.37 138.63 534.68 145.16 531.35 147.08 520.05 140.56"/><polygon class="cls-29" points="512.91 144.67 516.24 142.75 524.49 147.51 521.17 149.44 512.91 144.67"/><polygon class="cls-17" points="505.79 148.79 509.12 146.87 523.11 154.95 519.78 156.86 505.79 148.79"/><polygon class="cls-26" points="498.66 152.9 501.99 150.98 518.48 160.5 515.15 162.43 498.66 152.9"/><polygon class="cls-44" points="513.43 165.16 502.65 171.38 504.05 172.19 514.83 165.96 513.43 165.16"/><polygon class="cls-44" points="510.2 163.29 499.41 169.52 500.82 170.32 511.6 164.1 510.2 163.29"/><polygon class="cls-44" points="506.97 161.42 496.18 167.65 497.58 168.46 508.36 162.23 506.97 161.42"/><polygon class="cls-44" points="503.73 159.56 492.94 165.78 494.35 166.59 505.13 160.37 503.73 159.56"/><polygon class="cls-44" points="500.5 157.69 489.71 163.92 491.12 164.72 501.9 158.5 500.5 157.69"/><polygon class="cls-44" points="497.27 155.82 486.48 162.05 487.89 162.86 498.67 156.63 497.27 155.82"/><polygon class="cls-44" points="490.8 152.09 483.29 156.42 484.69 157.23 492.2 152.9 490.8 152.09"/><polygon class="cls-44" points="494.04 153.96 483.25 160.18 484.65 160.99 495.43 154.77 494.04 153.96"/><polygon class="cls-44" points="527.11 132.56 495.27 150.95 496.67 151.75 528.51 133.37 527.11 132.56"/><polygon class="cls-33" points="525.51 172.29 548.18 159.19 561.09 166.65 538.41 179.74 525.51 172.29"/><polygon class="cls-30" points="538.41 179.74 540.92 168.1 561.09 166.65 538.41 179.74"/><polygon class="cls-31" points="548.18 159.19 545.61 170.81 525.51 172.29 548.18 159.19"/><polygon class="cls-41" points="650.9 189.6 690.07 212.21 640.62 240.77 601.43 218.15 650.9 189.6"/><path class="cls-26" d="M640.29,218.34l-5.41-8.62a19.51,19.51,0,0,0-5.83,2.12Z"/><path class="cls-28" d="M640.29,218.34l11.25-6.49c-4.47-2.58-11-3.29-16.65-2.12Z"/><path class="cls-26" d="M629.05,224.82l11.25-6.48-15.77-1.17C623.9,220,625.57,222.82,629.05,224.82Z"/><path class="cls-29" d="M645.7,226.94a19.67,19.67,0,0,0,5.84-2.12c6.16-3.56,6.16-9.42,0-13l-11.25,6.49Z"/><path class="cls-33" d="M645.7,226.94l-5.41-8.61-11.24,6.49C633.52,227.41,640.08,228.11,645.7,226.94Z"/><path class="cls-43" d="M672.23,217.37a.6.6,0,0,1-.22-.06l-29.49-17a.45.45,0,0,1-.16-.61.45.45,0,0,1,.61-.17l29.48,17a.45.45,0,0,1,.17.61A.45.45,0,0,1,672.23,217.37Z"/><path class="cls-43" d="M675.7,215.37a.65.65,0,0,1-.23-.06l-29.48-17a.45.45,0,0,1,.44-.78l29.49,17a.44.44,0,0,1,.16.61A.43.43,0,0,1,675.7,215.37Z"/><path class="cls-43" d="M679.17,213.37a.65.65,0,0,1-.23-.06l-29.48-17a.45.45,0,0,1-.17-.61.43.43,0,0,1,.61-.16l29.48,17a.45.45,0,0,1-.21.84Z"/><g class="cls-18"><path class="cls-30" d="M682.34,242.53l0,5.65a2.54,2.54,0,0,1-1.49,2.08l0-5.66A2.56,2.56,0,0,0,682.34,242.53Z"/><path class="cls-31" d="M626.71,248.13v-5.58a2.54,2.54,0,0,0,1.49,2.08l0,5.57A2.48,2.48,0,0,1,626.71,248.13Z"/><polygon class="cls-30" points="680.83 244.7 680.82 250.16 658.28 263.25 658.29 257.79 680.83 244.7"/><polygon class="cls-31" points="650.76 257.77 650.75 263.19 628.21 250.19 628.23 244.76 650.76 257.77"/><path class="cls-31" d="M658.28,257.92l0,5.3a7.52,7.52,0,0,1-6.75,0v-5.3a7.48,7.48,0,0,0,6.77,0Z"/><path class="cls-33" d="M680.69,240.6c1.93,1.12,1.95,2.93,0,4.06L658.08,257.8a7.72,7.72,0,0,1-7,0L628.3,244.66c-1.95-1.12-1.95-2.94,0-4.06l22.63-13.15a7.71,7.71,0,0,1,7,0Z"/></g><g class="cls-18"><path class="cls-23" d="M727.44,226.92v5.66a2.52,2.52,0,0,1-1.49,2.07V229A2.57,2.57,0,0,0,727.44,226.92Z"/><path class="cls-25" d="M672.56,232.53l0-5.58a2.52,2.52,0,0,0,1.49,2.08l0,5.57A2.55,2.55,0,0,1,672.56,232.53Z"/><polygon class="cls-23" points="725.94 229.1 725.92 234.56 703.39 247.65 703.4 242.19 725.94 229.1"/><polygon class="cls-25" points="696.62 242.17 696.61 247.6 674.07 234.59 674.08 229.16 696.62 242.17"/><path class="cls-23" d="M703.39,242.31v5.3a7.48,7.48,0,0,1-6.77,0l0-5.3a7.07,7.07,0,0,0,3.38.81A6.94,6.94,0,0,0,703.39,242.31Z"/><path class="cls-26" d="M726.28,225c1.93,1.12,2,2.93,0,4.06l-22.62,13.15a7.71,7.71,0,0,1-7,0l-22.78-13.15c-1.95-1.12-2-2.94,0-4.06l22.62-13.15a7.73,7.73,0,0,1,7,0Z"/></g><text class="cls-46" transform="matrix(-0.87, -0.5, 0.87, -0.5, 669.65, 246.53)"><tspan class="cls-47">D</tspan><tspan class="cls-48" x="6.32" y="0">A</tspan><tspan class="cls-49" x="11.51" y="0">T</tspan><tspan x="15.6" y="0">A</tspan></text><text class="cls-50" transform="matrix(-0.87, -0.5, 0.87, -0.5, 717.5, 232.47)"><tspan class="cls-51">D</tspan><tspan class="cls-52" x="7.52" y="0">A</tspan><tspan class="cls-53" x="13.69" y="0">T</tspan><tspan x="18.55" y="0">A</tspan></text><path class="cls-25" d="M700.38,242.88v5.87a7.57,7.57,0,0,1-3.76-.89l0-5.88A7.78,7.78,0,0,0,700.38,242.88Z"/><path class="cls-30" d="M658.28,257.6l0,5.86a7.55,7.55,0,0,1-3.74.89v-5.86A7.88,7.88,0,0,0,658.28,257.6Z"/><path class="cls-10" d="M708.09,217.85c-4.37,1.94-8.4,16.54-6,21.67s6.21,5.53,11,4.25,10.25-7.58,12-13.43C727.53,222.37,720.54,212.31,708.09,217.85Z"/><path class="cls-4" d="M702.63,393.87V395c-2.3,1.34-7.45.63-8.8,0-.89-1.35-3.29-1-4.64-.45-5.15.45-7-.31-8.76-1.58-.88-.63-2.44-2.3-2.25-4.06C684.31,390.34,702.63,393.87,702.63,393.87Z"/><path class="cls-4" d="M694.15,384.94a90.56,90.56,0,0,1-9,2.06c-3.33.48-5.72-.08-6.51,1.12s1,4.28,3.89,5.31,9-.16,11.19.32,7.85,1.5,9.2.12,0-8.14,0-8.14Z"/><path class="cls-4" d="M725.38,377.52,715.3,366.24c-4-1.15-8.25-1.39-7.72,2.32.48,3.29,5.72,4.73,9.32,7.93l3.33,2.95c2.4,2.12,5.44.27,5.15-1.92"/><path class="cls-10" d="M715.84,236.17a9.45,9.45,0,0,1-1.25,1.13,22.6,22.6,0,0,1-8.32,4.07,15.07,15.07,0,0,1-1.63.35l.25,2.92c3.4.93,6.71-.5,9.06-1.16,1.75-.48,4.47-.93,4.47-2.77l-2.58-4.55Z"/><path class="cls-4" d="M720.54,379.44l-3.32-2.95c-3.6-3.2-8.85-4.64-9.32-7.93h0a3.43,3.43,0,0,0,0,1.11c.48,3.3,5.73,4.73,9.33,7.93l3.32,2.95c2.82,2.5,5.79.71,5.14-3,.29,2.16-2.76,4-5.15,1.89"/><path class="cls-54" d="M725.32,299.11c3.48,4.92-5.23,18.56-2.84,35.54,1.61,11.52,4.75,30.85,4,41.75-.13,2-7.91,3.41-10-6.21-3.58-16.35-8.07-26.56-9.65-39.25l.84-36.8Z"/><path class="cls-55" d="M714.18,297.32c1,15.29-10,34-9.27,46.34.76,12.73-.64,28.22-.67,42,0,0-11.25,5.33-11.75-2.91-1.66-27-6.83-35.4.15-84.79Z"/><path class="cls-16" d="M693.8,282.51a156.75,156.75,0,0,1,2.35-29.25,20.13,20.13,0,0,1,4.8-4.9l3.6-4.36q3.84-.94,7.59-2.1a21.16,21.16,0,0,1,12.41,0h0c5.32,2.25,6.33,5.84,4,12.69.06.31-4.67,19.17-5.28,24.94-.06.56,4,15.85,4.92,22.08,0,0-3.88,3.55-5,4.45-7.89,9.79-33.7-2.08-34.67-7.3C688.16,296.79,691.34,290.72,693.8,282.51Z"/><path class="cls-4" d="M706.46,218.76a9.15,9.15,0,0,0-2.09,3.73,17.92,17.92,0,0,0-.65,5.57c-.08,1.31-.61,2-.34,2.7s1.87-2.91,3.4-3.28,1.31,4.23-2,5.53c-1.43,2.18-.29,7.55.51,8.72s5.75,2.66,9.94,1.19,6.95-5.69,10.4-11.22,0-9.54,0-9.54c1.72-3.78-11.24-8.66-16.62-8.8C705.61,213.43,706.46,218.76,706.46,218.76Z"/><path class="cls-17" d="M712.57,257c1.68-5.8-4.75-12.92-10.48-11-2,.67-3.76,1.34-4.84,3.15-2.64,4.45-3.09,19.65-5.27,28.86l-1,.19c3.5,4.73,5.17,7.12,8.26,11.44a5.36,5.36,0,0,0,.66-.25C700.81,288.83,712.55,257,712.57,257Z"/><path class="cls-4" d="M444,433.65l9.47-.85a98.58,98.58,0,0,0,9.64,2.22c3.58.51,6.14-.08,7,1.2a1.43,1.43,0,0,1,.21.87h0v0c.17,1.88-1.49,3.65-2.42,4.33-1.86,1.36-3.89,2.18-9.43,1.69-1.45-.57-4-1-5,.49-1.45.68-7,1.45-9.47,0V442.4C442.57,440.91,444,433.65,444,433.65Z"/><path class="cls-8" d="M439.56,346.54c-3.12,16.11,8.05,33.73,7.14,46.75-1.24,17.83-1.92,25.62-3.76,40.13,0,0,7.24,4.3,12.57-.61,5.46-28.45,7.88-33.55,7.12-85.59Z"/><path class="cls-32" d="M483.6,272.44c3.2,3.73.51,19.06-4,22.78s-8.2,2.4-12.09-.91-6.17-11.55-5.24-17.76C463.55,268.07,474.48,261.81,483.6,272.44Z"/><path class="cls-16" d="M484.71,274a9.38,9.38,0,0,1,.3,4.4,18.17,18.17,0,0,1-1.85,5.46c-.51,1.25-.33,2.16-.87,2.65s-.46-3.52-1.72-4.54-3.08,3.36-.55,6c.37,2.66-3,7.13-4.31,7.88s-6.52-.07-9.75-3.27-3.95-8.35-4.72-15,4.21-8.85,4.21-8.85c.08-4.27,14.26-3.09,19.32-.85C487.85,269.43,484.71,274,484.71,274Z"/><path class="cls-4" d="M462.07,442.23l9.47-.85a98.58,98.58,0,0,0,9.64,2.22c3.58.51,6.14-.08,7,1.2a1.36,1.36,0,0,1,.2.87h0v0c.17,1.88-1.49,3.65-2.42,4.33-1.85,1.36-3.88,2.18-9.43,1.69-1.45-.58-4-1-5,.49-1.45.68-7,1.45-9.47,0V451C460.62,449.48,462.07,442.23,462.07,442.23Z"/><path class="cls-8" d="M446.73,350.61c-1,16.43,12.42,34.39,13.2,47.66,1.07,18.18,1.1,31,1.13,45.84,0,0,12.1,5.73,12.64-3.13,1.77-29,3.68-36.62-3.81-89.69Z"/><path class="cls-13" d="M478.39,297.93c-6.76-3.37-17.7-12.6-26.63-.53-8.39,11.31-11.83,45.31-12.79,52.09-1.29,9.17,24.26,14.08,30,13.83a2.37,2.37,0,0,0,2.43-1.91c.48-1.68-.89-2.88-.51-4.42a6.5,6.5,0,0,1,1.34-2.33,5.28,5.28,0,0,0,1.23-2.38c.22-1.46-.69-2.83-.86-4.29a8.6,8.6,0,0,1,.44-3.17c2.32-8.64,6.35-16.63,8.59-25.32,1.51-5.88,3.69-15.22-1.15-20.09A5.21,5.21,0,0,0,478.39,297.93Z"/><path class="cls-13" d="M482.53,302.47c5.42,17.14,5.92,25.65,11.21,32.42.39.5,15,16.17,15,16.17a10.28,10.28,0,0,1-7.07,4.47c-8.16-3.49-17.4-16.33-19.88-19.09-1.43-1.59-9.5-16.37-10.71-23.88S480.27,295.7,482.53,302.47Z"/><path class="cls-54" d="M691,290.54a49.63,49.63,0,0,0,8.92-1.21S707,274.05,709,266.65c0,0-2.57,15.72-4.31,20.83s-4.17,7.11-7.92,6.66a52.33,52.33,0,0,1-6.61-1.2Z"/><path class="cls-1" d="M394.93,376.73c2.38.12,4.78.24,7.16.25.64,0,1.33-.22,1.76.12s.79,2,1,2.69c.3.9,1.17,2.72,1.07,3.66.12-1.18.09-3.86.95-5.05a24.81,24.81,0,0,1,1.84,2.53,6.42,6.42,0,0,1,.45-3c.66.68,2,.9,2.84,1.26,4.37,1.81,9.33,4.41,11.8,8.62,2.68,4.58-1.54,9.42-4.86,12.38a18.47,18.47,0,0,1-5.71,3.58c-.76.28-3.95.78-3.91,2a19.79,19.79,0,0,0-1.86-2.17c0,.75-.61,1.43-.39,2.12-1.22.4-2.64.21-3.79.85-.29-1.33-1.55-2.53-2-3.85a13,13,0,0,0-1.25,3.49,9.58,9.58,0,0,0-2.51-.06,60.14,60.14,0,0,1-10.55-.68,59.22,59.22,0,0,0-6.36-.42,28.16,28.16,0,0,0-1-3.76c-.35-1.56-.64-3.14-1-4.68a5.29,5.29,0,0,0-.6,1.74c-.65,1.95-1.41,4-2.2,5.89-.7-.38-8.75-1.29-8.72-1.73a26.31,26.31,0,0,0,.16-4.5,17.4,17.4,0,0,1-2.23,3.3c-.8-1.32-.34-4.36-.67-5.91-.8.66-1,1.84-1.5,2.72-.36.61-.94,1.11-.94,1.82a51.25,51.25,0,0,1-5.52-3.3c-1.17-.74-3.43-1.69-4.17-2.86-.51-.81-.09-2.32-.54-3.08a3.47,3.47,0,0,0-1.15,1.43c-.41-.31-6-4.59-5.71-4.93,2.93-3.2,5.82-6.11,9.75-8,.74-.36,1.44-.91,2.14-.68,1.42.47,2.51,2.55,3.61,3.44-.41-1.75-.16-3.78-.32-5.59a23.69,23.69,0,0,1,6-1c1.85,0,3.77-.23,5.61-.08a10.8,10.8,0,0,1,2.55.16c1.52.64,2.53,5.31,2.94,6.93.87-1.51.48-3.84,1.32-5.54s2.63-.63,3.86-1.19c-.36.68.2,2.18.45,2.88.45-.75.45-1.82,1.17-2.33a20,20,0,0,1,2.26,4.85c.59-.92.53-2.22.95-3.25.2-.51.53-1,.68-1.45a42.08,42.08,0,0,0,6.64.42Z"/><path class="cls-1" d="M350.94,387.54c3.23-.72,7.37.54,10.57,1.09,3.49.61,7,1.29,10.45,1.88a113.22,113.22,0,0,0,19.6,1.94c13.43,0,27.24.94,40.54-1.21.91-.15.8-1.71-.15-1.64-13.78,1.06-27.47,1.87-41.3,1.93-7.07,0-14-1.07-21-2.21-6.2-1-12.61-2.38-18.89-2.62-.57,0-.49,1,.18.84Z"/><path class="cls-41" d="M211.94,29.65a117.56,117.56,0,0,1,71,17,181.43,181.43,0,0,1,53.54,50.77c8.4,11.25,15.29,23.18,22.51,35,.25.5,1,0,.71-.42A252.46,252.46,0,0,0,315.78,70.8a145.47,145.47,0,0,0-63-38.59,102.13,102.13,0,0,0-41.06-3.49c-.59,0-.59,1,0,.93Z"/><path class="cls-41" d="M333.12,119.7c3.82,2.94,8.15,5.29,12.22,7.89l12.43,7.69c.59.33,1.64,0,1.72-.72A438.37,438.37,0,0,0,364,88.37c0-1-1.59-1.26-1.76-.21a447.56,447.56,0,0,0-5,46.19l1.77-1-12.6-7.23c-4.2-2.39-8.4-5.16-12.6-7.18-.46,0-.8.38-.38.72Z"/><path class="cls-41" d="M732.73,35.52c-35.18-14.9-77.79-6.77-106.46,17.71-8.08,6.87-16.35,15.15-19.21,25.65a.52.52,0,0,0,.33.65.52.52,0,0,0,.65-.33h0a59,59,0,0,1,17.67-23.28,104.74,104.74,0,0,1,74.82-26.07,117.58,117.58,0,0,1,32,6.51c.56.18.79-.63.28-.87Z"/><path class="cls-41" d="M613.49,55a26.62,26.62,0,0,0-2.76,6.47l-2.15,6.62a111.61,111.61,0,0,0-2.8,13.77.85.85,0,0,0,.8.9.86.86,0,0,0,.6-.21,59.33,59.33,0,0,1,30.89-17.6.71.71,0,1,0-.28-1.4A53.06,53.06,0,0,0,606.22,81.2l1.4.69A115.75,115.75,0,0,1,610.28,68c.71-2.17,1.22-4.45,1.93-6.65a54.11,54.11,0,0,0,2-6.17c.09-.28-.41-.41-.52-.17Z"/><path class="cls-41" d="M256.88,464.94a47.69,47.69,0,0,0,15.77,6.13,81.73,81.73,0,0,0,16.42,2,141.22,141.22,0,0,0,34.28-3.73,253.25,253.25,0,0,0,66.29-24.6c5.9-3.19,11.72-6.61,17.36-10.3A80.06,80.06,0,0,0,422.67,423a.68.68,0,0,0,.13-.94.67.67,0,0,0-.93-.13h0a163.24,163.24,0,0,0-14.3,9.77,169.93,169.93,0,0,1-14.74,8.88,249.12,249.12,0,0,1-31.39,15.05,201.06,201.06,0,0,1-66.6,15.76,90,90,0,0,1-19.53-1.33,117.61,117.61,0,0,1-18.12-5.9.35.35,0,0,0-.26.62Z"/><path class="cls-41" d="M390.84,427.71a27.29,27.29,0,0,0,8.48,1.07,51.83,51.83,0,0,0,8.34-.67,49.77,49.77,0,0,0,16.56-5.59l-1.59-1.38-5.87,10.57c-1.9,3.51-4.12,7-5.72,10.61l1.82.49.31-3.07c0-.8-1.11-.88-1.33,0l-.94,3a1,1,0,0,0,.89,1.14,1,1,0,0,0,.93-.39c2.22-3.33,4-7.06,5.87-10.52l5.63-10.79a1,1,0,0,0-.43-1.37,1,1,0,0,0-.94,0,49.34,49.34,0,0,1-15.5,5.68,50.87,50.87,0,0,1-8.17.75c-2.79,0-5.59-.4-8.39-.4a.45.45,0,0,0,0,.89Z"/><path class="cls-41" d="M906.44,375.71c-37.74,29.11-87.49,31.67-133,26.85-14.72-1.56-29.36-4.2-43.91-6-1.22,0-1.76,1.63-.55,1.84l3.36.55c1,0,1.43-1.22.42-1.47l-3.23-.92-.55,1.84a470,470,0,0,0,78.47,8.14,182.89,182.89,0,0,0,67.78-11.58,123.8,123.8,0,0,0,32-18.37C907.91,376.05,907,375.21,906.44,375.71Z"/><path class="cls-41" d="M729,400.08a15.82,15.82,0,0,0,3.57,3.31l3.77,3.23,7.8,6.63a.79.79,0,0,0,1.11-.21.78.78,0,0,0,0-.92L728.49,395l-.42,1.51L739.9,393l5.91-1.8a34,34,0,0,0,5.66-1.85c.8-.42.46-1.88-.5-1.76a34.08,34.08,0,0,0-5.7,1.64l-5.92,1.84-11.78,3.69A1,1,0,0,0,727,396a1,1,0,0,0,.19.31c5.62,5.66,11.32,11.28,17,16.77l1.1-1.13-8.06-6.37L733,402.26a15.64,15.64,0,0,0-3.65-2.72c-.38,0-.67.33-.5.67Z"/><text class="cls-56" transform="translate(0 42.42)">T<tspan class="cls-57" x="23.87" y="0">echnical</tspan></text><text class="cls-58" transform="translate(727.53 78.47)">C<tspan class="cls-59" x="34.55" y="0">r</tspan><tspan class="cls-60" x="50.22" y="0">eati</tspan><tspan class="cls-61" x="131.21" y="0">v</tspan><tspan class="cls-60" x="155.43" y="0">es</tspan></text><text class="cls-62" transform="translate(783.49 363.03)">P<tspan class="cls-63" x="29.71" y="0">ublic </tspan><tspan class="cls-64" x="147.6" y="0">R</tspan><tspan class="cls-60" x="177.59" y="0">elations</tspan></text><text class="cls-65" transform="translate(22.77 447.45)">S<tspan class="cls-60" x="30.31" y="0">ponso</tspan><tspan class="cls-66" x="165.65" y="0">r</tspan><tspan class="cls-60" x="182.55" y="0">ship</tspan></text><text class="cls-67" transform="translate(15.56 72.94)">M<tspan class="cls-68" x="19.1" y="0">achine </tspan><tspan class="cls-69" x="94.3" y="0">L</tspan><tspan class="cls-68" x="106.25" y="0">earning</tspan><tspan class="cls-68"><tspan x="47.82" y="27.59">App Dev</tspan></tspan><tspan class="cls-70"><tspan x="45.43" y="55.18">W</tspan><tspan class="cls-68" x="65.79" y="55.18">eb Dev</tspan></tspan></text></g></g></svg>