<svg id="Layer_1" data-name="Layer 1" xmlns="http://www.w3.org/2000/svg" viewBox="0 0 248.04 293.05"><defs><style>.cls-1,.cls-19{fill:#56548c;}.cls-2{fill:#7181f4;}.cls-3{fill:#495dea;}.cls-4{fill:#606bf1;}.cls-13,.cls-14,.cls-20,.cls-5{fill:#fff;}.cls-6{fill:#ec827d;}.cls-7{fill:#fbd15b;}.cls-8{fill:#ceccff;}.cls-9{fill:#efbc3f;}.cls-10{fill:#ffdc85;}.cls-11{fill:#d86868;}.cls-12{fill:#f49898;}.cls-13,.cls-14{isolation:isolate;font-family:OpenSans-Light, Open Sans;font-weight:300;}.cls-13{font-size:8.29px;}.cls-14{font-size:9.86px;}.cls-15{fill:#ffc8af;}.cls-15,.cls-16,.cls-17,.cls-18,.cls-19{fill-rule:evenodd;}.cls-16{fill:#112b46;}.cls-17{fill:#303072;}.cls-18{fill:#46467f;}.cls-20{font-size:34.77px;font-family:SFProDisplay-Regular, SF Pro Display;}</style></defs><path class="cls-1" d="M140.72,125c-2.33,3.57-1.78,6.19-1.1,6.46,13.89,6.19,22.41,4.26,24.61,3.58-2.33-3.17-4.53-6.33-7-9.76C150.21,126.47,140.72,125,140.72,125Z"/><path class="cls-2" d="M71.16,77.25V62c0,2.2,1.37,4.4,4.26,6.05V83.3C72.53,81.52,71.16,79.32,71.16,77.25Z"/><polygon class="cls-2" points="75.69 100.21 75.56 115.34 47.78 99.25 47.78 84.13 75.69 100.21"/><path class="cls-3" d="M100.58,106.13v15.26c0-2.2-1.38-4.4-4.26-6-5.78-3.3-15-3.3-20.63,0V100.08c5.64-3.3,15-3.3,20.63,0C99.2,101.86,100.58,103.93,100.58,106.13Z"/><polygon class="cls-2" points="124.23 128.26 124.23 143.52 96.32 127.44 96.32 112.17 124.23 128.26"/><polygon class="cls-3" points="200.25 84.13 200.12 99.25 124.23 143.52 124.23 128.26 200.25 84.13"/><path class="cls-4" d="M200.25,84.13l-76,44.13L96.32,112.17c5.63-3.3,5.63-8.66,0-12s-15-3.3-20.63,0L47.79,84.13,75.42,68c-5.77-3.3-5.77-8.66,0-12s15-3.3,20.62,0L123.68,40Z"/><polygon class="cls-5" points="122.99 49.89 156.26 69.14 114.19 93.48 80.78 74.23 122.99 49.89"/><path class="cls-6" d="M113.91,74.37l-4.67-7.29a15,15,0,0,0-4.95,1.79Z"/><path class="cls-3" d="M113.91,74.37l9.63-5.5c-3.85-2.2-9.35-2.75-14.16-1.79Z"/><path class="cls-6" d="M104.29,79.87l9.62-5.5-13.47-1C99.89,75.74,101.4,78.08,104.29,79.87Z"/><path class="cls-4" d="M118.45,81.65a15.18,15.18,0,0,0,5-1.78c5.23-3,5.23-8,0-11l-9.62,5.5Z"/><path class="cls-7" d="M118.45,81.65l-4.67-7.28-9.63,5.5C108.14,82.07,113.78,82.62,118.45,81.65Z"/><path class="cls-8" d="M141.14,73.54H141L115.84,59.11a.41.41,0,0,1,0-.55.49.49,0,0,1,.41-.14l25.16,14.43c.14.14.28.28.14.55h0C141.41,73.4,141.27,73.54,141.14,73.54Z"/><path class="cls-8" d="M144,71.75h-.13L118.73,57.32a.44.44,0,1,1,.27-.83h.14L144.3,70.93a.42.42,0,0,1,.14.55h0A.39.39,0,0,1,144,71.75Z"/><path class="cls-8" d="M147.05,70.1h-.14L121.75,55.67a.42.42,0,0,1-.14-.55c.14-.14.28-.28.55-.14h0l25.16,14.57c.14.14.28.28.14.55Z"/><path class="cls-9" d="M149.52,95v4.67a2.17,2.17,0,0,1-1.23,1.65V96.64A1.79,1.79,0,0,0,149.52,95Z"/><path class="cls-10" d="M102.37,99.66V95a2.44,2.44,0,0,0,1.23,1.79v4.67A2.18,2.18,0,0,1,102.37,99.66Z"/><polygon class="cls-9" points="148.29 96.78 148.29 101.45 129.04 112.59 129.04 107.91 148.29 96.78"/><polygon class="cls-10" points="123.13 107.91 123.13 112.59 103.6 101.45 103.74 96.78 123.13 107.91"/><path class="cls-10" d="M129,107.91v4.68a6.42,6.42,0,0,1-5.91,0v-4.68a6.42,6.42,0,0,0,5.91,0Z"/><path class="cls-7" d="M148.29,93.34c1.65,1,1.65,2.47,0,3.44L129,107.91a6.42,6.42,0,0,1-5.91,0L103.74,96.78c-1.65-1-1.65-2.48,0-3.44L123,82.2a6.42,6.42,0,0,1,5.91,0Z"/><path class="cls-11" d="M188.43,81.79v4.67a2.18,2.18,0,0,1-1.24,1.65V83.44A2.18,2.18,0,0,0,188.43,81.79Z"/><path class="cls-12" d="M141.27,86.33V81.65a2.42,2.42,0,0,0,1.24,1.79v4.67A2,2,0,0,1,141.27,86.33Z"/><polygon class="cls-11" points="187.19 83.44 187.06 88.11 167.81 99.39 167.81 94.71 187.19 83.44"/><polygon class="cls-12" points="161.9 94.71 161.9 99.39 142.51 88.11 142.51 83.44 161.9 94.71"/><path class="cls-11" d="M167.81,94.71v4.68a6.42,6.42,0,0,1-5.91,0V94.71a5.74,5.74,0,0,0,3,.69A6.79,6.79,0,0,0,167.81,94.71Z"/><path class="cls-6" d="M187.19,80c1.65,1,1.65,2.48,0,3.44L168,94.58a6.44,6.44,0,0,1-5.92,0L142.65,83.44c-1.65-1-1.65-2.47,0-3.44L161.9,68.73a6.42,6.42,0,0,1,5.91,0Z"/><text class="cls-13" transform="matrix(-0.87, -0.5, 0.87, -0.5, 138.89, 98.35)">DATA</text><text class="cls-14" transform="matrix(-0.87, -0.5, 0.87, -0.5, 179.64, 86.37)">DATA</text><path class="cls-12" d="M164.92,95.4v4.68a7.5,7.5,0,0,1-3-.69V94.71A7.34,7.34,0,0,0,164.92,95.4Z"/><path class="cls-9" d="M129,107.91v4.68a5.77,5.77,0,0,1-3,.68V108.6A4.71,4.71,0,0,0,129,107.91Z"/><path class="cls-15" d="M171.66,74c-3.71,1.65-7.15,14-5.09,18.43s5.23,4.67,9.35,3.57,8.66-6.46,10.31-11.41C188.16,77.8,182.24,69.14,171.66,74Z"/><path class="cls-16" d="M167.26,223.81v1c-1.93,1.1-6.33.55-7.56,0-.69-1.1-2.75-.82-4-.41-4.4.41-6.05-.27-7.42-1.37-.69-.55-2.07-1.93-1.93-3.44C151.72,220.79,167.26,223.81,167.26,223.81Z"/><path class="cls-16" d="M159.7,216.25c-2.48.69-5.09,1.24-7.7,1.79-2.89.41-4.81-.14-5.5,1s.82,3.71,3.3,4.54,7.7-.14,9.48.27c1.93.41,6.74,1.24,7.84.14s0-6.88,0-6.88Z"/><path class="cls-16" d="M186.37,209.93l-8.53-9.63c-3.43-1-7-1.24-6.59,1.93.41,2.75,4.81,4,8,6.73l2.89,2.48c1.92,1.92,4.53.27,4.26-1.51"/><path class="cls-15" d="M178.26,89.49a3.76,3.76,0,0,1-1.1,1A19.22,19.22,0,0,1,170,93.89a4.76,4.76,0,0,1-1.38.27l.28,2.48c2.89.82,5.77-.41,7.7-1,1.51-.42,3.85-.83,3.85-2.34l-2.2-3.85Z"/><path class="cls-16" d="M182,211.58l-2.89-2.48c-3-2.75-7.56-4-8-6.74h0v1c.41,2.75,4.81,4,8,6.73l2.89,2.48c2.34,2.2,4.95.69,4.4-2.61.27,1.92-2.34,3.43-4.4,1.65"/><path class="cls-17" d="M186.37,143.11c3,4.26-4.4,15.81-2.48,30.24,1.38,9.77,4,26.26,3.44,35.61-.14,1.65-6.74,2.89-8.52-5.22-3-13.89-6.88-22.69-8.25-33.41l.69-31.35Z"/><path class="cls-18" d="M176.88,141.6c.83,13.06-8.52,29-7.83,39.45.68,10.87-.55,24.06-.55,35.75,0,0-9.63,4.54-10-2.48-1.38-22.95-5.77-30.1.14-72.17Z"/><path class="cls-19" d="M159.42,129a125.87,125.87,0,0,1,2.06-24.89,14.73,14.73,0,0,1,4.13-4.12l3-3.71c2.2-.55,4.27-1.1,6.47-1.79a17.37,17.37,0,0,1,10.58,0h0c4.54,1.92,5.36,5,3.44,10.86,0,.28-4,16.36-4.54,21.17,0,.42,3.44,13.48,4.13,18.84,0,0-3.3,3-4.27,3.85-6.73,8.38-28.73-1.79-29.55-6.19C154.61,141.18,157.36,136,159.42,129Z"/><path class="cls-16" d="M170.28,74.64a8.1,8.1,0,0,0-1.78,3.16,13.84,13.84,0,0,0-.55,4.82c0,1.1-.55,1.78-.28,2.33s1.65-2.47,2.89-2.75,1.1,3.58-1.79,4.68c-1.24,1.92-.27,6.46.41,7.42s4.95,2.2,8.53,1,5.91-4.81,8.8-9.62,0-8.11,0-8.11c1.51-3.16-9.63-7.43-14.16-7.56C169.6,70.1,170.28,74.64,170.28,74.64Z"/><path class="cls-1" d="M175.51,107.22c1.37-4.94-4-11-8.94-9.34-1.79.55-3.16,1.1-4.12,2.75-2.2,3.85-2.62,16.77-4.54,24.61-.28,0-.55.13-.83.13,3,4,4.4,6,7,9.76a1,1,0,0,0,.55-.27C165.47,134.31,175.37,107.22,175.51,107.22Z"/><path class="cls-17" d="M157.08,135.82a34.66,34.66,0,0,0,7.57-1.1s6-13.06,7.7-19.25c0,0-2.2,13.34-3.72,17.74s-3.57,6-6.73,5.64c-1.93-.28-3.72-.55-5.64-1Z"/><text class="cls-20" transform="translate(8.96 276.21)">Public Relations</text></svg>