<svg id="Layer_1" data-name="Layer 1" xmlns="http://www.w3.org/2000/svg" viewBox="0 0 248.04 293.05"><defs><style>.cls-1{fill:#efbc3f;}.cls-2{fill:#ffdc85;}.cls-3{fill:#f2ad91;}.cls-15,.cls-16,.cls-17,.cls-18,.cls-3{fill-rule:evenodd;}.cls-4{fill:#fbd15b;}.cls-5{fill:#a5b7c6;}.cls-6{fill:#b6c7d3;}.cls-7{fill:#878cf0;}.cls-16,.cls-8{fill:#606bf1;}.cls-18,.cls-9{fill:#ec827d;}.cls-10,.cls-17{fill:#56548c;}.cls-11,.cls-15{fill:#112b46;}.cls-12{fill:#ccd9e2;}.cls-13{fill:#bee1f4;}.cls-14{fill:#eee;}.cls-19{font-size:34.77px;fill:#fff;font-family:SFProDisplay-Regular, SF Pro Display;}</style></defs><path class="cls-1" d="M180.52,71.08l0,15.45c0,2.18-1.44,4.36-4.3,6l0-15.44C179.08,75.44,180.52,73.27,180.52,71.08Z"/><path class="cls-2" d="M73.69,86.43l0-15.45c0,2.21,1.46,4.42,4.37,6.11l0,15.44C75.13,90.87,73.69,88.66,73.69,86.43Z"/><path class="cls-3" d="M99.88,143.5s.76.26,2.54,1a18.51,18.51,0,0,0,8,.61c2.38-.38,5.69-.91,5-1.79s-12.69-3.89-13.19-3.65S99.88,143.5,99.88,143.5Z"/><polygon class="cls-2" points="127.5 138.12 127.46 153.57 50 108.84 50.04 93.4 127.5 138.12"/><polygon class="cls-1" points="204.45 93.4 204.41 108.85 127.46 153.57 127.5 138.12 204.45 93.4"/><path class="cls-4" d="M176.16,65c5.79,3.35,5.83,8.78.06,12.13L204.45,93.4l-76.93,44.72L50.06,93.37l28-16.3C72.31,73.73,72.27,68.3,78,65S93.16,61.6,99,65l28-16.29L155.23,65C161,61.63,170.36,61.63,176.16,65Z"/><path class="cls-5" d="M127.67,90.12v1.6c0,1.3-.84,2.54-2.51,3.51a13.47,13.47,0,0,1-12.18,0c-1.7-1-2.55-2.27-2.55-3.56V90.06c0,1.3.85,2.6,2.55,3.56a13.47,13.47,0,0,0,12.18,0C126.83,92.65,127.67,91.39,127.67,90.12Z"/><path class="cls-6" d="M125.12,86.55c3.38,2,3.4,5.12,0,7.07a13.46,13.46,0,0,1-12.19,0c-3.38-2-3.39-5.11,0-7.06A13.47,13.47,0,0,1,125.12,86.55Z"/><path class="cls-6" d="M139.37,37.86a1.94,1.94,0,0,0-2,.2L94.44,62.87a6.14,6.14,0,0,0-2.79,4.84l.07,32.13a2,2,0,0,0,.81,1.79l2.78,1.61a1.94,1.94,0,0,1-.82-1.79l-.06-32.13a6.17,6.17,0,0,1,2.79-4.84l42.94-24.81a2,2,0,0,1,2-.19Z"/><path class="cls-5" d="M140.16,39.67c1.55-.89,2.8-.17,2.81,1.6L143,73.4a6.15,6.15,0,0,1-2.78,4.83L97.27,103c-1.55.9-2.8.18-2.81-1.59L94.4,69.32a6.16,6.16,0,0,1,2.78-4.84Z"/><polygon class="cls-7" points="141.01 47.64 141 41.47 139.8 42.16 137.21 43.65 102.61 63.63 96.37 67.23 96.37 69.3 96.37 69.31 96.4 84.57 96.43 97.3 123.81 81.49 128.07 79.03 141.06 71.53 141.01 47.64"/><polygon class="cls-8" points="102.61 63.63 96.42 67.2 96.43 69.15 141 43.42 140.99 41.47 102.61 63.63"/><path class="cls-8" d="M101.62,71.61a3.11,3.11,0,0,1-1.41,2.44c-.77.45-1.4.09-1.4-.81a3.1,3.1,0,0,1,1.4-2.44C101,70.35,101.62,70.72,101.62,71.61Z"/><path class="cls-9" d="M101.62,76.57A3.12,3.12,0,0,1,100.21,79c-.77.44-1.4.08-1.4-.82a3.08,3.08,0,0,1,1.4-2.43C101,75.31,101.62,75.67,101.62,76.57Z"/><path class="cls-4" d="M101.62,81.47a3.11,3.11,0,0,1-1.41,2.44c-.77.45-1.4.08-1.4-.81a3.1,3.1,0,0,1,1.4-2.44C101,80.21,101.62,80.59,101.62,81.47Z"/><path class="cls-9" d="M101.43,97.8a2.23,2.23,0,0,1-1,1.75c-.56.33-1,.06-1-.58a2.23,2.23,0,0,1,1-1.75C101,96.89,101.43,97.15,101.43,97.8Z"/><polygon class="cls-10" points="158.56 99.05 144.81 91.1 163.12 80.52 176.88 88.47 158.56 99.05"/><polygon class="cls-11" points="158.56 99.65 158.56 99.05 176.88 88.47 176.88 89.07 158.56 99.65"/><polygon class="cls-11" points="158.56 99.05 158.56 99.65 144.8 91.7 144.8 91.1 158.56 99.05"/><polygon class="cls-12" points="109.48 108.68 109.48 109.86 122.92 117.67 122.91 116.49 109.48 108.68"/><polygon class="cls-5" points="122.91 116.49 122.92 117.67 152.66 100.5 152.65 99.32 122.91 116.49"/><polygon class="cls-6" points="109.48 108.68 122.91 116.49 152.65 99.32 139.22 91.51 109.48 108.68"/><polygon class="cls-12" points="137.4 93.47 137.41 94.06 139.26 95.15 139.26 94.56 137.4 93.47"/><polygon class="cls-5" points="139.26 94.56 139.26 95.15 141.1 94.09 141.1 93.49 139.26 94.56"/><polygon class="cls-6" points="137.4 93.47 139.26 94.56 141.1 93.49 139.24 92.42 137.4 93.47"/><polygon class="cls-12" points="135.05 94.84 135.05 95.43 136.91 96.5 136.91 95.91 135.05 94.84"/><polygon class="cls-5" points="136.91 95.91 136.91 96.5 138.74 95.45 138.74 94.86 136.91 95.91"/><polygon class="cls-6" points="135.05 94.84 136.91 95.91 138.74 94.86 136.88 93.77 135.05 94.84"/><polygon class="cls-12" points="132.7 96.19 132.71 96.78 134.56 97.86 134.56 97.27 132.7 96.19"/><polygon class="cls-5" points="134.56 97.27 134.56 97.86 136.4 96.8 136.4 96.21 134.56 97.27"/><polygon class="cls-6" points="132.7 96.19 134.56 97.27 136.4 96.21 134.53 95.13 132.7 96.19"/><polygon class="cls-12" points="130.35 97.55 130.36 98.14 132.21 99.22 132.21 98.62 130.35 97.55"/><polygon class="cls-5" points="132.21 98.62 132.21 99.22 134.05 98.16 134.05 97.57 132.21 98.62"/><polygon class="cls-6" points="130.35 97.55 132.21 98.62 134.05 97.57 132.19 96.48 130.35 97.55"/><polygon class="cls-12" points="128 98.9 128 99.49 129.86 100.58 129.86 99.99 128 98.9"/><polygon class="cls-5" points="129.86 99.99 129.86 100.58 131.69 99.52 131.69 98.93 129.86 99.99"/><polygon class="cls-6" points="128 98.9 129.86 99.99 131.69 98.93 129.83 97.85 128 98.9"/><polygon class="cls-12" points="125.65 100.26 125.66 100.85 127.51 101.93 127.51 101.34 125.65 100.26"/><polygon class="cls-5" points="127.51 101.34 127.51 101.93 129.35 100.87 129.35 100.28 127.51 101.34"/><polygon class="cls-6" points="125.65 100.26 127.51 101.34 129.35 100.28 127.48 99.2 125.65 100.26"/><polygon class="cls-12" points="123.3 101.61 123.31 102.21 125.16 103.29 125.16 102.7 123.3 101.61"/><polygon class="cls-5" points="125.16 102.7 125.16 103.29 127 102.23 127 101.64 125.16 102.7"/><polygon class="cls-6" points="123.3 101.61 125.16 102.7 127 101.64 125.14 100.56 123.3 101.61"/><polygon class="cls-12" points="120.95 102.98 120.95 103.57 122.81 104.65 122.81 104.05 120.95 102.98"/><polygon class="cls-5" points="122.81 104.05 122.81 104.65 124.65 103.58 124.65 103 122.81 104.05"/><polygon class="cls-6" points="120.95 102.98 122.81 104.05 124.65 103 122.79 101.91 120.95 102.98"/><polygon class="cls-12" points="118.6 104.33 118.61 104.92 120.46 106 120.46 105.41 118.6 104.33"/><polygon class="cls-5" points="120.46 105.41 120.46 106 122.3 104.94 122.3 104.35 120.46 105.41"/><polygon class="cls-6" points="118.6 104.33 120.46 105.41 122.3 104.35 120.44 103.27 118.6 104.33"/><polygon class="cls-12" points="116.25 105.69 116.26 106.28 118.11 107.36 118.11 106.77 116.25 105.69"/><polygon class="cls-5" points="118.11 106.77 118.11 107.36 119.95 106.3 119.95 105.71 118.11 106.77"/><polygon class="cls-6" points="116.25 105.69 118.11 106.77 119.95 105.71 118.09 104.63 116.25 105.69"/><polygon class="cls-12" points="111.55 108.4 111.56 108.99 113.41 110.07 113.41 109.48 111.55 108.4"/><polygon class="cls-5" points="113.41 109.48 113.41 110.07 117.6 107.65 117.6 107.06 113.41 109.48"/><polygon class="cls-6" points="111.55 108.4 113.41 109.48 117.6 107.06 115.74 105.98 111.55 108.4"/><polygon class="cls-12" points="137.42 96.21 137.42 96.8 139.28 97.89 139.28 97.3 137.42 96.21"/><polygon class="cls-5" points="139.28 97.3 139.28 97.89 143.47 95.47 143.46 94.88 139.28 97.3"/><polygon class="cls-6" points="137.42 96.21 139.28 97.3 143.46 94.88 141.61 93.79 137.42 96.21"/><polygon class="cls-12" points="135.07 97.57 135.07 98.16 136.93 99.24 136.93 98.65 135.07 97.57"/><polygon class="cls-5" points="136.93 98.65 136.93 99.24 138.77 98.18 138.76 97.59 136.93 98.65"/><polygon class="cls-6" points="135.07 97.57 136.93 98.65 138.76 97.59 136.91 96.51 135.07 97.57"/><polygon class="cls-12" points="132.72 98.92 132.72 99.51 134.59 100.6 134.58 100 132.72 98.92"/><polygon class="cls-5" points="134.58 100 134.59 100.6 136.42 99.54 136.41 98.94 134.58 100"/><polygon class="cls-6" points="132.72 98.92 134.58 100 136.41 98.94 134.56 97.86 132.72 98.92"/><polygon class="cls-12" points="130.37 100.28 130.37 100.87 132.23 101.95 132.23 101.36 130.37 100.28"/><polygon class="cls-5" points="132.23 101.36 132.23 101.95 134.07 100.89 134.06 100.3 132.23 101.36"/><polygon class="cls-6" points="130.37 100.28 132.23 101.36 134.06 100.3 132.21 99.22 130.37 100.28"/><polygon class="cls-12" points="128.02 101.64 128.02 102.23 129.88 103.31 129.88 102.72 128.02 101.64"/><polygon class="cls-5" points="129.88 102.72 129.88 103.31 131.72 102.25 131.71 101.66 129.88 102.72"/><polygon class="cls-6" points="128.02 101.64 129.88 102.72 131.71 101.66 129.86 100.58 128.02 101.64"/><polygon class="cls-12" points="125.67 103 125.67 103.58 127.54 104.66 127.53 104.07 125.67 103"/><polygon class="cls-5" points="127.53 104.07 127.54 104.66 129.37 103.61 129.37 103.02 127.53 104.07"/><polygon class="cls-6" points="125.67 103 127.53 104.07 129.37 103.02 127.51 101.93 125.67 103"/><polygon class="cls-12" points="123.32 104.35 123.32 104.94 125.18 106.02 125.18 105.43 123.32 104.35"/><polygon class="cls-5" points="125.18 105.43 125.18 106.02 127.02 104.96 127.02 104.37 125.18 105.43"/><polygon class="cls-6" points="123.32 104.35 125.18 105.43 127.02 104.37 125.16 103.29 123.32 104.35"/><polygon class="cls-12" points="120.97 105.71 120.97 106.3 122.83 107.38 122.83 106.79 120.97 105.71"/><polygon class="cls-5" points="122.83 106.79 122.83 107.38 124.67 106.32 124.66 105.73 122.83 106.79"/><polygon class="cls-6" points="120.97 105.71 122.83 106.79 124.66 105.73 122.81 104.65 120.97 105.71"/><polygon class="cls-12" points="118.63 107.06 118.63 107.65 120.49 108.73 120.48 108.14 118.63 107.06"/><polygon class="cls-5" points="120.48 108.14 120.49 108.73 122.32 107.68 122.32 107.09 120.48 108.14"/><polygon class="cls-6" points="118.63 107.06 120.48 108.14 122.32 107.09 120.46 106 118.63 107.06"/><polygon class="cls-12" points="116.27 108.42 116.27 109.01 118.13 110.1 118.13 109.5 116.27 108.42"/><polygon class="cls-5" points="118.13 109.5 118.13 110.1 119.97 109.03 119.97 108.44 118.13 109.5"/><polygon class="cls-6" points="116.27 108.42 118.13 109.5 119.97 108.44 118.11 107.36 116.27 108.42"/><polygon class="cls-12" points="113.92 109.78 113.92 110.37 115.78 111.45 115.78 110.86 113.92 109.78"/><polygon class="cls-5" points="115.78 110.86 115.78 111.45 117.62 110.39 117.61 109.8 115.78 110.86"/><polygon class="cls-6" points="113.92 109.78 115.78 110.86 117.61 109.8 115.76 108.72 113.92 109.78"/><polygon class="cls-12" points="139.79 97.59 139.79 98.18 141.65 99.26 141.65 98.67 139.79 97.59"/><polygon class="cls-5" points="141.65 98.67 141.65 99.26 145.84 96.84 145.84 96.25 141.65 98.67"/><polygon class="cls-6" points="139.79 97.59 141.65 98.67 145.84 96.25 143.98 95.17 139.79 97.59"/><polygon class="cls-12" points="137.44 98.94 137.45 99.54 139.3 100.61 139.3 100.03 137.44 98.94"/><polygon class="cls-5" points="139.3 100.03 139.3 100.61 141.14 99.56 141.14 98.97 139.3 100.03"/><polygon class="cls-6" points="137.44 98.94 139.3 100.03 141.14 98.97 139.28 97.89 137.44 98.94"/><polygon class="cls-12" points="135.09 100.3 135.09 100.89 136.95 101.97 136.95 101.38 135.09 100.3"/><polygon class="cls-5" points="136.95 101.38 136.95 101.97 138.79 100.91 138.79 100.32 136.95 101.38"/><polygon class="cls-6" points="135.09 100.3 136.95 101.38 138.79 100.32 136.93 99.24 135.09 100.3"/><polygon class="cls-12" points="132.74 101.66 132.74 102.25 134.6 103.33 134.6 102.74 132.74 101.66"/><polygon class="cls-5" points="134.6 102.74 134.6 103.33 136.43 102.27 136.43 101.68 134.6 102.74"/><polygon class="cls-6" points="132.74 101.66 134.6 102.74 136.43 101.68 134.57 100.6 132.74 101.66"/><polygon class="cls-12" points="130.39 103.02 130.4 103.61 132.25 104.69 132.25 104.1 130.39 103.02"/><polygon class="cls-5" points="132.25 104.1 132.25 104.69 134.09 103.62 134.09 103.03 132.25 104.1"/><polygon class="cls-6" points="130.39 103.02 132.25 104.1 134.09 103.03 132.22 101.96 130.39 103.02"/><polygon class="cls-12" points="128.04 104.37 128.04 104.96 129.9 106.04 129.9 105.45 128.04 104.37"/><polygon class="cls-5" points="129.9 105.45 129.9 106.04 131.74 104.99 131.74 104.39 129.9 105.45"/><polygon class="cls-6" points="128.04 104.37 129.9 105.45 131.74 104.39 129.88 103.31 128.04 104.37"/><polygon class="cls-12" points="125.69 105.73 125.69 106.32 127.55 107.4 127.55 106.81 125.69 105.73"/><polygon class="cls-5" points="127.55 106.81 127.55 107.4 129.39 106.34 129.39 105.75 127.55 106.81"/><polygon class="cls-6" points="125.69 105.73 127.55 106.81 129.39 105.75 127.53 104.67 125.69 105.73"/><polygon class="cls-12" points="123.34 107.09 123.35 107.68 125.2 108.75 125.2 108.16 123.34 107.09"/><polygon class="cls-5" points="125.2 108.16 125.2 108.75 127.04 107.7 127.04 107.11 125.2 108.16"/><polygon class="cls-6" points="123.34 107.09 125.2 108.16 127.04 107.11 125.18 106.02 123.34 107.09"/><polygon class="cls-12" points="120.99 108.44 120.99 109.03 122.85 110.11 122.85 109.52 120.99 108.44"/><polygon class="cls-5" points="122.85 109.52 122.85 110.11 124.69 109.05 124.69 108.46 122.85 109.52"/><polygon class="cls-6" points="120.99 108.44 122.85 109.52 124.69 108.46 122.83 107.38 120.99 108.44"/><polygon class="cls-12" points="116.29 111.15 116.3 111.74 118.15 112.83 118.15 112.24 116.29 111.15"/><polygon class="cls-5" points="118.15 112.24 118.15 112.83 122.34 110.41 122.34 109.82 118.15 112.24"/><polygon class="cls-6" points="116.29 111.15 118.15 112.24 122.34 109.82 120.48 108.73 116.29 111.15"/><polygon class="cls-12" points="139.81 100.32 139.82 100.91 141.68 102 141.68 101.41 139.81 100.32"/><polygon class="cls-5" points="141.68 101.41 141.68 102 148.21 98.22 148.21 97.63 141.68 101.41"/><polygon class="cls-6" points="139.81 100.32 141.68 101.41 148.21 97.63 146.35 96.55 139.81 100.32"/><polygon class="cls-12" points="137.47 101.68 137.47 102.27 139.33 103.35 139.33 102.76 137.47 101.68"/><polygon class="cls-5" points="139.33 102.76 139.33 103.35 141.16 102.3 141.16 101.7 139.33 102.76"/><polygon class="cls-6" points="137.47 101.68 139.33 102.76 141.16 101.7 139.3 100.62 137.47 101.68"/><polygon class="cls-12" points="135.12 103.04 135.12 103.63 136.97 104.71 136.97 104.12 135.12 103.04"/><polygon class="cls-5" points="136.97 104.12 136.97 104.71 138.81 103.65 138.81 103.06 136.97 104.12"/><polygon class="cls-6" points="135.12 103.04 136.97 104.12 138.81 103.06 136.95 101.98 135.12 103.04"/><polygon class="cls-12" points="132.76 104.4 132.77 104.99 134.63 106.07 134.63 105.47 132.76 104.4"/><polygon class="cls-5" points="134.63 105.47 134.63 106.07 136.46 105.01 136.46 104.42 134.63 105.47"/><polygon class="cls-6" points="132.76 104.4 134.63 105.47 136.46 104.42 134.6 103.33 132.76 104.4"/><polygon class="cls-12" points="130.42 105.75 130.42 106.34 132.28 107.42 132.28 106.83 130.42 105.75"/><polygon class="cls-5" points="132.28 106.83 132.28 107.42 134.11 106.36 134.11 105.77 132.28 106.83"/><polygon class="cls-6" points="130.42 105.75 132.28 106.83 134.11 105.77 132.25 104.69 130.42 105.75"/><polygon class="cls-12" points="128.07 107.11 128.07 107.7 129.92 108.78 129.92 108.19 128.07 107.11"/><polygon class="cls-5" points="129.92 108.19 129.92 108.78 131.76 107.72 131.76 107.13 129.92 108.19"/><polygon class="cls-6" points="128.07 107.11 129.92 108.19 131.76 107.13 129.9 106.05 128.07 107.11"/><polygon class="cls-12" points="125.71 108.46 125.72 109.06 127.58 110.14 127.58 109.55 125.71 108.46"/><polygon class="cls-5" points="127.58 109.55 127.58 110.14 129.41 109.08 129.41 108.49 127.58 109.55"/><polygon class="cls-6" points="125.71 108.46 127.58 109.55 129.41 108.49 127.55 107.41 125.71 108.46"/><polygon class="cls-12" points="123.37 109.82 123.37 110.42 125.23 111.49 125.23 110.9 123.37 109.82"/><polygon class="cls-5" points="125.23 110.9 125.23 111.49 127.06 110.43 127.06 109.84 125.23 110.9"/><polygon class="cls-6" points="123.37 109.82 125.23 110.9 127.06 109.84 125.2 108.76 123.37 109.82"/><polygon class="cls-12" points="118.66 112.53 118.67 113.13 120.53 114.21 120.53 113.62 118.66 112.53"/><polygon class="cls-5" points="120.53 113.62 120.53 114.21 124.72 111.79 124.72 111.2 120.53 113.62"/><polygon class="cls-6" points="118.66 112.53 120.53 113.62 124.72 111.2 122.85 110.12 118.66 112.53"/><polygon class="cls-12" points="146.89 98.99 146.89 99.58 148.75 100.66 148.74 100.07 146.89 98.99"/><polygon class="cls-5" points="148.74 100.07 148.75 100.66 150.59 99.6 150.58 99.01 148.74 100.07"/><polygon class="cls-6" points="146.89 98.99 148.74 100.07 150.58 99.01 148.72 97.93 146.89 98.99"/><polygon class="cls-12" points="144.53 100.34 144.53 100.94 146.4 102.02 146.4 101.43 144.53 100.34"/><polygon class="cls-5" points="146.4 101.43 146.4 102.02 148.23 100.96 148.22 100.37 146.4 101.43"/><polygon class="cls-6" points="144.53 100.34 146.4 101.43 148.22 100.37 146.37 99.29 144.53 100.34"/><polygon class="cls-12" points="142.19 101.7 142.19 102.3 144.05 103.37 144.05 102.78 142.19 101.7"/><polygon class="cls-5" points="144.05 102.78 144.05 103.37 145.88 102.31 145.88 101.72 144.05 102.78"/><polygon class="cls-6" points="142.19 101.7 144.05 102.78 145.88 101.72 144.02 100.64 142.19 101.7"/><polygon class="cls-12" points="130.44 108.49 130.44 109.08 132.3 110.16 132.3 109.56 130.44 108.49"/><polygon class="cls-5" points="132.3 109.56 132.3 110.16 143.54 103.67 143.53 103.08 132.3 109.56"/><polygon class="cls-6" points="130.44 108.49 132.3 109.56 143.53 103.08 141.68 102 130.44 108.49"/><polygon class="cls-12" points="128.09 109.84 128.09 110.43 129.95 111.51 129.94 110.92 128.09 109.84"/><polygon class="cls-5" points="129.94 110.92 129.95 111.51 131.78 110.45 131.78 109.86 129.94 110.92"/><polygon class="cls-6" points="128.09 109.84 129.94 110.92 131.78 109.86 129.92 108.78 128.09 109.84"/><polygon class="cls-12" points="125.74 111.2 125.74 111.79 127.6 112.87 127.59 112.28 125.74 111.2"/><polygon class="cls-5" points="127.59 112.28 127.6 112.87 129.44 111.81 129.43 111.22 127.59 112.28"/><polygon class="cls-6" points="125.74 111.2 127.59 112.28 129.43 111.22 127.58 110.14 125.74 111.2"/><polygon class="cls-12" points="121.04 113.91 121.04 114.5 122.9 115.58 122.89 114.99 121.04 113.91"/><polygon class="cls-5" points="122.89 114.99 122.9 115.58 127.08 113.16 127.08 112.57 122.89 114.99"/><polygon class="cls-6" points="121.04 113.91 122.89 114.99 127.08 112.57 125.22 111.5 121.04 113.91"/><polygon class="cls-8" points="128.22 60.87 128.24 70.2 136.36 65.52 136.34 56.18 128.22 60.87"/><polygon class="cls-6" points="120.46 68.86 120.46 69.23 126.35 65.83 126.35 65.46 120.46 68.86"/><polygon class="cls-6" points="120.45 67.69 120.45 68.06 126.35 64.66 126.34 64.29 120.45 67.69"/><polygon class="cls-6" points="120.45 66.52 120.45 66.9 126.34 63.49 126.34 63.12 120.45 66.52"/><polygon class="cls-6" points="120.45 65.35 120.45 65.72 126.34 62.33 126.34 61.96 120.45 65.35"/><polygon class="cls-6" points="120.47 71.2 120.47 71.57 126.36 68.17 126.36 67.8 120.47 71.2"/><polygon class="cls-6" points="120.46 70.03 120.46 70.4 126.36 67 126.35 66.63 120.46 70.03"/><polygon class="cls-6" points="121.96 71.5 121.96 71.87 126.36 69.34 126.36 68.97 121.96 71.5"/><path class="cls-4" d="M135.19,53.06a.64.64,0,0,0-.28.48.18.18,0,0,0,.15.2.19.19,0,0,0,.13,0,.61.61,0,0,0,.28-.49C135.47,53,135.35,53,135.19,53.06Z"/><path class="cls-6" d="M137.75,51.07c.3-.18.54,0,.54.31v2.54c0-.31-.22-.44-.49-.29l-18.71,10.8a1.11,1.11,0,0,0-.5.85V62.74a1.18,1.18,0,0,1,.54-.93Zm-1.42,2a.61.61,0,0,0,.28-.49c0-.18-.13-.25-.29-.16a.63.63,0,0,0-.27.49c0,.17.12.25.28.16m-1.13.65a.6.6,0,0,0,.27-.49c0-.18-.13-.24-.28-.16a.64.64,0,0,0-.28.49c0,.17.13.24.29.16m2.27-1.3a.63.63,0,0,0,.27-.48c0-.19-.12-.26-.27-.17a.63.63,0,0,0-.28.49c0,.18.12.25.28.16"/><path class="cls-13" d="M137.81,53.63c.27-.16.49,0,.49.28l0,12.22a1.06,1.06,0,0,1-.49.85l-18.7,10.8a.31.31,0,0,1-.5-.29l0-12.21a1.05,1.05,0,0,1,.5-.85Zm-9.57,16.59,8.12-4.69V56.2l-8.12,4.69v9.33m-7.78.19L126.35,67v-.37L120.46,70v.37m0-3.5,5.89-3.4V63.1l-5.89,3.4v.37m0,1.17,5.89-3.4v-.37l-5.89,3.4V68m0-2.34,5.89-3.4v-.37l-5.89,3.4v.37m0,5.83,5.89-3.39v-.37l-5.89,3.39v.37m0-2.33,5.89-3.4v-.37l-5.89,3.4v.37m1.5,2.64,4.4-2.54v-.37L122,71.52v.36"/><path class="cls-9" d="M137.46,51.75a.64.64,0,0,0-.28.48c0,.18.13.26.28.17a.69.69,0,0,0,.28-.49C137.74,51.73,137.61,51.66,137.46,51.75Z"/><path class="cls-8" d="M136.32,52.4a.63.63,0,0,0-.27.49c0,.17.12.25.27.16a.61.61,0,0,0,.28-.49C136.6,52.38,136.48,52.31,136.32,52.4Z"/><path class="cls-5" d="M167.73,91a.29.29,0,0,1-.1.19l-3.79,2.16-.65-.4c1.05-.59,3.24-1.79,4.48-2.49A5,5,0,0,1,167.73,91Z"/><path class="cls-14" d="M167.67,90.47c-1.26.71-3.44,1.9-4.49,2.49L155.4,88l2-1.12a12.41,12.41,0,0,1,4.12-1.82,6.09,6.09,0,0,1,6.12,5.4Z"/><path class="cls-12" d="M163.58,93.37a.26.26,0,0,0,.36-.12.28.28,0,0,0,0-.13,5.39,5.39,0,0,0-3.12-4.86c-.91-.51-3.63-1.6-5.61-.12a.26.26,0,0,0-.07.36.23.23,0,0,0,.07.07C158.26,90.32,162.3,92.64,163.58,93.37Z"/><path class="cls-15" d="M47.75,211l8.14-.71a84.4,84.4,0,0,0,8.3,1.92c3.09.44,5.3-.08,6,1a1.23,1.23,0,0,1,.18.75h0c.15,1.62-1.3,3.14-2.09,3.74-1.59,1.16-3.34,1.87-8.12,1.45-1.26-.5-3.49-.83-4.3.42-1.26.59-6,1.25-8.17,0v-1.07C46.45,217.26,47.75,211,47.75,211Z"/><path class="cls-16" d="M44.14,135.86c-2.69,13.9,7,29.1,6.16,40.32-1.07,15.39-1.66,22.11-3.24,34.63,0,0,6.24,3.7,10.85-.53,4.71-24.54,6.79-28.94,6.13-73.84Z"/><path class="cls-3" d="M82.12,71.93c2.76,3.24.44,16.44-3.43,19.65s-7.08,2.07-10.44-.78-5.32-10-4.54-15.33C64.84,68.16,74.27,62.76,82.12,71.93Z"/><path class="cls-17" d="M83.09,73.28a8,8,0,0,1,.25,3.79,15.42,15.42,0,0,1-1.59,4.71c-.44,1.08-.29,1.86-.75,2.29s-.39-3-1.48-3.89-2.66,2.89-.48,5.19c.32,2.29-2.63,6.15-3.72,6.79s-5.62,0-8.43-2.82-3.4-7.2-4.07-13,3.63-7.64,3.63-7.64c.07-3.68,12.32-2.66,16.67-.73C85.8,69.34,83.09,73.28,83.09,73.28Z"/><path class="cls-15" d="M63.35,218.41l8.17-.73s5.22,1.47,8.3,1.94,5.3-.07,6,1a1.26,1.26,0,0,1,.18.76h0c.15,1.62-1.3,3.14-2.09,3.73-1.59,1.17-3.35,1.88-8.12,1.45-1.26-.49-3.49-.82-4.3.43-1.26.59-6,1.25-8.17,0V226C62.1,224.66,63.35,218.41,63.35,218.41Z"/><path class="cls-16" d="M50.34,139.37c-.89,14.17,10.71,29.67,11.38,41.11.94,15.68.94,26.77.94,39.55,0,0,10.44,4.94,10.9-2.7,1.54-25,3.18-31.59-3.28-77.37Z"/><path class="cls-18" d="M77.64,93.92c-5.84-2.91-15.27-10.87-23-.46-7.23,9.76-10.2,39.09-11,44.94-1.11,7.91,20.93,12.15,25.85,11.93a2.06,2.06,0,0,0,2.1-1.65c.42-1.45-.77-2.48-.44-3.81a5.6,5.6,0,0,1,1.15-2,4.6,4.6,0,0,0,1.07-2.05c.19-1.26-.6-2.44-.74-3.71a7.46,7.46,0,0,1,.37-2.73c2-7.45,5.48-14.34,7.41-21.84,1.3-5.07,3.18-13.13-1-17.34A4.56,4.56,0,0,0,77.64,93.92Z"/><path class="cls-18" d="M81.21,97.84c4.67,14.79,5.11,22.12,9.67,28,.34.44,13,14,13,14a8.88,8.88,0,0,1-6.1,3.86c-7-3-15-14.09-17.16-16.47-1.25-1.37-8.2-14.12-9.25-20.6S79.26,92,81.21,97.84Z"/><text class="cls-19" transform="translate(32.53 276.21)">Sponsorship</text></svg>