<svg id="Layer_1" data-name="Layer 1" xmlns="http://www.w3.org/2000/svg" viewBox="0 0 248.04 293.05"><defs><style>.cls-1,.cls-15{fill:#112b46;}.cls-1,.cls-2,.cls-3,.cls-4,.cls-5,.cls-6,.cls-7,.cls-8,.cls-9{fill-rule:evenodd;}.cls-2{fill:#21496d;}.cls-3{fill:#495dea;}.cls-23,.cls-4{fill:#fff;}.cls-22,.cls-5{fill:#606bf1;}.cls-6{fill:#20318d;}.cls-7{fill:#ffc8af;}.cls-8{fill:#7181f4;}.cls-9{fill:#f4ae92;}.cls-10{fill:#d86868;}.cls-11{fill:#d34c4c;}.cls-12{fill:#f49898;}.cls-13{fill:#ec827d;}.cls-14{fill:#a5b7c6;}.cls-16{fill:#878cf0;}.cls-17{fill:#879faf;}.cls-18{fill:#b6c7d3;}.cls-19{fill:#56548c;}.cls-20{fill:#bee1f4;}.cls-21{fill:#fbd15b;}.cls-23{font-size:34.77px;font-family:SFProDisplay-Regular, SF Pro Display;}.cls-24{letter-spacing:-0.13em;}</style></defs><path class="cls-1" d="M102.8,193.41s9,10.5,11.38,11.26.25,3.16-1.64,3.41-7.72,0-9.49-1.77-6.58-3.54-6.58-3.54a29.24,29.24,0,0,1,1.27-8.85Z"/><path class="cls-1" d="M106,118.92s1.14,23.4.76,31-2.28,45.66-2.28,45.66a17.38,17.38,0,0,1-8.09,0c-1.65-29.09-1.52-37.56-2-41.86s-1-16.95-1-16.95c-3.54-7.21.13-16.57,1.9-18.84S106,118.92,106,118.92Z"/><path class="cls-1" d="M88,203.4c.25,4.3,1.9,9.36,2.28,11.89a6,6,0,0,1-1.14,4.81c-.63.76-7.84-1.52-8.85-4.3s1-5.19,1.13-10.37A4.78,4.78,0,0,1,88,203.4Z"/><path class="cls-2" d="M98.5,120.69S97.23,141.94,95.34,149s-3.67,27.82-4.56,31.49-1.89,25.93-1.89,25.93a17,17,0,0,1-8,0c.12-21-.38-37.94,0-43.76s-.13-22.77-.13-22.77c-1.9-8-2-9,0-14.16S91.16,116.39,98.5,120.69Z"/><path class="cls-3" d="M102.54,70.23c7.34,2,11.26,20.49,13.28,24.66s19.23,5.18,19.23,5.18c1,3.55-1.9,7.34-1.9,7.34-16.44-.63-22.26-2-25.42-8.6C104.82,92.36,94.07,72.5,102.54,70.23Z"/><path class="cls-4" d="M102.54,70.23c-6.45-.26-21.62,3-26.55,9.48S78.26,97.29,79.91,104s-.76,23.78-.76,25.3c7.71,5.06,26.3,5.82,28.45-1.9.89-8.34-1-18.21-1.13-23C106.72,94,111.14,73.39,102.54,70.23Z"/><path class="cls-5" d="M97,71.87c4.17,14.67,5.19,31.24,4.81,37.56s-.64,26.44-.64,26.44c4.94-2.53,7.09-7.34,7.09-9.36s-1.9-20.49-1.77-21.88,2.52-18.22,1.77-25.8-5.57-8.35-5.57-8.35H96.35Z"/><path class="cls-6" d="M101,54c2.91.88,0,7.46,0,7.46Z"/><path class="cls-7" d="M101.15,54.92a18.16,18.16,0,0,1,.64,6.83c-.38,2.91-.64,8.86-3.29,10.75s-6.45-.25-8.86-2.4a14.66,14.66,0,0,1-5.18-10.75c0-4.81,1.77-10.5,8.6-10.24S101.15,54.92,101.15,54.92Z"/><path class="cls-7" d="M87.87,65.8s.51,6.07-1,8.35c-.12,1.51,4.18,7.84,8.48,6.7,2.53-.63,2.15-3.54,2.15-3.54a73.91,73.91,0,0,1,0-7.59Z"/><path class="cls-1" d="M102.8,49.74c1,3.54-.13,4.8-3,5.82s-10.87-1.27-10.87-1.27c.5,3.79-.64,5.69-.64,5.69-1.26-3.67-2.53-1.77-2.65,1.14S87.11,64,87.11,64c-.12,2.53-.88,3.29-.88,3.29-3.16-2.15-7.46-16.82-1.77-17.2C84.59,45.06,100.77,42.28,102.8,49.74Z"/><path class="cls-5" d="M86.61,73.14c5.06,10.75,7.71,20.48,7.59,29.21s-2,34.53-2,34.53c-8.85-2.15-14.79-4.68-16.44-7.59,3.8-10,5.19-16.57,4.43-19.48S72.7,85.4,76.24,79.08C79.4,75.54,86.61,73.14,86.61,73.14Z"/><path class="cls-8" d="M78.89,79C85,82,89.77,98.68,94.45,103.11c2.66,2.53,15.56,5.82,19.1,5.94,1.39,3.17-1.14,6.71-1.14,6.71-22.13-2-23-3.29-29.85-12C74.21,93.12,70.8,76.93,78.89,79Z"/><path class="cls-9" d="M97.36,73c-1.9.63-4.55-.38-8.1-3.16,0,0,1,4,8.1,5.56Z"/><path class="cls-4" d="M87.75,71.74a13.23,13.23,0,0,1-1.14,1.4s2.15,4.8,3,7A11.1,11.1,0,0,0,92.55,84l2.91-3.16C91.41,78.83,87.75,71.74,87.75,71.74Z"/><path class="cls-4" d="M97.11,73.26c-.26-.38-.89,5.95-1.77,7.59A11.42,11.42,0,0,0,98.24,83C98.24,83.13,99.38,76,97.11,73.26Z"/><path class="cls-10" d="M189.56,104.37v16.19c0,2.28-1.52,4.56-4.55,6.33V110.7C188,108.93,189.56,106.65,189.56,104.37Z"/><polygon class="cls-10" points="214.6 127.77 214.6 143.83 185.26 160.91 185.26 144.72 214.6 127.77"/><path class="cls-11" d="M159,167.23V151c0-2.27,1.52-4.55,4.55-6.32,6.08-3.54,15.81-3.54,21.88,0v16.19c-6.07-3.54-15.8-3.54-21.88,0C160.47,162.68,159,165,159,167.23Z"/><polygon class="cls-10" points="163.5 157.49 163.5 173.56 134.16 190.63 134.16 174.44 163.5 157.49"/><polygon class="cls-12" points="134.16 174.44 134.16 190.63 53.22 143.83 53.22 127.77 134.16 174.44"/><path class="cls-13" d="M185,98.05c6.07,3.54,6.07,9.23.12,12.65l29.47,17.07-29.34,17c-6.07-3.54-15.81-3.54-21.88,0s-5.95,9.23.12,12.65l-29.34,17.07L53.22,127.77,133.66,81.1l29.47,17.08C169.2,94.51,178.93,94.51,185,98.05Z"/><path class="cls-14" d="M164.39,127.9l-1.39.76a1.18,1.18,0,0,0,.38-.89l1.39-.76A.66.66,0,0,1,164.39,127.9Z"/><path class="cls-14" d="M123.92,72.63l1.39-.76a.93.93,0,0,1,1,.13l-1.39.76C124.55,72.5,124.17,72.38,123.92,72.63Z"/><polygon class="cls-14" points="163.5 96.66 164.9 95.77 164.9 127.01 163.5 127.9 163.5 96.66"/><polygon class="cls-14" points="124.8 72.63 126.19 71.87 163.5 93.37 162.11 94.26 124.8 72.63"/><path class="cls-14" d="M162.11,94.26l1.39-.76a3.36,3.36,0,0,1,1.4,2.4l-1.4.76A2.69,2.69,0,0,0,162.11,94.26Z"/><path class="cls-15" d="M162.11,94.26a3.32,3.32,0,0,1,1.39,2.4V127.9c0,.88-.63,1.26-1.39.76l-37.31-21.5a3.4,3.4,0,0,1-1.39-2.41l.13-31.24c0-.88.63-1.26,1.39-.75Z"/><polygon class="cls-16" points="124.8 75.79 124.8 104 162.11 125.5 162.11 97.42 124.8 75.79"/><path class="cls-17" d="M162.62,129.42v1.64a.85.85,0,0,1-.51.76v-1.65A.82.82,0,0,0,162.62,129.42Z"/><path class="cls-17" d="M135.3,145.73v1.65a3.62,3.62,0,0,1-2.78,0v-1.65A2.72,2.72,0,0,0,135.3,145.73Z"/><path class="cls-17" d="M94.7,125v-1.64a.8.8,0,0,0,.64.75v1.65A.81.81,0,0,1,94.7,125Z"/><polygon class="cls-17" points="162.11 130.18 162.11 131.82 135.3 147.38 135.3 145.73 162.11 130.18"/><polygon class="cls-17" points="132.52 145.73 132.52 147.38 95.34 125.75 95.34 124.23 132.52 145.73"/><path class="cls-14" d="M162.11,128.66a.94.94,0,0,1,.51,1.14,1,1,0,0,1-.51.5l-26.68,15.56a3.53,3.53,0,0,1-2.78,0l-37.31-21.5a1,1,0,0,1-.51-1.14,1,1,0,0,1,.51-.51L122,107.16a3.53,3.53,0,0,1,2.78,0Z"/><path class="cls-18" d="M131.76,132.7l-13.79-8a1.33,1.33,0,0,0-1.39,0l-7.08,4c-.25.13-.38.26-.25.51a.26.26,0,0,0,.25.25l13.79,8a1.38,1.38,0,0,0,1.39,0l7.08-4c.25-.12.38-.25.25-.5a.27.27,0,0,0-.25-.26"/><polygon class="cls-15" points="125.18 109.56 125.18 109.94 122.65 111.33 122.65 110.95 125.18 109.56"/><polygon class="cls-15" points="122.65 110.95 122.65 111.33 120.25 109.94 120.25 109.56 122.65 110.95"/><polygon class="cls-19" points="125.18 109.56 122.65 110.95 120.25 109.56 122.65 108.17 125.18 109.56"/><polygon class="cls-15" points="128.34 111.33 128.34 111.71 125.82 113.23 125.82 112.85 128.34 111.33"/><polygon class="cls-15" points="125.82 112.85 125.82 113.23 123.41 111.84 123.41 111.33 125.82 112.85"/><polygon class="cls-19" points="128.34 111.33 125.82 112.85 123.41 111.33 125.82 109.94 128.34 111.33"/><polygon class="cls-15" points="131.51 113.23 131.51 113.61 128.98 115 128.98 114.62 131.51 113.23"/><polygon class="cls-15" points="128.98 114.62 128.98 115 126.58 113.61 126.58 113.23 128.98 114.62"/><polygon class="cls-19" points="131.51 113.23 128.98 114.62 126.58 113.23 128.98 111.71 131.51 113.23"/><polygon class="cls-15" points="134.67 115 134.67 115.38 132.14 116.89 132.14 116.52 134.67 115"/><polygon class="cls-15" points="132.14 116.52 132.14 116.89 129.74 115.5 129.74 115 132.14 116.52"/><polygon class="cls-19" points="134.67 115 132.14 116.52 129.74 115 132.27 113.61 134.67 115"/><polygon class="cls-15" points="137.83 116.89 137.83 117.27 135.3 118.67 135.3 118.29 137.83 116.89"/><polygon class="cls-15" points="135.3 118.29 135.3 118.67 132.9 117.27 132.9 116.89 135.3 118.29"/><polygon class="cls-19" points="137.83 116.89 135.3 118.29 132.9 116.89 135.43 115.38 137.83 116.89"/><polygon class="cls-15" points="140.99 118.67 140.99 119.05 138.46 120.56 138.46 120.18 140.99 118.67"/><polygon class="cls-15" points="138.46 120.18 138.46 120.56 136.06 119.05 136.06 118.67 138.46 120.18"/><polygon class="cls-19" points="140.99 118.67 138.46 120.18 136.06 118.67 138.59 117.27 140.99 118.67"/><polygon class="cls-15" points="144.15 120.44 144.15 120.94 141.63 122.33 141.63 121.95 144.15 120.44"/><polygon class="cls-15" points="141.63 121.95 141.63 122.33 139.22 120.94 139.22 120.56 141.63 121.95"/><polygon class="cls-19" points="144.15 120.44 141.63 121.95 139.22 120.56 141.75 119.05 144.15 120.44"/><polygon class="cls-15" points="147.32 122.33 147.32 122.71 144.79 124.23 144.79 123.85 147.32 122.33"/><polygon class="cls-15" points="144.79 123.85 144.79 124.23 142.38 122.71 142.38 122.33 144.79 123.85"/><polygon class="cls-19" points="147.32 122.33 144.79 123.85 142.38 122.33 144.91 120.94 147.32 122.33"/><polygon class="cls-15" points="150.48 124.1 150.48 124.61 147.95 126 147.95 125.62 150.48 124.1"/><polygon class="cls-15" points="147.95 125.62 147.95 126 145.55 124.61 145.55 124.23 147.95 125.62"/><polygon class="cls-19" points="150.48 124.1 147.95 125.62 145.55 124.23 148.07 122.71 150.48 124.1"/><polygon class="cls-15" points="153.64 126 153.64 126.38 151.11 127.9 151.11 127.39 153.64 126"/><polygon class="cls-15" points="151.11 127.39 151.11 127.9 148.71 126.38 148.71 126 151.11 127.39"/><polygon class="cls-19" points="153.64 126 151.11 127.39 148.71 126 151.24 124.61 153.64 126"/><polygon class="cls-15" points="159.96 129.67 159.96 130.05 157.43 131.44 157.56 131.06 159.96 129.67"/><polygon class="cls-15" points="157.56 131.06 157.43 131.44 151.87 128.28 151.87 127.9 157.56 131.06"/><polygon class="cls-19" points="159.96 129.67 157.56 131.06 151.87 127.9 154.4 126.38 159.96 129.67"/><polygon class="cls-15" points="125.18 113.23 125.18 113.61 122.65 115.12 122.65 114.62 125.18 113.23"/><polygon class="cls-15" points="122.65 114.62 122.65 115.12 116.96 111.84 116.96 111.46 122.65 114.62"/><polygon class="cls-19" points="125.18 113.23 122.65 114.62 116.96 111.46 119.49 109.94 125.18 113.23"/><polygon class="cls-15" points="128.34 115 128.34 115.5 125.82 116.89 125.82 116.52 128.34 115"/><polygon class="cls-15" points="125.82 116.52 125.82 116.89 123.29 115.5 123.29 115.12 125.82 116.52"/><polygon class="cls-19" points="128.34 115 125.82 116.52 123.29 115.12 125.82 113.61 128.34 115"/><polygon class="cls-15" points="131.51 116.89 131.51 117.27 128.98 118.67 128.98 118.29 131.51 116.89"/><polygon class="cls-15" points="128.98 118.29 128.98 118.67 126.45 117.27 126.45 116.89 128.98 118.29"/><polygon class="cls-19" points="131.51 116.89 128.98 118.29 126.45 116.89 128.98 115.5 131.51 116.89"/><polygon class="cls-15" points="134.67 118.67 134.67 119.05 132.14 120.56 132.14 120.18 134.67 118.67"/><polygon class="cls-15" points="132.14 120.18 132.14 120.56 129.61 119.17 129.61 118.67 132.14 120.18"/><polygon class="cls-19" points="134.67 118.67 132.14 120.18 129.61 118.67 132.14 117.27 134.67 118.67"/><polygon class="cls-15" points="137.83 120.56 137.83 120.94 135.3 122.33 135.3 121.95 137.83 120.56"/><polygon class="cls-15" points="135.3 121.95 135.3 122.33 132.9 120.94 132.9 120.56 135.3 121.95"/><polygon class="cls-19" points="137.83 120.56 135.3 121.95 132.9 120.56 135.3 119.05 137.83 120.56"/><polygon class="cls-15" points="140.99 122.33 140.99 122.71 138.46 124.23 138.46 123.85 140.99 122.33"/><polygon class="cls-15" points="138.46 123.85 138.46 124.23 136.06 122.84 136.06 122.33 138.46 123.85"/><polygon class="cls-19" points="140.99 122.33 138.46 123.85 136.06 122.33 138.46 120.94 140.99 122.33"/><polygon class="cls-15" points="144.15 124.23 144.15 124.61 141.63 126 141.63 125.62 144.15 124.23"/><polygon class="cls-15" points="141.63 125.62 141.63 126 139.22 124.61 139.22 124.23 141.63 125.62"/><polygon class="cls-19" points="144.15 124.23 141.63 125.62 139.22 124.23 141.63 122.71 144.15 124.23"/><polygon class="cls-15" points="147.32 126 147.32 126.38 144.79 127.9 144.79 127.52 147.32 126"/><polygon class="cls-15" points="144.79 127.52 144.79 127.9 142.38 126.38 142.38 126 144.79 127.52"/><polygon class="cls-19" points="147.32 126 144.79 127.52 142.38 126 144.79 124.61 147.32 126"/><polygon class="cls-15" points="150.48 127.9 150.48 128.28 147.95 129.67 147.95 129.29 150.48 127.9"/><polygon class="cls-15" points="147.95 129.29 147.95 129.67 145.55 128.28 145.55 127.9 147.95 129.29"/><polygon class="cls-19" points="150.48 127.9 147.95 129.29 145.55 127.9 147.95 126.38 150.48 127.9"/><polygon class="cls-15" points="153.64 129.67 153.64 130.05 151.11 131.57 151.11 131.19 153.64 129.67"/><polygon class="cls-15" points="151.11 131.19 151.11 131.57 148.71 130.05 148.71 129.67 151.11 131.19"/><polygon class="cls-19" points="153.64 129.67 151.11 131.19 148.71 129.67 151.11 128.28 153.64 129.67"/><polygon class="cls-15" points="156.8 131.44 156.8 131.94 154.27 133.34 154.27 132.96 156.8 131.44"/><polygon class="cls-15" points="154.27 132.96 154.27 133.34 151.87 131.94 151.87 131.57 154.27 132.96"/><polygon class="cls-19" points="156.8 131.44 154.27 132.96 151.87 131.57 154.27 130.05 156.8 131.44"/><polygon class="cls-15" points="121.89 115.12 121.89 115.5 119.49 116.89 119.49 116.52 121.89 115.12"/><polygon class="cls-15" points="119.49 116.52 119.49 116.89 113.8 113.73 113.8 113.23 119.49 116.52"/><polygon class="cls-19" points="121.89 115.12 119.49 116.52 113.8 113.23 116.33 111.84 121.89 115.12"/><polygon class="cls-15" points="125.18 116.89 125.18 117.27 122.65 118.79 122.65 118.41 125.18 116.89"/><polygon class="cls-15" points="122.65 118.41 122.65 118.79 120.12 117.27 120.12 116.89 122.65 118.41"/><polygon class="cls-19" points="125.18 116.89 122.65 118.41 120.12 116.89 122.65 115.5 125.18 116.89"/><polygon class="cls-15" points="128.34 118.67 128.22 119.17 125.82 120.56 125.82 120.18 128.34 118.67"/><polygon class="cls-15" points="125.82 120.18 125.82 120.56 123.29 119.17 123.29 118.79 125.82 120.18"/><polygon class="cls-19" points="128.34 118.67 125.82 120.18 123.29 118.79 125.82 117.27 128.34 118.67"/><polygon class="cls-15" points="131.51 120.56 131.51 120.94 128.98 122.46 128.98 121.95 131.51 120.56"/><polygon class="cls-15" points="128.98 121.95 128.98 122.46 126.45 120.94 126.45 120.56 128.98 121.95"/><polygon class="cls-19" points="131.51 120.56 128.98 121.95 126.45 120.56 128.98 119.17 131.51 120.56"/><polygon class="cls-15" points="134.67 122.33 134.67 122.84 132.14 124.23 132.14 123.85 134.67 122.33"/><polygon class="cls-15" points="132.14 123.85 132.14 124.23 129.61 122.84 129.61 122.46 132.14 123.85"/><polygon class="cls-19" points="134.67 122.33 132.14 123.85 129.61 122.46 132.14 120.94 134.67 122.33"/><polygon class="cls-15" points="137.83 124.23 137.83 124.61 135.3 126.13 135.3 125.62 137.83 124.23"/><polygon class="cls-15" points="135.3 125.62 135.3 126.13 132.77 124.61 132.77 124.23 135.3 125.62"/><polygon class="cls-19" points="137.83 124.23 135.3 125.62 132.77 124.23 135.3 122.84 137.83 124.23"/><polygon class="cls-15" points="140.99 126 140.99 126.38 138.46 127.9 138.46 127.52 140.99 126"/><polygon class="cls-15" points="138.46 127.52 138.46 127.9 135.93 126.51 135.93 126.13 138.46 127.52"/><polygon class="cls-19" points="140.99 126 138.46 127.52 135.93 126.13 138.46 124.61 140.99 126"/><polygon class="cls-15" points="144.15 127.9 144.15 128.28 141.63 129.67 141.63 129.29 144.15 127.9"/><polygon class="cls-15" points="141.63 129.29 141.63 129.67 139.09 128.28 139.09 127.9 141.63 129.29"/><polygon class="cls-19" points="144.15 127.9 141.63 129.29 139.09 127.9 141.63 126.38 144.15 127.9"/><polygon class="cls-15" points="147.32 129.67 147.32 130.05 144.79 131.57 144.79 131.19 147.32 129.67"/><polygon class="cls-15" points="144.79 131.19 144.79 131.57 142.26 130.18 142.26 129.67 144.79 131.19"/><polygon class="cls-19" points="147.32 129.67 144.79 131.19 142.26 129.67 144.79 128.28 147.32 129.67"/><polygon class="cls-15" points="153.64 133.34 153.64 133.72 151.11 135.23 151.11 134.85 153.64 133.34"/><polygon class="cls-15" points="151.11 134.85 151.11 135.23 145.42 131.94 145.42 131.57 151.11 134.85"/><polygon class="cls-19" points="153.64 133.34 151.11 134.85 145.42 131.57 147.95 130.05 153.64 133.34"/><polygon class="cls-15" points="121.89 118.79 121.89 119.17 119.37 120.56 119.37 120.18 121.89 118.79"/><polygon class="cls-15" points="119.37 120.18 119.37 120.56 110.64 115.5 110.64 115.12 119.37 120.18"/><polygon class="cls-19" points="121.89 118.79 119.37 120.18 110.64 115.12 113.17 113.73 121.89 118.79"/><polygon class="cls-15" points="125.06 120.56 125.06 120.94 122.53 122.46 122.53 122.08 125.06 120.56"/><polygon class="cls-15" points="122.53 122.08 122.53 122.46 120.12 121.07 120.12 120.56 122.53 122.08"/><polygon class="cls-19" points="125.06 120.56 122.53 122.08 120.12 120.56 122.65 119.17 125.06 120.56"/><polygon class="cls-15" points="128.22 122.46 128.22 122.84 125.82 124.23 125.82 123.85 128.22 122.46"/><polygon class="cls-15" points="125.82 123.85 125.82 124.23 123.29 122.84 123.29 122.46 125.82 123.85"/><polygon class="cls-19" points="128.22 122.46 125.82 123.85 123.29 122.46 125.82 120.94 128.22 122.46"/><polygon class="cls-15" points="131.38 124.23 131.38 124.61 128.98 126.13 128.98 125.75 131.38 124.23"/><polygon class="cls-15" points="128.98 125.75 128.98 126.13 126.45 124.61 126.45 124.23 128.98 125.75"/><polygon class="cls-19" points="131.38 124.23 128.98 125.75 126.45 124.23 128.98 122.84 131.38 124.23"/><polygon class="cls-15" points="134.54 126.13 134.54 126.51 132.14 127.9 132.14 127.52 134.54 126.13"/><polygon class="cls-15" points="132.14 127.52 132.14 127.9 129.61 126.51 129.61 126.13 132.14 127.52"/><polygon class="cls-19" points="134.54 126.13 132.14 127.52 129.61 126.13 132.14 124.61 134.54 126.13"/><polygon class="cls-15" points="137.7 127.9 137.7 128.28 135.3 129.79 135.3 129.29 137.7 127.9"/><polygon class="cls-15" points="135.3 129.29 135.3 129.79 132.77 128.28 132.77 127.9 135.3 129.29"/><polygon class="cls-19" points="137.7 127.9 135.3 129.29 132.77 127.9 135.3 126.51 137.7 127.9"/><polygon class="cls-15" points="140.87 129.67 140.87 130.18 138.46 131.57 138.46 131.19 140.87 129.67"/><polygon class="cls-15" points="138.46 131.19 138.46 131.57 135.93 130.18 135.93 129.79 138.46 131.19"/><polygon class="cls-19" points="140.87 129.67 138.46 131.19 135.93 129.79 138.46 128.28 140.87 129.67"/><polygon class="cls-15" points="144.03 131.57 144.03 131.94 141.63 133.46 141.63 132.96 144.03 131.57"/><polygon class="cls-15" points="141.63 132.96 141.63 133.46 139.09 131.94 139.09 131.57 141.63 132.96"/><polygon class="cls-19" points="144.03 131.57 141.63 132.96 139.09 131.57 141.63 130.18 144.03 131.57"/><polygon class="cls-15" points="150.48 135.23 150.48 135.61 147.95 137 147.95 136.63 150.48 135.23"/><polygon class="cls-15" points="147.95 136.63 147.95 137 142.26 133.84 142.26 133.46 147.95 136.63"/><polygon class="cls-19" points="150.48 135.23 147.95 136.63 142.26 133.46 144.79 131.94 150.48 135.23"/><polygon class="cls-15" points="112.41 116.89 112.41 117.4 109.88 118.79 109.88 118.41 112.41 116.89"/><polygon class="cls-15" points="109.88 118.41 109.88 118.79 107.48 117.4 107.48 117.02 109.88 118.41"/><polygon class="cls-19" points="112.41 116.89 109.88 118.41 107.48 117.02 109.88 115.5 112.41 116.89"/><polygon class="cls-15" points="115.57 118.79 115.57 119.17 113.04 120.69 113.04 120.31 115.57 118.79"/><polygon class="cls-15" points="113.04 120.31 113.04 120.69 110.64 119.17 110.64 118.79 113.04 120.31"/><polygon class="cls-19" points="115.57 118.79 113.04 120.31 110.64 118.79 113.04 117.4 115.57 118.79"/><polygon class="cls-15" points="118.73 120.56 118.73 121.07 116.2 122.46 116.2 122.08 118.73 120.56"/><polygon class="cls-15" points="116.2 122.08 116.2 122.46 113.8 121.07 113.8 120.69 116.2 122.08"/><polygon class="cls-19" points="118.73 120.56 116.2 122.08 113.8 120.69 116.2 119.17 118.73 120.56"/><polygon class="cls-15" points="134.54 129.79 134.54 130.18 132.01 131.57 132.01 131.19 134.54 129.79"/><polygon class="cls-15" points="132.01 131.19 132.01 131.57 116.96 122.84 116.96 122.46 132.01 131.19"/><polygon class="cls-19" points="134.54 129.79 132.01 131.19 116.96 122.46 119.49 121.07 134.54 129.79"/><polygon class="cls-15" points="137.7 131.57 137.7 131.94 135.18 133.46 135.18 133.08 137.7 131.57"/><polygon class="cls-15" points="135.18 133.08 135.18 133.46 132.77 131.94 132.77 131.57 135.18 133.08"/><polygon class="cls-19" points="137.7 131.57 135.18 133.08 132.77 131.57 135.3 130.18 137.7 131.57"/><polygon class="cls-15" points="140.87 133.46 140.87 133.84 138.34 135.23 138.34 134.85 140.87 133.46"/><polygon class="cls-15" points="138.34 134.85 138.34 135.23 135.93 133.84 135.93 133.46 138.34 134.85"/><polygon class="cls-19" points="140.87 133.46 138.34 134.85 135.93 133.46 138.46 131.94 140.87 133.46"/><polygon class="cls-15" points="147.19 137 147.19 137.51 144.66 138.9 144.66 138.52 147.19 137"/><polygon class="cls-15" points="144.66 138.52 144.66 138.9 139.09 135.61 139.09 135.23 144.66 138.52"/><polygon class="cls-19" points="147.19 137 144.66 138.52 139.09 135.23 141.63 133.84 147.19 137"/><polygon class="cls-20" points="129.1 102.73 158.07 119.42 158.07 98.56 158.07 98.56 129.1 81.86 129.1 102.73"/><polygon class="cls-16" points="156.04 100.58 145.8 94.64 145.8 109.05 156.04 115 156.04 100.58"/><polygon class="cls-19" points="132.01 87.55 143.65 94.26 143.65 93.37 132.01 86.67 132.01 87.55"/><polygon class="cls-19" points="132.01 89.45 143.65 96.15 143.65 95.27 132.01 88.69 132.01 89.45"/><polygon class="cls-19" points="132.01 91.47 143.65 98.18 143.65 97.29 132.01 90.59 132.01 91.47"/><polygon class="cls-19" points="132.01 93.37 143.65 100.07 143.65 99.19 132.01 92.61 132.01 93.37"/><polygon class="cls-19" points="132.01 95.39 143.65 102.1 143.65 101.21 132.01 94.51 132.01 95.39"/><polygon class="cls-19" points="132.01 97.29 143.65 104 143.65 103.11 132.01 96.53 132.01 97.29"/><polygon class="cls-19" points="132.01 101.21 140.11 105.89 140.11 105.01 132.01 100.45 132.01 101.21"/><polygon class="cls-19" points="132.01 99.31 143.65 106.02 143.65 105.13 132.01 98.43 132.01 99.31"/><polygon class="cls-21" points="150.1 98.43 147.06 102.73 153.13 106.27 150.1 98.43"/><polygon class="cls-22" points="152.5 101.09 149.47 105.39 155.54 108.93 152.5 101.09"/><path class="cls-13" d="M154.9,109.94c0,1.52-1,2.15-2.4,1.39a5.33,5.33,0,0,1-2.4-4.17c0-1.52,1-2.15,2.4-1.39A5.7,5.7,0,0,1,154.9,109.94Z"/><text class="cls-23" transform="translate(46.28 276.21)"><tspan class="cls-24">T</tspan><tspan x="15.62" y="0">echnical</tspan></text></svg>